<?xml version="1.0" encoding="utf-8"?>
<!-- Generator: Adobe Illustrator 15.0.2, SVG Export Plug-In . SVG Version: 6.00 Build 0)  -->
<!DOCTYPE svg PUBLIC "-//W3C//DTD SVG 1.1//EN" "http://www.w3.org/Graphics/SVG/1.1/DTD/svg11.dtd">
<svg version="1.1" id="Calque_1" xmlns="http://www.w3.org/2000/svg" xmlns:xlink="http://www.w3.org/1999/xlink" x="0px" y="0px"
	 width="16px" height="16px" viewBox="248 248 16 16" enable-background="new 248 248 16 16" xml:space="preserve">
<g>
	<path fill="#2D2D2D" d="M261.145,253.156c0.456-0.653,0.914-1.304,1.371-1.956c-0.582-0.579-1.16-1.16-1.741-1.739
		c-0.643,0.463-1.286,0.925-1.93,1.387c-0.385-0.216-0.795-0.388-1.22-0.507c-0.139-0.781-0.272-1.562-0.412-2.342h-2.46
		c-0.128,0.778-0.253,1.556-0.382,2.334c-0.425,0.118-0.837,0.287-1.223,0.502c-0.642-0.458-1.284-0.917-1.926-1.375
		c-0.579,0.58-1.159,1.159-1.739,1.738c0.451,0.646,0.903,1.291,1.354,1.937c-0.219,0.388-0.392,0.802-0.512,1.231
		c-0.775,0.13-1.55,0.257-2.325,0.388v2.459c0.775,0.139,1.551,0.271,2.325,0.414c0.116,0.429,0.292,0.841,0.508,1.229
		c-0.457,0.64-0.915,1.278-1.371,1.919c0.58,0.579,1.158,1.161,1.738,1.74c0.646-0.453,1.293-0.905,1.939-1.357
		c0.386,0.217,0.8,0.386,1.226,0.506c0.129,0.778,0.257,1.558,0.39,2.336h2.459c0.138-0.781,0.277-1.562,0.415-2.342
		c0.425-0.122,0.835-0.294,1.22-0.511c0.65,0.456,1.302,0.911,1.951,1.368c0.58-0.58,1.16-1.16,1.74-1.741
		c-0.464-0.645-0.93-1.29-1.393-1.936c0.213-0.382,0.382-0.789,0.498-1.21c0.785-0.142,1.57-0.274,2.354-0.417v-2.459
		c-0.785-0.128-1.569-0.257-2.354-0.385C261.528,253.946,261.358,253.538,261.145,253.156z M263.36,256.677
		c-0.739,0.13-1.479,0.258-2.218,0.39c-0.13,0.481-0.277,0.963-0.521,1.4c-0.077,0.14-0.155,0.278-0.23,0.419
		c0.438,0.606,0.874,1.215,1.311,1.821c-0.323,0.326-0.649,0.65-0.974,0.976c-0.614-0.43-1.226-0.862-1.841-1.291
		c-0.422,0.246-0.857,0.479-1.328,0.619c-0.164,0.048-0.328,0.096-0.492,0.146c-0.128,0.734-0.261,1.469-0.39,2.203
		c-0.46,0-0.921,0-1.382,0c-0.121-0.732-0.244-1.465-0.364-2.197c-0.478-0.132-0.957-0.274-1.393-0.515
		c-0.146-0.082-0.292-0.162-0.439-0.243c-0.61,0.425-1.217,0.853-1.826,1.278c-0.325-0.326-0.651-0.651-0.976-0.978
		c0.431-0.603,0.862-1.205,1.292-1.807c-0.197-0.35-0.4-0.699-0.531-1.081c-0.097-0.244-0.155-0.501-0.231-0.752
		c-0.729-0.131-1.458-0.26-2.188-0.389c0-0.46,0-0.921,0-1.381c0.729-0.121,1.459-0.243,2.188-0.363
		c0.109-0.381,0.21-0.766,0.385-1.123c0.106-0.248,0.251-0.476,0.377-0.713c-0.424-0.608-0.85-1.215-1.274-1.824
		c0.326-0.324,0.649-0.651,0.976-0.975c0.603,0.433,1.208,0.862,1.811,1.295c0.437-0.25,0.886-0.484,1.372-0.623
		c0.154-0.043,0.308-0.088,0.461-0.131c0.123-0.732,0.24-1.466,0.361-2.199c0.459,0,0.919,0,1.378,0
		c0.129,0.735,0.258,1.471,0.388,2.206c0.37,0.107,0.746,0.203,1.094,0.374c0.254,0.108,0.489,0.255,0.731,0.387
		c0.605-0.436,1.212-0.871,1.818-1.306c0.325,0.324,0.65,0.649,0.976,0.973c-0.431,0.614-0.863,1.228-1.292,1.843
		c0.181,0.328,0.372,0.652,0.498,1.006c0.106,0.26,0.172,0.534,0.251,0.803l0.012,0.01c0.735,0.123,1.472,0.241,2.208,0.361
		C263.361,255.756,263.361,256.216,263.36,256.677z"/>
	<path fill="#2D2D2D" d="M257.452,253.514c-0.55-0.324-1.209-0.454-1.841-0.366c-1.112,0.136-2.089,0.988-2.382,2.069
		c-0.188,0.66-0.13,1.387,0.165,2.007c0.281,0.604,0.78,1.102,1.383,1.382c0.61,0.289,1.324,0.351,1.975,0.173
		c0.971-0.253,1.773-1.055,2.026-2.026c0.177-0.645,0.118-1.351-0.164-1.958C258.37,254.262,257.958,253.809,257.452,253.514z
		 M257.925,257.141c-0.292,0.492-0.776,0.867-1.33,1.017c-0.521,0.144-1.093,0.093-1.578-0.146
		c-0.518-0.253-0.931-0.713-1.125-1.256c-0.199-0.554-0.169-1.188,0.087-1.718c0.342-0.729,1.101-1.242,1.907-1.271
		c0.511-0.027,1.031,0.126,1.44,0.434c0.46,0.337,0.785,0.856,0.878,1.419C258.294,256.137,258.198,256.688,257.925,257.141z"/>
</g>
</svg>
