<?xml version="1.0" encoding="utf-8"?>
<!-- Generator: Adobe Illustrator 15.0.2, SVG Export Plug-In . SVG Version: 6.00 Build 0)  -->
<!DOCTYPE svg PUBLIC "-//W3C//DTD SVG 1.1//EN" "http://www.w3.org/Graphics/SVG/1.1/DTD/svg11.dtd">
<svg version="1.1" id="Calque_1" xmlns="http://www.w3.org/2000/svg" xmlns:xlink="http://www.w3.org/1999/xlink" x="0px" y="0px"
	 width="75.382px" height="33px" viewBox="0 0 75.382 33" enable-background="new 0 0 75.382 33" xml:space="preserve">
<path fill="#FFFBFC" d="M6.167,20.684V2.712H0V0h20.691v2.712H9.258v17.972H6.167L6.167,20.684z"/>
<rect x="17.631" y="4.712" fill="#FFFBFC" width="3.061" height="15.972"/>
<path fill="#FFFBFC" d="M23.409,11.88c0-4.349,2.531-7.44,6.789-7.44c3.819,0,6.123,2.485,6.258,5.137h-2.939
	c-0.303-1.349-1.5-2.546-3.137-2.546c-2.455,0-3.895,1.864-3.895,4.925v1.424c0,3.031,1.516,4.972,3.91,4.972
	c1.909,0,2.97-1.063,3.228-2.319h2.924c-0.455,3.014-2.652,4.924-6.35,4.924c-4.303,0-6.789-3.196-6.789-7.591L23.409,11.88
	L23.409,11.88z"/>
<path fill="#FFFBFC" d="M41.889,20.684h-3.062V0.042h3.062v11.565h0.138l5.984-6.895h3.683l-6.151,6.925l6.545,9.046h-3.695
	l-5.137-7.183l-1.365,1.515L41.889,20.684L41.889,20.684z"/>
<path fill="#FFFBFC" d="M52.037,13.426v-1.683c0-4.379,2.547-7.304,6.758-7.304c4.229,0,6.729,3,6.729,7.456v1.515H55.083v0.333
	c0,2.834,1.484,4.741,3.896,4.741c1.758,0,2.938-0.877,3.396-2.301h2.953c-0.529,2.607-2.621,4.773-6.41,4.773
	C54.689,20.956,52.037,18.076,52.037,13.426z M62.505,11.168v-0.045c0-2.379-1.469-4.243-3.696-4.243
	c-2.272,0-3.728,1.879-3.728,4.243v0.045H62.505z"/>
<path fill="#FFFBFC" d="M69.125,0h3.016v4.712h3.137v2.485H72.14v8.849c0,1.819,0.65,2.304,2.516,2.304
	c0.271,0,0.516-0.017,0.729-0.029v2.38c-0.258,0.045-0.863,0.104-1.485,0.104c-3.849,0-4.806-1.426-4.806-4.607v-9h-2.182V4.712
	h2.213V0L69.125,0z"/>
<g>
	<polygon fill="#FFFBFC" points="28.632,23.754 28.632,23.254 28.632,22.723 28.632,22.223 28.132,22.223 0.5,22.223 0,22.223 
		0,22.723 0,23.254 0,23.754 0.5,23.754 6.244,23.754 6.244,32.372 6.244,32.872 6.744,32.872 7.319,32.872 7.819,32.872 
		7.819,32.372 7.819,23.754 28.132,23.754 	"/>
	<path fill="#FFFBFC" d="M14.703,25.509v-0.546V24.54l-0.417-0.07c-0.131-0.022-0.328-0.057-0.623-0.057
		c-0.626,0-1.161,0.156-1.587,0.454v-0.34h-0.5H11.01h-0.5v0.5v7.344v0.5h0.5h0.567h0.5v-0.5v-4.293c0-0.97,0.263-2.126,1.516-2.126
		c0.226,0,0.458,0.038,0.524,0.049l0.586,0.103V25.509z"/>
	<path fill="#FFFBFC" d="M18,24.406c-1.713,0-2.835,0.901-3.002,2.41l-0.061,0.555h0.558h0.553h0.417l0.075-0.411
		c0.093-0.513,0.334-1.036,1.424-1.036c1.302,0,1.452,0.743,1.452,1.303v0.543h-1.75c-1.845,0-2.991,0.976-2.991,2.545
		c0,1.606,1.165,2.686,2.898,2.686c0.795,0,1.407-0.228,1.857-0.531v0.402h0.5h0.561h0.5v-0.5V27.12
		C20.991,25.472,19.817,24.406,18,24.406z M17.644,31.48c-0.661,0-1.366-0.311-1.366-1.182c0-0.681,0.472-1.025,1.402-1.025h1.735
		v0.636C19.415,30.94,18.524,31.48,17.644,31.48z"/>
	<path fill="#FFFBFC" d="M27.578,29.895h-0.415l-0.076,0.408c-0.066,0.351-0.356,1.166-1.624,1.166
		c-1.646,0-1.891-1.447-1.891-2.311v-0.938c0-1.455,0.671-2.289,1.842-2.289c1.061,0,1.552,0.692,1.65,1.285l0.069,0.418h0.424
		h0.561h0.531l-0.032-0.53c-0.082-1.341-1.215-2.697-3.224-2.697c-2.058,0-3.388,1.464-3.388,3.729v1.07
		c0,2.34,1.307,3.793,3.41,3.793c2.121,0,3.056-1.368,3.212-2.539l0.076-0.566h-0.571H27.578z"/>
	<polygon fill="#FFFBFC" points="32.865,28.114 35.736,25.39 36.646,24.527 35.392,24.527 34.625,24.527 34.427,24.527 
		34.282,24.663 31.244,27.523 31.244,22.723 31.244,22.223 30.744,22.223 30.169,22.223 29.669,22.223 29.669,22.723 29.669,32.372 
		29.669,32.872 30.169,32.872 30.744,32.872 31.244,32.872 31.244,32.372 31.243,29.603 31.699,29.179 34.437,32.681 34.587,32.873 
		34.831,32.873 35.562,32.873 36.588,32.873 35.956,32.065 	"/>
	<path fill="#FFFBFC" d="M39.289,24.407c-2.068,0-3.354,1.508-3.354,3.935v0.78c0,2.392,1.312,3.878,3.424,3.878
		c1.961,0,3.021-1.251,3.178-2.414l0.076-0.566h-0.572h-0.576h-0.422l-0.07,0.417c-0.066,0.388-0.477,1.044-1.6,1.044
		c-1.152,0-1.828-0.81-1.869-2.228h4.644h0.5v-0.5v-0.392C42.648,25.922,41.361,24.407,39.289,24.407z M39.289,25.925
		c0.988,0,1.625,0.673,1.758,1.824h-3.518C37.662,26.598,38.298,25.925,39.289,25.925z"/>
	<path fill="#FFFBFC" d="M47.503,24.47c-0.129-0.022-0.326-0.057-0.623-0.057c-0.625,0-1.162,0.156-1.588,0.455v-0.341h-0.5h-0.566
		h-0.5v0.5v7.344v0.5h0.5h0.566h0.5v-0.5v-4.293c0-0.97,0.264-2.126,1.518-2.126c0.225,0,0.457,0.038,0.523,0.049l0.586,0.103
		v-0.595v-0.546v-0.422L47.503,24.47z"/>
</g>
</svg>
