<?xml version="1.0" encoding="utf-8"?>
<!-- Generator: Adobe Illustrator 15.0.2, SVG Export Plug-In . SVG Version: 6.00 Build 0)  -->
<!DOCTYPE svg PUBLIC "-//W3C//DTD SVG 1.1//EN" "http://www.w3.org/Graphics/SVG/1.1/DTD/svg11.dtd">
<svg version="1.1" id="Calque_1" xmlns="http://www.w3.org/2000/svg" xmlns:xlink="http://www.w3.org/1999/xlink" x="0px" y="0px"
	 width="400px" height="160.611px" viewBox="0 0 400 160.611" enable-background="new 0 0 400 160.611" xml:space="preserve">
<g opacity="0.3">
	<g>
		<path fill="#000001" d="M203.688,43.164v9.488h-39.99v62.867h-10.813V52.652h-21.574v-9.488H203.688 M203.688,42.164h-72.376
			c-0.552,0-1,0.448-1,1v9.488c0,0.552,0.448,1,1,1h20.574v61.867c0,0.553,0.448,1,1,1h10.813c0.552,0,1-0.447,1-1V53.652h38.99
			c0.553,0,1-0.448,1-1v-9.488C204.688,42.612,204.241,42.164,203.688,42.164L203.688,42.164z"/>
	</g>
	<g>
		<path fill="#000001" d="M203.688,59.645v55.873h-10.704V59.645H203.688 M203.688,58.645h-10.704c-0.552,0-1,0.448-1,1v55.873
			c0,0.553,0.448,1,1,1h10.704c0.553,0,1-0.447,1-1V59.645C204.688,59.093,204.241,58.645,203.688,58.645L203.688,58.645z"/>
	</g>
	<g>
		<path fill="#000001" d="M236.939,58.698c13.359,0,21.42,8.694,21.894,17.97h-10.281c-1.063-4.717-5.255-8.904-10.977-8.904
			c-8.587,0-13.623,6.52-13.623,17.226v4.981c0,10.598,5.301,17.381,13.669,17.381c6.687,0,10.396-3.709,11.299-8.109h10.23
			c-1.59,10.55-9.274,17.225-22.211,17.225c-15.049,0-23.746-11.189-23.746-26.555l0.002-5.192
			C213.195,69.51,222.051,58.698,236.939,58.698 M236.939,57.698c-15.031,0-24.744,10.607-24.744,27.023l-0.002,5.192
			c0,16.739,9.714,27.555,24.746,27.555c13.013,0,21.469-6.588,23.2-18.075c0.043-0.288-0.041-0.581-0.231-0.802
			c-0.189-0.221-0.467-0.348-0.758-0.348h-10.23c-0.475,0-0.884,0.334-0.979,0.799c-0.939,4.578-4.798,7.311-10.319,7.311
			c-7.814,0-12.669-6.276-12.669-16.381v-4.981c0-10.16,4.719-16.226,12.623-16.226c5.613,0,9.119,4.211,10.001,8.124
			c0.103,0.457,0.508,0.78,0.976,0.78h10.281c0.274,0,0.536-0.112,0.725-0.311c0.189-0.199,0.288-0.466,0.274-0.74
			C259.352,67.216,251.334,57.698,236.939,57.698L236.939,57.698z"/>
	</g>
	<g>
		<path fill="#000001" d="M277.847,43.311v40.454h0.471l20.934-24.119h12.887l-21.523,24.228l22.9,31.646h-12.933l-17.974-25.125
			l-4.768,5.3v19.825h-10.7V43.311H277.847 M312.138,59.646h0.005 M277.847,42.311h-10.706c-0.553,0-1,0.448-1,1v72.208
			c0,0.553,0.447,1,1,1h10.7c0.553,0,1-0.447,1-1V96.078l3.679-4.09l17.249,24.113c0.188,0.263,0.491,0.418,0.813,0.418h12.933
			c0.376,0,0.72-0.211,0.891-0.545c0.171-0.335,0.14-0.737-0.08-1.041l-22.431-30.995l20.962-23.596
			c0.176-0.18,0.284-0.426,0.284-0.696c0-0.552-0.445-1-0.998-1h-0.005h-12.887c-0.29,0-0.565,0.125-0.755,0.345L278.847,81.63
			V43.311C278.847,42.759,278.399,42.311,277.847,42.311L277.847,42.311z"/>
	</g>
	<g>
		<path fill="#000001" d="M336.978,58.698c14.796,0,23.54,10.498,23.54,26.078v5.299h-36.526v1.163
			c0,9.917,5.198,16.594,13.632,16.594c6.145,0,10.281-3.075,11.872-8.056h10.332c-1.849,9.113-9.168,16.692-22.415,16.692
			c-0.004,0-0.005,0-0.009,0c-14.791,0-24.07-10.073-24.07-26.343V84.25C313.333,68.925,322.238,58.698,336.978,58.698
			 M323.987,82.234h25.978v-0.168c0-8.317-5.136-14.835-12.938-14.835c-7.949,0-13.04,6.566-13.04,14.835V82.234 M336.978,57.698
			c-14.971,0-24.645,10.422-24.645,26.551v5.876c0,16.865,9.606,27.343,25.07,27.343c12.437,0,21.182-6.54,23.404-17.493
			c0.06-0.295-0.017-0.6-0.206-0.832c-0.19-0.232-0.475-0.367-0.774-0.367h-10.332c-0.436,0-0.82,0.281-0.952,0.695
			c-1.517,4.746-5.395,7.36-10.92,7.36c-7.674,0-12.632-6.121-12.632-15.594v-0.163h35.526c0.553,0,1-0.447,1-1v-5.299
			C361.518,68.327,351.885,57.698,336.978,57.698L336.978,57.698z M325.005,81.234c0.326-7.698,5.178-13.003,12.022-13.003
			c6.676,0,11.585,5.418,11.919,13.003H325.005L325.005,81.234z"/>
	</g>
	<g>
		<path fill="#000001" d="M373.104,43.163l0.003,0.001h10.549v16.482h10.976v8.696h-10.976v30.952c0,6.361,2.279,8.06,8.801,8.06
			c0.951,0,1.802-0.058,2.542-0.104v8.323c-0.906,0.159-3.023,0.373-5.198,0.373c-13.468,0-16.803-4.979-16.803-16.114v-31.49
			h-7.633v-8.696h7.739V43.163 M373.105,42.164c-0.208,0-0.413,0.064-0.585,0.188c-0.261,0.188-0.417,0.489-0.417,0.811v15.482
			h-6.739c-0.553,0-1,0.448-1,1v8.696c0,0.552,0.447,1,1,1h6.633v30.49c0,10.839,2.913,17.114,17.803,17.114
			c2.319,0,4.483-0.232,5.371-0.388c0.479-0.084,0.827-0.5,0.827-0.985v-8.323c0-0.276-0.114-0.54-0.315-0.729
			c-0.187-0.174-0.431-0.271-0.685-0.271c-0.021,0-0.042,0.001-0.063,0.002l-0.123,0.008c-0.697,0.044-1.488,0.095-2.355,0.095
			c-6.197,0-7.801-1.451-7.801-7.06V69.342h9.976c0.553,0,1-0.448,1-1v-8.696c0-0.552-0.447-1-1-1h-9.976V43.164
			c0-0.552-0.447-1-1-1h-10.533C373.116,42.164,373.111,42.164,373.105,42.164L373.105,42.164z"/>
	</g>
	<g>
		<path fill="#000001" d="M227.97,124.397v1.857h-72.805v31.9h-2.009v-31.9h-21.844v-1.857H227.97 M227.97,123.397h-96.658
			c-0.552,0-1,0.447-1,1v1.857c0,0.553,0.448,1,1,1h20.844v30.9c0,0.553,0.448,1,1,1h2.009c0.552,0,1-0.447,1-1v-30.9h71.805
			c0.553,0,1-0.447,1-1v-1.857C228.97,123.844,228.522,123.397,227.97,123.397L227.97,123.397z"/>
	</g>
	<g>
		<path fill="#000001" d="M177.358,132.068c0.969,0,1.564,0.121,1.883,0.176v1.912c-0.271-0.055-1.188-0.206-2.135-0.206
			c-4.687,0-7.049,3.652-7.049,9.186v15.023h-1.984v-25.698h0.003h1.984v4.773h0.101
			C170.93,134.693,172.816,132.068,177.358,132.068 M177.358,131.068c-3.039,0-5.015,1.063-6.299,2.477v-1.084c0-0.553-0.448-1-1-1
			h-1.984c-0.552,0-1.003,0.447-1.003,1v25.698c0,0.553,0.448,1,1,1h1.984c0.552,0,1-0.447,1-1v-15.023
			c0-3.057,0.786-8.186,6.049-8.186c0.833,0,1.681,0.135,1.937,0.187c0.066,0.013,0.132,0.02,0.198,0.02
			c0.229,0,0.453-0.078,0.633-0.226c0.232-0.19,0.367-0.475,0.367-0.774v-1.912c0-0.487-0.351-0.903-0.831-0.985l-0.083-0.015
			C178.979,131.182,178.332,131.068,177.358,131.068L177.358,131.068z"/>
	</g>
	<g>
		<path fill="#000001" d="M192.528,132.034c5.209,0,8.715,2.736,8.715,7.741v18.378h-1.959v-4.151h-0.101
			c-0.681,1.664-3.208,4.6-8.148,4.6c-4.99,0-8.386-2.927-8.386-7.646c0-4.272,2.951-7.155,8.712-7.155h7.87v-3.642
			c0-4.33-2.71-6.309-6.826-6.309c-4.149,0-6.131,1.911-6.703,5.061h-1.937C184.213,134.891,186.993,132.034,192.528,132.034
			 M191.284,156.791c4.318-0.004,7.942-2.885,7.942-7.252v-3.965h-7.824c-4.591,0-6.647,2.204-6.647,5.341
			C184.756,154.589,187.507,156.791,191.284,156.791 M192.528,131.034c-5.651,0-9.207,2.83-9.756,7.766
			c-0.032,0.282,0.059,0.565,0.249,0.777c0.189,0.212,0.46,0.333,0.745,0.333h1.937c0.483,0,0.897-0.346,0.984-0.821
			c0.525-2.893,2.342-4.239,5.719-4.239c3.866,0,5.826,1.786,5.826,5.309v2.642h-6.87c-6.081,0-9.712,3.049-9.712,8.155
			c0,5.172,3.772,8.646,9.386,8.646c3.386,0,5.75-1.254,7.25-2.67v1.222c0,0.553,0.448,1,1,1h1.959c0.553,0,1-0.447,1-1v-18.378
			C202.243,134.384,198.521,131.034,192.528,131.034L192.528,131.034z M191.284,155.791c-3.358,0-5.528-1.914-5.528-4.876
			c0-3.588,3.071-4.341,5.647-4.341h6.824v2.965C198.227,153.158,195.307,155.787,191.284,155.791L191.284,155.791L191.284,155.791z
			"/>
	</g>
	<g>
		<path fill="#000001" d="M218.39,132.039c6.108,0,9.307,4.119,9.529,7.797h-1.962c-0.503-3.003-3.026-5.961-7.494-5.961
			c-4.87,0-8.199,3.476-8.199,9.763v3.271c0,6.353,3.256,9.824,8.369,9.824c4.789,0,6.902-2.852,7.397-5.508h1.936
			c-0.47,3.526-3.15,7.371-9.503,7.371c-6.238,0-10.182-4.2-10.182-11.515l0.004-3.746
			C208.285,136.133,212.454,132.039,218.39,132.039 M227.966,151.224h0.005 M218.39,131.039c-6.746,0-11.104,4.826-11.104,12.296
			l-0.004,3.745c0,7.721,4.284,12.516,11.182,12.516c6.885,0,9.926-4.203,10.484-8.164c0.014-0.067,0.021-0.136,0.021-0.207
			c0-0.553-0.445-1-0.998-1h-0.005h-1.936c-0.481,0-0.895,0.344-0.983,0.816c-0.263,1.411-1.414,4.691-6.414,4.691
			c-4.684,0-7.369-3.216-7.369-8.824v-3.271c0-5.487,2.691-8.763,7.199-8.763c3.902,0,6.08,2.574,6.508,5.126
			c0.081,0.482,0.498,0.835,0.986,0.835h1.962c0.275,0,0.539-0.114,0.729-0.314c0.188-0.201,0.286-0.471,0.27-0.746
			C228.654,135.433,224.954,131.039,218.39,131.039L218.39,131.039z"/>
	</g>
	<g>
		<path fill="#000001" d="M237.108,124.388v20.754h0.098l13.479-12.689h2.682l-11.197,10.624l11.793,15.074h-2.562l-10.747-13.752
			l-3.546,3.295v10.461h-2.013v-33.767H237.108 M253.367,132.453h0.005 M237.108,123.388h-2.013c-0.553,0-1,0.447-1,1v33.767
			c0,0.553,0.447,1,1,1h2.013c0.553,0,1-0.447,1-1V148.13l2.429-2.257l10.076,12.895c0.189,0.242,0.48,0.384,0.788,0.384h2.562
			c0.383,0,0.731-0.218,0.899-0.562c0.167-0.344,0.124-0.754-0.111-1.055l-11.233-14.358l10.51-9.972
			c0.21-0.184,0.343-0.452,0.343-0.752c0-0.553-0.445-1-0.998-1h-0.005h-2.682c-0.255,0-0.5,0.098-0.686,0.271l-11.892,11.195
			v-18.531C238.108,123.836,237.661,123.388,237.108,123.388L237.108,123.388z"/>
	</g>
	<g>
		<path fill="#000001" d="M266.987,132.039c6.058,0,10.005,4.216,10.005,12.091v1.364h-17.997v1.268
			c0,6.407,3.23,10.024,8.29,10.024c4.644,0,6.928-2.753,7.327-5.11h2.014c-0.423,3.148-3.35,6.925-9.386,6.925
			c-0.001,0-0.001,0-0.002,0c-6.355,0-10.227-4.349-10.227-11.814v-2.729C257.012,136.28,260.936,132.039,266.987,132.039
			 M258.995,143.729h15.989v-0.096c0-6.106-3.179-9.784-7.997-9.784c-4.813,0-7.992,3.678-7.992,9.784V143.729 M266.987,131.039
			c-6.77,0-10.976,4.988-10.976,13.018v2.729c0,7.904,4.302,12.814,11.227,12.814c6.412,0,9.875-4.039,10.379-7.792
			c0.038-0.285-0.049-0.574-0.238-0.791c-0.19-0.217-0.465-0.342-0.753-0.342h-2.014c-0.488,0-0.904,0.352-0.986,0.833
			c-0.36,2.129-2.461,4.277-6.341,4.277c-4.633,0-7.29-3.289-7.29-9.024v-0.268h16.997c0.553,0,1-0.447,1-1v-1.364
			C277.992,135.932,273.878,131.039,266.987,131.039L266.987,131.039z M260.021,142.729c0.285-4.886,2.899-7.88,6.967-7.88
			c4.07,0,6.687,2.994,6.972,7.88H260.021L260.021,142.729z"/>
	</g>
	<g>
		<path fill="#000001" d="M293.55,132.068c0.968,0,1.565,0.121,1.891,0.176v1.912c-0.271-0.055-1.19-0.206-2.132-0.206
			c-4.695,0-7.046,3.652-7.046,9.186v15.023h-1.991v-25.698h1.985v4.773h0.093C287.123,134.693,289.009,132.068,293.55,132.068
			 M293.55,131.068c-3.032,0-5.008,1.061-6.293,2.472v-1.079c0-0.553-0.447-1-1-1h-1.985c-0.553,0-1,0.447-1,1v25.698
			c0,0.553,0.447,1,1,1h1.991c0.553,0,1-0.447,1-1v-15.023c0-3.057,0.785-8.186,6.046-8.186c0.828,0,1.677,0.135,1.935,0.187
			c0.065,0.013,0.132,0.02,0.197,0.02c0.229,0,0.453-0.079,0.634-0.227c0.231-0.189,0.366-0.474,0.366-0.773v-1.912
			c0-0.488-0.353-0.905-0.834-0.986l-0.093-0.016C295.164,131.181,294.514,131.068,293.55,131.068L293.55,131.068z"/>
	</g>
	<g>
		<path fill="#000001" d="M198.19,2.006c1.907,0.118,3.674,0.734,5.306,1.855c1.623,1.121,2.521,2.781,2.694,4.971
			c0.162,2.19,0.249,4.747,0.262,7.672c0,2.924-0.063,5.732-0.171,8.429c-0.336,5.05-3.091,7.576-8.257,7.576H110.84
			c-3.828,0-5.735,1.966-5.735,5.901l0.092,41.744c0.02,0,0.04,0,0.059,0c0.733,0,1.471,0.222,2.095,0.708l9.145,7.127
			c0.812,0.628,1.302,1.606,1.319,2.639c0.014,1.029-0.428,2.018-1.226,2.69l-11.252,9.408c0.104,0.491,0.159,0.999,0.159,1.516
			c0,0.636-0.089,1.256-0.243,1.843l0.017,8.514c0,4.006-3.282,7.303-7.3,7.303h-4.548l5.29,21.824
			c4.327,0.451,10.985,1.7,12.572,3.449c1.662,1.851,2.71,4.237,2.809,6.885c0.008,0.075,0.049,0.135,0.05,0.202v0.472
			c0,1.87-1.544,3.418-3.425,3.418H88.34c-1.877,0-3.421-1.548-3.421-3.418v-0.472c0-0.067,0.037-0.131,0.042-0.202
			c0.114-2.655,1.146-5.038,2.808-6.885c1.115-1.229,2.5-2.203,4.058-2.833l-5.436-22.44H54.253v22.195
			c1.822,0.606,3.427,1.683,4.697,3.078c1.659,1.851,2.697,4.237,2.813,6.885c0.004,0.075,0.042,0.135,0.038,0.202v0.472
			c0,1.87-1.544,3.418-3.417,3.418H43.295c-1.873,0-3.417-1.548-3.417-3.418v-0.472c0-0.067,0.042-0.131,0.051-0.202
			c0.11-2.655,1.146-5.038,2.808-6.885c1.257-1.396,2.862-2.47,4.678-3.076v-22.197h-5.942c-4.019,0-7.309-3.297-7.309-7.303
			l0.015-8.907c-0.096-0.465-0.145-0.95-0.145-1.449c0-0.509,0.05-1,0.15-1.479v-0.054L22.94,93.305
			c-0.799-0.664-1.242-1.656-1.233-2.689c0.017-1.034,0.507-2.008,1.32-2.639l9.032-7.021c0.622-0.486,1.357-0.708,2.09-0.708
			c0.023,0,0.047,0,0.07,0l0.064-41.517c-0.206-3.793-2.088-5.714-5.688-5.714H13.43c-2.358,0-4.274-0.563-5.738-1.685
			c-1.457-1.125-2.267-3.085-2.436-5.898c-0.17-2.804-0.258-5.732-0.258-8.763c0-3.036,0.088-5.65,0.258-7.84
			c0.169-2.186,1.061-3.875,2.691-5.054c1.626-1.182,3.398-1.772,5.309-1.772H198.19 M105.228,93.895l3.728-3.117l-3.742-2.915
			L105.228,93.895 M34.198,93.802l0.009-5.859l-3.636,2.829L34.198,93.802 M198.19,1.006H13.256c-2.121,0-4.105,0.661-5.897,1.963
			C5.495,4.318,4.451,6.264,4.259,8.755c-0.173,2.23-0.261,4.895-0.261,7.917c0,3.011,0.087,5.98,0.26,8.823
			c0.186,3.097,1.136,5.327,2.823,6.629c1.641,1.257,3.776,1.893,6.349,1.893h15.166c3.056,0,4.503,1.462,4.688,4.741l-0.063,40.584
			c-0.647,0.136-1.25,0.415-1.777,0.826l-9.03,7.021c-1.063,0.824-1.685,2.068-1.707,3.412c-0.011,1.358,0.569,2.622,1.594,3.474
			l10.808,9.04c-0.05,0.371-0.076,0.748-0.076,1.128c0,0.527,0.049,1.048,0.145,1.547l-0.015,8.808c0,4.58,3.728,8.305,8.309,8.305
			h4.942v20.501c-1.677,0.678-3.194,1.741-4.421,3.104c-1.86,2.066-2.917,4.619-3.059,7.39c-0.027,0.09-0.057,0.215-0.057,0.366
			v0.472c0,2.437,1.981,4.418,4.417,4.418h15.089c2.436,0,4.417-1.981,4.417-4.418v-0.454c0.003-0.149-0.022-0.271-0.043-0.35
			c-0.139-2.773-1.198-5.341-3.064-7.422c-1.246-1.37-2.769-2.433-4.441-3.108v-20.498h30.351l5.055,20.868
			c-1.366,0.672-2.609,1.606-3.631,2.733c-1.865,2.072-2.922,4.636-3.062,7.424c-0.022,0.081-0.047,0.196-0.047,0.335v0.472
			c0,2.437,1.983,4.418,4.421,4.418h22.379c2.44,0,4.425-1.981,4.425-4.418v-0.472c-0.002-0.156-0.031-0.277-0.056-0.36
			c-0.129-2.754-1.186-5.309-3.059-7.395c-2.066-2.277-9.952-3.391-12.509-3.696l-4.826-19.909h3.276c4.577,0,8.3-3.725,8.3-8.303
			l-0.017-8.39c0.161-0.655,0.243-1.316,0.243-1.967c0-0.374-0.025-0.748-0.075-1.118l10.81-9.038
			c1.026-0.865,1.602-2.129,1.584-3.472c-0.022-1.33-0.661-2.606-1.708-3.416l-9.142-7.125c-0.524-0.409-1.125-0.687-1.771-0.823
			l-0.09-40.842c0-3.387,1.46-4.899,4.735-4.899h87.185c5.685,0,8.885-2.942,9.255-8.509c0.115-2.86,0.173-5.71,0.173-8.496
			c-0.013-2.943-0.102-5.547-0.265-7.746c-0.197-2.502-1.248-4.425-3.123-5.72c-1.773-1.219-3.729-1.901-5.813-2.03
			C198.231,1.007,198.21,1.006,198.19,1.006L198.19,1.006z M106.223,91.76l-0.004-1.846l1.145,0.892L106.223,91.76L106.223,91.76z
			 M32.164,90.799l1.04-0.809l-0.002,1.676L32.164,90.799L32.164,90.799z"/>
	</g>
	<g>
		<path fill="#000001" d="M218.819,3.256c1.722,0,2.993,0.218,3.789,0.664c0.802,0.442,1.193,1.131,1.193,2.066
			c0,2.094-1.481,3.146-4.438,3.146c-0.221-0.003-0.517-0.015-0.882-0.046v3.353h-1.939V3.323
			C217.835,3.281,218.591,3.256,218.819,3.256 M219.256,7.693c0.888,0,1.535-0.123,1.945-0.374c0.405-0.242,0.62-0.646,0.62-1.2
			c0-0.949-0.92-1.417-2.743-1.417c-0.031,0-0.063-0.001-0.093-0.001c-0.178,0-0.343,0.009-0.503,0.026v2.92
			C218.819,7.675,219.068,7.693,219.256,7.693 M218.819,2.256c-0.215,0-0.889,0.021-2.028,0.058l-0.28,0.009
			c-0.539,0.018-0.968,0.46-0.968,1v9.116c0,0.552,0.447,1,1,1h1.939c0.553,0,1-0.448,1-1v-2.308
			c4.626-0.047,5.319-2.611,5.319-4.145c0-1.308-0.592-2.325-1.711-2.942C222.146,2.515,220.747,2.256,218.819,2.256L218.819,2.256z
			 M219.482,6.69V5.712c0.885,0.044,1.339,0.227,1.339,0.408c0,0.262-0.08,0.31-0.133,0.341
			C220.578,6.528,220.265,6.667,219.482,6.69L219.482,6.69z"/>
	</g>
	<g>
		<path fill="#000001" d="M228.456,5.65c1.219,0,2.164,0.302,2.833,0.918c0.674,0.619,1.009,1.454,1.009,2.527
			c0,1.062-0.344,1.905-1.032,2.533c-0.684,0.628-1.622,0.944-2.817,0.944c-1.216,0-2.157-0.317-2.83-0.949
			c-0.677-0.639-1.013-1.48-1.013-2.526c0-1.022,0.35-1.848,1.063-2.493C226.372,5.968,227.305,5.65,228.456,5.65 M228.456,11.298
			c0.588,0,1.052-0.192,1.391-0.573c0.344-0.385,0.505-0.922,0.505-1.628c0-1.449-0.629-2.176-1.896-2.176
			c-0.583,0-1.044,0.19-1.396,0.57c-0.338,0.384-0.511,0.919-0.511,1.605C226.55,10.564,227.187,11.298,228.456,11.298
			 M228.456,4.65c-1.405,0-2.569,0.408-3.458,1.212c-0.924,0.834-1.393,1.923-1.393,3.234c0,1.328,0.446,2.422,1.326,3.253
			c0.863,0.812,2.046,1.222,3.517,1.222c1.446,0,2.622-0.406,3.494-1.208c0.898-0.819,1.355-1.919,1.355-3.269
			c0-1.354-0.448-2.452-1.332-3.264C231.114,5.048,229.933,4.65,228.456,4.65L228.456,4.65z M228.456,10.298
			c-0.445,0-0.906,0-0.906-1.201c0-0.43,0.088-0.748,0.262-0.945c0.097-0.105,0.265-0.231,0.645-0.231c0.44,0,0.896,0,0.896,1.176
			c0,0.452-0.084,0.775-0.251,0.962C229.001,10.171,228.839,10.298,228.456,10.298L228.456,10.298z"/>
	</g>
	<g>
		<path fill="#000001" d="M244.59,5.773l-3.027,6.796h-0.677l-2.206-4.098l-2.187,4.098h-0.69l-3.016-6.796h1.966l1.606,3.979
			l1.953-3.979h0.677l2.024,4.001l1.731-4.001H244.59 M244.59,4.773h-1.845c-0.398,0-0.76,0.237-0.918,0.603l-0.884,2.043
			l-1.062-2.098c-0.171-0.336-0.516-0.548-0.893-0.548h-0.677c-0.382,0-0.729,0.217-0.897,0.56l-0.967,1.968l-0.768-1.902
			c-0.153-0.378-0.521-0.625-0.928-0.625h-1.966c-0.339,0-0.654,0.171-0.838,0.455c-0.185,0.283-0.214,0.641-0.076,0.951
			l3.016,6.796c0.16,0.361,0.519,0.594,0.914,0.594h0.69c0.369,0,0.708-0.204,0.882-0.529l1.309-2.452l1.321,2.455
			c0.175,0.324,0.513,0.526,0.881,0.526h0.677c0.395,0,0.753-0.232,0.913-0.593l3.027-6.796c0.138-0.309,0.11-0.667-0.074-0.951
			C245.244,4.945,244.929,4.773,244.59,4.773L244.59,4.773z"/>
	</g>
	<g>
		<path fill="#000001" d="M249.082,5.648c1.159,0,2.095,0.289,2.796,0.864c0.704,0.574,1.053,1.313,1.053,2.206
			c0.008,0.196-0.047,0.478-0.151,0.863h-5.719c0.035,0.532,0.258,0.944,0.659,1.238c0.406,0.301,0.948,0.446,1.634,0.446
			c0.847,0,1.494-0.183,1.938-0.557l0.723,1.195c-0.661,0.442-1.64,0.667-2.943,0.667c-1.222,0-2.183-0.296-2.895-0.896
			c-0.711-0.593-1.062-1.426-1.062-2.493c0-1.051,0.386-1.905,1.157-2.555C247.057,5.971,247.994,5.648,249.082,5.648
			 M247.129,8.417h3.932c-0.126-0.974-0.774-1.468-1.94-1.468C248.054,6.949,247.39,7.44,247.129,8.417 M249.082,4.648
			c-1.326,0-2.487,0.407-3.451,1.21c-0.993,0.837-1.517,1.985-1.517,3.323c0,1.377,0.478,2.474,1.421,3.261
			c0.888,0.748,2.078,1.128,3.535,1.128c1.514,0,2.658-0.273,3.499-0.835c0.444-0.297,0.577-0.892,0.3-1.349l-0.486-0.804h0.396
			c0.451,0,0.847-0.303,0.965-0.739c0.144-0.529,0.197-0.867,0.186-1.164c0.001-1.153-0.49-2.184-1.42-2.941
			C251.629,5.014,250.476,4.648,249.082,4.648L249.082,4.648z"/>
	</g>
	<g>
		<path fill="#000001" d="M258.384,5.653c0.636,0,1.125,0.08,1.464,0.24l-0.786,1.334c-0.335-0.184-0.702-0.276-1.101-0.276
			c-0.434,0-0.816,0.165-1.154,0.494s-0.511,0.728-0.511,1.203v3.793h-1.869V5.774h1.869v0.61
			C256.82,5.893,257.518,5.653,258.384,5.653 M258.384,4.653c-0.577,0-1.104,0.088-1.575,0.263c-0.149-0.09-0.325-0.142-0.513-0.142
			h-1.869c-0.553,0-1,0.448-1,1v6.666c0,0.552,0.447,1,1,1h1.869c0.553,0,1-0.448,1-1V8.647c0-0.201,0.061-0.342,0.209-0.487
			c0.189-0.185,0.337-0.21,0.456-0.21c0.229,0,0.432,0.05,0.62,0.153c0.152,0.083,0.317,0.123,0.479,0.123
			c0.343,0,0.677-0.177,0.862-0.492l0.786-1.334c0.143-0.242,0.177-0.533,0.095-0.802c-0.083-0.269-0.274-0.49-0.528-0.61
			C259.797,4.762,259.178,4.653,258.384,4.653L258.384,4.653z"/>
	</g>
	<g>
		<path fill="#000001" d="M264.37,5.648c1.155,0,2.088,0.289,2.786,0.864c0.705,0.574,1.054,1.313,1.054,2.206
			c-0.002,0.196-0.053,0.478-0.161,0.863h-5.713c0.035,0.532,0.265,0.944,0.663,1.238c0.402,0.301,0.943,0.446,1.63,0.446
			c0.854,0,1.501-0.183,1.938-0.557l0.723,1.195c-0.657,0.442-1.636,0.667-2.943,0.667c-1.217,0-2.183-0.296-2.89-0.896
			c-0.713-0.595-1.069-1.426-1.069-2.493c0-1.051,0.386-1.905,1.172-2.555C262.336,5.971,263.273,5.648,264.37,5.648 M262.398,8.417
			h3.937c-0.131-0.974-0.778-1.468-1.94-1.468C263.328,6.949,262.662,7.44,262.398,8.417 M264.37,4.648
			c-1.337,0-2.499,0.408-3.455,1.213c-1.012,0.836-1.528,1.955-1.528,3.32c0,1.373,0.48,2.469,1.429,3.261
			c0.881,0.747,2.07,1.128,3.53,1.128c1.519,0,2.663-0.274,3.501-0.837c0.443-0.298,0.574-0.891,0.298-1.348l-0.486-0.804h0.391
			c0.448,0,0.842-0.298,0.963-0.729c0.132-0.471,0.195-0.828,0.198-1.124c0-1.203-0.492-2.233-1.422-2.991
			C266.912,5.015,265.761,4.648,264.37,4.648L264.37,4.648z"/>
	</g>
	<g>
		<path fill="#000001" d="M276.722,2.918v9.526h-1.871v-0.005v-0.402c-0.149,0.145-0.408,0.266-0.781,0.371
			c-0.377,0.104-0.752,0.161-1.145,0.161c-1.123,0-1.997-0.297-2.641-0.887c-0.633-0.589-0.953-1.405-0.953-2.461
			c0-1.054,0.363-1.916,1.1-2.579c0.73-0.663,1.657-0.991,2.761-0.991c0.605,0,1.158,0.101,1.655,0.311V3.29L276.722,2.918
			 M273.685,11.256c0.176,0,0.397-0.048,0.661-0.141c0.263-0.09,0.435-0.183,0.509-0.267V7.366h-0.004
			c-0.398-0.265-0.811-0.399-1.24-0.399c-0.746,0-1.327,0.188-1.729,0.568c-0.406,0.386-0.602,0.927-0.602,1.64
			C271.279,10.559,272.074,11.256,273.685,11.256 M276.722,1.918c-0.064,0-0.13,0.006-0.194,0.019l-1.875,0.372
			c-0.469,0.093-0.806,0.504-0.806,0.981v1.397c-0.213-0.023-0.432-0.035-0.655-0.035c-1.364,0-2.519,0.421-3.433,1.25
			c-0.946,0.852-1.428,1.97-1.428,3.319c0,1.333,0.428,2.408,1.271,3.193c0.839,0.769,1.954,1.155,3.322,1.155
			c0.471,0,0.933-0.064,1.412-0.197c0.028-0.008,0.058-0.017,0.085-0.025c0.13,0.063,0.275,0.097,0.429,0.097h1.871
			c0.553,0,1-0.448,1-1V2.918c0-0.299-0.134-0.583-0.365-0.773C277.176,1.997,276.951,1.918,276.722,1.918L276.722,1.918z
			 M273.685,10.256c-1.302,0-1.405-0.469-1.405-1.081c0-0.573,0.166-0.796,0.29-0.915c0.206-0.194,0.557-0.293,1.041-0.293
			c0.081,0,0.163,0.01,0.244,0.029v2.226C273.736,10.255,273.688,10.256,273.685,10.256L273.685,10.256z"/>
	</g>
	<g>
		<path fill="#000001" d="M283.928,6.378v1.983c0.318-0.167,0.661-0.245,1.036-0.245c0.75,0,1.347,0.19,1.8,0.587
			c0.46,0.396,0.684,0.894,0.684,1.508c0,0.71-0.228,1.28-0.689,1.686c-0.457,0.416-1.078,0.619-1.864,0.619
			c-0.011,0-0.021,0-0.031,0c-0.46,0-0.856-0.105-1.188-0.307l-0.265,0.311h-0.669V6.615L283.928,6.378 M284.635,11.679
			c0.572,0,0.979-0.104,1.222-0.338c0.238-0.228,0.354-0.588,0.354-1.087c0-0.866-0.493-1.292-1.48-1.292c-0.004,0-0.008,0-0.012,0
			c-0.346,0-0.609,0.083-0.791,0.247v2.215C284.098,11.596,284.341,11.679,284.635,11.679 M283.928,5.378
			c-0.065,0-0.131,0.006-0.195,0.02l-1.188,0.237c-0.468,0.093-0.805,0.503-0.805,0.98v5.905c0,0.552,0.447,1,1,1h0.669
			c0.176,0,0.346-0.046,0.495-0.131c0.3,0.085,0.62,0.127,0.958,0.127c1.074,0,1.928-0.296,2.568-0.879
			c0.66-0.58,1.017-1.423,1.017-2.425c0-0.902-0.356-1.686-1.031-2.267c-0.626-0.548-1.453-0.829-2.452-0.829
			c-0.012,0-0.024,0-0.036,0V6.378c0-0.299-0.134-0.583-0.366-0.773C284.382,5.457,284.157,5.378,283.928,5.378L283.928,5.378z
			 M284.927,10.666V9.971c0.186,0.02,0.249,0.061,0.256,0.065c-0.001,0.001,0.027,0.061,0.027,0.217
			c0,0.253-0.042,0.352-0.053,0.372c0,0,0,0-0.001,0C285.146,10.626,285.078,10.65,284.927,10.666L284.927,10.666z"/>
	</g>
	<g>
		<path fill="#000001" d="M292.902,8.198l-2.233,4.925c-0.13,0.278-0.401,0.516-0.816,0.702c-0.413,0.187-0.904,0.281-1.454,0.281
			v-0.877c0.915,0,1.375-0.189,1.375-0.574c0-0.252-0.126-0.633-0.385-1.161l-1.598-3.295h1.238l1.394,2.932l1.245-2.932H292.902
			 M292.902,7.198h-1.234c-0.401,0-0.764,0.24-0.921,0.609l-0.376,0.886l-0.438-0.924c-0.166-0.349-0.518-0.571-0.903-0.571h-1.238
			c-0.345,0-0.665,0.177-0.848,0.469c-0.183,0.292-0.202,0.657-0.052,0.967l1.598,3.295c0.055,0.113,0.1,0.21,0.136,0.294
			c-0.066,0.003-0.142,0.005-0.227,0.005c-0.553,0-1,0.448-1,1v0.877c0,0.552,0.447,1,1,1c0.694,0,1.322-0.125,1.865-0.37
			c0.633-0.283,1.075-0.684,1.312-1.19l2.238-4.935c0.14-0.31,0.113-0.669-0.07-0.955C293.559,7.371,293.242,7.198,292.902,7.198
			L292.902,7.198z"/>
	</g>
	<g>
		<path fill="#000001" d="M299.229,28.255c0.79,0,1.465,0.637,1.465,1.496c0,0.872-0.674,1.502-1.465,1.502
			c-0.789,0-1.464-0.638-1.464-1.502C297.766,28.891,298.44,28.255,299.229,28.255 M299.229,31.002c0.657,0,1.168-0.534,1.168-1.255
			c0-0.704-0.511-1.238-1.168-1.238c-0.655,0-1.174,0.531-1.174,1.238C298.056,30.469,298.57,31.002,299.229,31.002 M299.229,27.255
			c-1.358,0-2.464,1.12-2.464,2.496c0,1.379,1.105,2.502,2.464,2.502c1.382,0,2.465-1.099,2.465-2.502
			C301.694,28.374,300.589,27.255,299.229,27.255L299.229,27.255z M299.229,30.002c-0.165,0-0.174-0.213-0.174-0.255
			c0-0.11,0.046-0.238,0.174-0.238c0.124,0,0.168,0.128,0.168,0.238C299.397,29.773,299.393,30.002,299.229,30.002L299.229,30.002z"
			/>
	</g>
	<g>
		<path fill="#000001" d="M299.305,28.895c0.395,0,0.592,0.149,0.592,0.489c0,0.312-0.189,0.447-0.432,0.478l0.473,0.761h-0.281
			l-0.439-0.752h-0.297v0.752h-0.245v-1.728H299.305 M298.92,29.644h0.302c0.224,0,0.406-0.015,0.406-0.278
			c0-0.218-0.179-0.259-0.364-0.259h-0.344V29.644 M299.305,27.895h-0.63c-0.553,0-1,0.448-1,1v1.728c0,0.552,0.447,1,1,1h0.245
			c0.13,0,0.255-0.025,0.368-0.07c0.115,0.046,0.24,0.07,0.368,0.07h0.281c0.363,0,0.697-0.197,0.874-0.514s0.167-0.705-0.024-1.014
			l-0.032-0.052c0.092-0.195,0.142-0.418,0.142-0.659C300.896,28.643,300.404,27.895,299.305,27.895L299.305,27.895z"/>
	</g>
	<g>
		<path fill="#000001" d="M268.108,14.738c3.54,0,6.17,0.106,7.989,2.771c1.166,1.681,1.358,3.856,1.367,5.049
			c0,4.039-1.919,6.838-4.584,7.999c-1.222,0.538-2.821,0.677-4.663,0.697v-2.253c2.68-0.026,5.09-0.431,5.09-6.262
			c0-5.798-2.991-5.798-4.706-5.798c-0.531,0-1.261,0.022-1.889,0.022l-0.005,14.29h-3.881V14.841
			C263.27,14.841,267.641,14.738,268.108,14.738 M268.108,13.738c-0.239,0-1.489,0.026-2.722,0.053
			c-1.18,0.025-2.343,0.05-2.56,0.05c-0.553,0-1,0.448-1,1v16.413c0,0.552,0.447,1,1,1h3.881c0.301,0,0.571-0.133,0.755-0.344
			c0.017,0.019,0.033,0.038,0.052,0.056c0.188,0.185,0.44,0.289,0.703,0.289c0.004,0,0.007,0,0.011,0
			c1.663-0.018,3.563-0.125,5.055-0.781c3.243-1.413,5.182-4.746,5.182-8.915c-0.01-1.285-0.223-3.712-1.546-5.619
			C274.733,13.738,271.365,13.738,268.108,13.738L268.108,13.738z M267.713,17.952c0.013,0,0.025,0,0.038,0
			c0.307-0.005,0.601-0.01,0.851-0.01c1.651,0,3.706,0,3.706,4.798c0,5.222-1.899,5.241-4.1,5.262
			c-0.183,0.002-0.353,0.052-0.499,0.139L267.713,17.952L267.713,17.952z"/>
	</g>
	<g>
		<path fill="#000001" d="M249.324,16.023v2.283h-5.641v3.839h5.03v2.24h-5.03v4.437h5.885v2.431h-7.273
			c-1.046-0.018-1.9-0.866-1.904-1.919V16.023H249.324 M249.324,15.023h-8.934c-0.553,0-1,0.448-1,1v13.311
			c0.006,1.584,1.301,2.892,2.887,2.919h7.291c0.553,0,1-0.448,1-1v-2.431c0-0.552-0.447-1-1-1h-4.885v-2.437h4.03
			c0.553,0,1-0.448,1-1v-2.24c0-0.552-0.447-1-1-1h-4.03v-1.839h4.641c0.553,0,1-0.448,1-1v-2.283
			C250.324,15.47,249.877,15.023,249.324,15.023L249.324,15.023z"/>
	</g>
	<g>
		<path fill="#000001" d="M236.408,14.841l3.075,0.003l-5.826,16.413h-2.717l-2.667-9.581l-3.098,9.581h-2.74
			c0,0-3.636-12.252-4.075-13.59c-0.756-2.349-1.698-2.821-1.698-2.821h3.476c1.303,0.046,1.65,0.646,1.917,1.529l2.587,9.441
			l3.228-10.974h2.376l2.923,10.974L236.408,14.841 M236.408,13.841c-0.443,0-0.834,0.292-0.959,0.717l-2.231,7.558l-2.007-7.532
			c-0.116-0.438-0.513-0.743-0.966-0.743h-2.376c-0.443,0-0.834,0.292-0.959,0.718l-2.234,7.597l-1.656-6.045
			c-0.33-1.094-0.919-2.196-2.847-2.265l-3.511,0c-0.485,0-0.953,0.326-1.038,0.803c-0.082,0.468,0.125,0.906,0.563,1.08
			c0.121,0.098,0.702,0.629,1.222,2.244c0.432,1.315,4.032,13.446,4.068,13.569c0.126,0.424,0.517,0.715,0.959,0.715h2.74
			c0.434,0,0.818-0.28,0.951-0.692l2.075-6.417l1.775,6.377c0.12,0.433,0.514,0.732,0.963,0.732h2.717
			c0.423,0,0.801-0.267,0.942-0.666l5.826-16.413c0.108-0.306,0.062-0.646-0.125-0.911c-0.188-0.265-0.492-0.423-0.816-0.423
			L236.408,13.841L236.408,13.841L236.408,13.841z"/>
	</g>
	<g>
		<path fill="#000001" d="M292.003,16.022v0.005l3.711,13.91l-0.486,1.315h-2.376l-4.6-15.23H292.003 M292.003,15.022h-3.751
			c-0.316,0-0.614,0.15-0.803,0.404s-0.246,0.583-0.154,0.885l4.6,15.23c0.127,0.422,0.516,0.711,0.957,0.711h2.376
			c0.419,0,0.793-0.261,0.938-0.653l0.486-1.315c0.072-0.194,0.082-0.405,0.028-0.604l-3.704-13.887
			C292.87,15.352,292.475,15.022,292.003,15.022L292.003,15.022z"/>
	</g>
	<g>
		<path fill="#000001" d="M300.814,16.022h0.005 M300.814,16.022l-4.199,11.439l-0.926-3.496l2.457-7.943H300.814 M300.819,15.022
			h-0.005h-2.668c-0.438,0-0.826,0.286-0.955,0.705l-2.457,7.943c-0.056,0.179-0.06,0.37-0.012,0.551l0.926,3.496
			c0.112,0.422,0.484,0.723,0.92,0.743c0.016,0,0.031,0.001,0.047,0.001c0.418,0,0.794-0.26,0.938-0.655l4.177-11.377
			c0.056-0.124,0.087-0.262,0.087-0.406C301.817,15.469,301.372,15.022,300.819,15.022L300.819,15.022z"/>
	</g>
	<g>
		<path fill="#000001" d="M287.316,22.144v2.24h-3.515v-2.24H287.316 M287.316,21.144h-3.515c-0.553,0-1,0.448-1,1v2.24
			c0,0.552,0.447,1,1,1h3.515c0.553,0,1-0.448,1-1v-2.24C288.316,21.592,287.869,21.144,287.316,21.144L287.316,21.144z"/>
	</g>
	<g>
		<path fill="#000001" d="M287.922,16.022v2.283h-5.638v10.517h5.872v2.43h-9.173v-15.23H287.922 M287.922,15.022h-8.938
			c-0.553,0-1,0.448-1,1v15.23c0,0.552,0.447,1,1,1h9.173c0.553,0,1-0.448,1-1v-2.43c0-0.552-0.447-1-1-1h-4.872v-8.517h4.638
			c0.553,0,1-0.448,1-1v-2.283C288.922,15.469,288.475,15.022,287.922,15.022L287.922,15.022z"/>
	</g>
	<g>
		<path fill="#000001" d="M257.106,16.017c1.114,0,2.01,0.311,2.68,0.915c0.71,0.652,1.065,1.618,1.065,2.903
			c0,1.343-0.432,2.303-1.274,2.867c-0.273,0.19-0.696,0.38-1.243,0.569c0.647,0.153,1.168,0.4,1.564,0.743
			c0.786,0.68,1.175,1.663,1.185,2.932c0,1.573-0.501,2.739-1.486,3.49c-0.659,0.496-1.434,0.751-2.318,0.751h-3.909
			c-1.017-0.038-1.833-0.872-1.848-1.898V16.017H257.106 M254.861,22.7h0.676c0.64,0,1.117-0.143,1.405-0.421
			c0.194-0.19,0.352-0.498,0.468-0.908c0.123-0.413,0.186-0.863,0.186-1.342c0-1.576-0.617-2.364-1.841-2.364h-0.894V22.7
			 M254.857,29.553h1.06c1.184,0,1.777-0.818,1.777-2.464c0-1.859-0.698-2.79-2.083-2.79h-0.754V29.553 M257.106,15.017h-5.585
			c-0.553,0-1,0.448-1,1v13.271c0.022,1.574,1.257,2.84,2.811,2.898l3.946,0c1.098,0,2.08-0.32,2.92-0.953
			c1.252-0.954,1.885-2.396,1.885-4.289c-0.012-1.583-0.527-2.821-1.53-3.688c-0.01-0.008-0.02-0.017-0.028-0.024
			c0.667-0.592,1.327-1.628,1.327-3.398c0-1.568-0.467-2.792-1.389-3.639C259.594,15.411,258.467,15.017,257.106,15.017
			L257.106,15.017z M255.861,21.681v-3.014c0.338,0.011,0.734,0.131,0.734,1.362c0,0.38-0.049,0.736-0.144,1.056
			c-0.106,0.375-0.209,0.478-0.21,0.479C256.21,21.596,256.091,21.652,255.861,21.681L255.861,21.681z M255.857,28.553V25.31
			c0.386,0.05,0.837,0.319,0.837,1.779c0,1.464-0.468,1.464-0.777,1.464H255.857L255.857,28.553z"/>
	</g>
</g>
<g>
	<path fill="#2D2D2D" d="M50.832,149.948c-1.886,0-3.417-1.53-3.417-3.421v-30.149c0-1.89,1.531-3.421,3.417-3.421
		c1.891,0,3.421,1.531,3.421,3.421v30.149C54.25,148.409,52.723,149.948,50.832,149.948z"/>
</g>
<g>
	<path fill="#2D2D2D" d="M95.878,149.948c-1.544,0-2.947-1.041-3.328-2.618l-7.304-30.152c-0.444-1.836,0.685-3.674,2.517-4.12
		c1.826-0.469,3.679,0.669,4.126,2.514l7.303,30.145c0.448,1.835-0.681,3.68-2.513,4.122
		C96.411,149.911,96.141,149.948,95.878,149.948z"/>
</g>
<path fill="#FFFBFC" d="M206.19,8.832c-0.173-2.189-1.071-3.85-2.694-4.971c-1.632-1.121-3.399-1.737-5.306-1.855H13.256
	c-1.911,0-3.683,0.59-5.309,1.772c-1.63,1.179-2.522,2.868-2.691,5.054c-0.17,2.19-0.258,4.804-0.258,7.84
	c0,3.031,0.088,5.958,0.258,8.763c0.169,2.813,0.979,4.773,2.436,5.898c1.464,1.121,3.38,1.685,5.738,1.685h15.166
	c3.6,0,5.483,1.921,5.688,5.714l-0.12,75.867c0,4.006,3.291,7.303,7.309,7.303h56.498c4.018,0,7.3-3.297,7.3-7.303l0,0
	l-0.166-76.188c0-3.935,1.907-5.901,5.735-5.901h87.185c5.166,0,7.921-2.526,8.257-7.576c0.108-2.697,0.171-5.505,0.171-8.429
	C206.439,13.579,206.353,11.022,206.19,8.832z"/>
<g>
	<path fill="#FFFBFC" d="M152.886,115.519V52.652h-21.574v-9.488h72.376v9.488h-39.99v62.867H152.886z"/>
	<rect x="192.984" y="59.645" fill="#FFFBFC" width="10.704" height="55.873"/>
	<path fill="#FFFBFC" d="M213.195,84.721c0-15.211,8.855-26.023,23.744-26.023c13.359,0,21.42,8.694,21.894,17.97h-10.281
		c-1.063-4.717-5.255-8.904-10.977-8.904c-8.587,0-13.623,6.52-13.623,17.226v4.981c0,10.598,5.301,17.381,13.669,17.381
		c6.687,0,10.396-3.709,11.299-8.109h10.23c-1.59,10.55-9.274,17.225-22.211,17.225c-15.049,0-23.746-11.189-23.746-26.555
		L213.195,84.721L213.195,84.721z"/>
	<path fill="#FFFBFC" d="M277.847,115.519h-10.706V43.311h10.706v40.454h0.471l20.934-24.119h12.887l-21.523,24.228l22.9,31.646
		h-12.933l-17.974-25.125l-4.768,5.3v19.825H277.847z"/>
	<path fill="#FFFBFC" d="M313.333,90.126V84.25c0-15.325,8.905-25.551,23.645-25.551c14.796,0,23.54,10.498,23.54,26.078v5.299
		h-36.526v1.163c0,9.917,5.198,16.594,13.632,16.594c6.145,0,10.281-3.075,11.872-8.056h10.332
		c-1.849,9.113-9.168,16.692-22.415,16.692C322.614,116.472,313.333,106.399,313.333,90.126z M349.965,82.234v-0.168
		c0-8.317-5.136-14.835-12.938-14.835c-7.949,0-13.04,6.566-13.04,14.835v0.168H349.965z"/>
	<path fill="#FFFBFC" d="M373.106,43.164h10.549v16.482h10.976v8.696h-10.976v30.952c0,6.361,2.279,8.06,8.801,8.06
		c0.951,0,1.802-0.058,2.542-0.104v8.323c-0.906,0.159-3.023,0.373-5.198,0.373c-13.468,0-16.803-4.979-16.803-16.114v-31.49h-7.633
		v-8.696h7.739V43.163L373.106,43.164L373.106,43.164z"/>
	<path fill="#FFFBFC" d="M153.156,158.155v-31.9h-21.844v-1.857h96.658v1.857h-72.805v31.9H153.156L153.156,158.155z"/>
	<path fill="#FFFBFC" d="M168.075,132.461h1.984v4.773h0.101c0.77-2.541,2.656-5.166,7.198-5.166c0.969,0,1.564,0.121,1.883,0.176
		v1.912c-0.271-0.055-1.188-0.206-2.135-0.206c-4.687,0-7.049,3.652-7.049,9.186v15.023h-1.984v-25.698H168.075L168.075,132.461z"/>
	<path fill="#FFFBFC" d="M191.035,158.601c-4.99,0-8.386-2.927-8.386-7.646c0-4.272,2.951-7.155,8.712-7.155h7.87v-3.642
		c0-4.33-2.71-6.309-6.826-6.309c-4.149,0-6.131,1.911-6.703,5.061h-1.937c0.447-4.019,3.227-6.876,8.762-6.876
		c5.209,0,8.715,2.736,8.715,7.741v18.378h-1.959v-4.151h-0.101C198.502,155.666,195.975,158.601,191.035,158.601z M199.227,149.539
		v-3.965h-7.824c-4.591,0-6.647,2.204-6.647,5.341c0,3.674,2.751,5.876,6.528,5.876
		C195.603,156.787,199.227,153.906,199.227,149.539z"/>
	<path fill="#FFFBFC" d="M208.285,143.335c0-7.202,4.169-11.296,10.104-11.296c6.108,0,9.307,4.119,9.529,7.797h-1.962
		c-0.503-3.003-3.026-5.961-7.494-5.961c-4.87,0-8.199,3.476-8.199,9.763v3.271c0,6.353,3.256,9.824,8.369,9.824
		c4.789,0,6.902-2.852,7.397-5.508h1.936c-0.47,3.526-3.15,7.371-9.503,7.371c-6.238,0-10.182-4.2-10.182-11.515L208.285,143.335
		L208.285,143.335z"/>
	<path fill="#FFFBFC" d="M237.108,158.155h-2.013v-33.767h2.013v20.754h0.098l13.479-12.689h2.682l-11.197,10.624l11.793,15.074
		h-2.562l-10.747-13.752l-3.546,3.295V158.155L237.108,158.155L237.108,158.155z"/>
	<path fill="#FFFBFC" d="M257.012,146.786v-2.729c0-7.776,3.924-12.018,9.976-12.018c6.058,0,10.005,4.216,10.005,12.091v1.364
		h-17.997v1.268c0,6.407,3.23,10.024,8.29,10.024c4.644,0,6.928-2.753,7.327-5.11h2.014c-0.423,3.148-3.35,6.925-9.386,6.925
		C260.884,158.601,257.012,154.253,257.012,146.786z M274.984,143.729v-0.096c0-6.106-3.179-9.784-7.997-9.784
		c-4.813,0-7.992,3.678-7.992,9.784v0.096H274.984z"/>
	<path fill="#FFFBFC" d="M284.266,132.461h1.991v4.773h0.093c0.773-2.541,2.659-5.166,7.2-5.166c0.968,0,1.565,0.121,1.891,0.176
		v1.912c-0.271-0.055-1.19-0.206-2.132-0.206c-4.695,0-7.046,3.652-7.046,9.186v15.023h-1.991v-25.698H284.266L284.266,132.461z"/>
</g>
<path fill="#FFFFFF" d="M61.764,154.059c-0.116-2.647-1.155-5.034-2.813-6.885c-2.016-2.22-4.884-3.633-8.11-3.633
	c-3.222,0-6.102,1.409-8.103,3.633c-1.663,1.847-2.698,4.229-2.808,6.885c-0.008,0.071-0.051,0.135-0.051,0.202v0.472
	c0,1.87,1.544,3.418,3.417,3.418h15.089c1.873,0,3.417-1.548,3.417-3.418v-0.472C61.806,154.194,61.768,154.135,61.764,154.059z"/>
<path fill="#FFFFFF" d="M114.094,154.059c-0.098-2.647-1.147-5.034-2.809-6.885c-2.012-2.22-12.188-3.633-15.411-3.633
	c-3.227,0-6.094,1.409-8.106,3.633c-1.663,1.847-2.694,4.229-2.808,6.885c-0.004,0.071-0.042,0.135-0.042,0.202v0.472
	c0,1.87,1.544,3.418,3.421,3.418h22.379c1.881,0,3.425-1.548,3.425-3.418v-0.472C114.143,154.194,114.102,154.135,114.094,154.059z"
	/>
<g>
	<path fill="#2D2D2D" d="M98.191,107.659c-0.972,0-1.95-0.424-2.633-1.226c-1.21-1.456-1.012-3.596,0.439-4.814l12.958-10.841
		l-5.799-4.518c-1.496-1.157-1.763-3.313-0.604-4.805c1.162-1.49,3.303-1.756,4.798-0.594l9.145,7.127
		c0.812,0.628,1.302,1.606,1.319,2.639c0.014,1.029-0.428,2.018-1.226,2.69l-16.201,13.546
		C99.74,107.395,98.969,107.659,98.191,107.659z"/>
</g>
<path fill="#2D2D2D" d="M98.188,96.93c4.035,0,7.309,3.272,7.309,7.312c0,4.036-3.273,7.307-7.309,7.307
	c-4.034,0-7.308-3.271-7.308-7.307C90.88,100.205,94.152,96.93,98.188,96.93z"/>
<path fill="#2D2D2D" d="M50.836,78.063c0,4.864,1.899,9.26,4.918,12.615c2.397-5.333,7.742-9.059,13.959-9.059
	c6.225,0,11.554,3.726,13.951,9.059c3.021-3.345,4.927-7.742,4.927-12.616L50.836,78.063L50.836,78.063z"/>
<path fill="#ED475E" d="M69.71,81.619c-6.226,0-11.562,3.727-13.959,9.063c3.455,3.819,8.394,6.253,13.959,6.253
	c3.539,0,6.77-1.066,9.573-2.768c1.612-0.98,3.121-2.105,4.377-3.494C81.264,85.345,75.931,81.619,69.71,81.619z"/>
<path fill="#2D2D2D" d="M41.338,96.93c4.04,0,7.312,3.272,7.312,7.312c0,4.036-3.272,7.307-7.312,7.307
	c-4.034,0-7.304-3.271-7.304-7.307C34.033,100.205,37.304,96.93,41.338,96.93z"/>
<g>
	<path fill="#2D2D2D" d="M41.338,107.659c-0.769,0-1.556-0.263-2.191-0.8L22.94,93.305c-0.799-0.664-1.242-1.656-1.233-2.689
		c0.017-1.034,0.507-2.008,1.32-2.639l9.032-7.021c1.484-1.162,3.628-0.897,4.795,0.597c1.155,1.488,0.894,3.634-0.596,4.793
		l-5.688,4.426l12.97,10.836c1.443,1.227,1.638,3.366,0.42,4.813C43.287,107.244,42.318,107.659,41.338,107.659z"/>
</g>
<circle fill="#2D2D2D" cx="55.098" cy="63.452" r="4.266"/>
<g>
	<path fill="#2D2D2D" d="M48.177,57.318c-0.149,0-0.305-0.021-0.461-0.064c-0.904-0.251-1.433-1.194-1.185-2.103
		c1.076-3.885,4.649-6.605,8.687-6.605c1.848,0,3.615,0.548,5.122,1.59c0.773,0.536,0.964,1.602,0.431,2.376
		c-0.538,0.78-1.604,0.973-2.377,0.438c-0.936-0.645-2.029-0.983-3.175-0.983c-2.503,0-4.724,1.686-5.396,4.101
		C49.618,56.816,48.929,57.318,48.177,57.318z"/>
</g>
<g>
	<path fill="#2D2D2D" d="M91.239,57.318c-0.745,0-1.43-0.502-1.645-1.25c-0.672-2.42-2.889-4.104-5.396-4.104
		c-1.151,0-2.242,0.338-3.171,0.983c-0.77,0.535-1.835,0.338-2.38-0.438c-0.537-0.773-0.339-1.835,0.439-2.376
		c1.494-1.041,3.269-1.59,5.114-1.59c4.038,0,7.608,2.709,8.688,6.601c0.257,0.915-0.272,1.855-1.186,2.106
		C91.546,57.302,91.397,57.318,91.239,57.318z"/>
</g>
<path fill="#2D2D2D" d="M84.321,59.182c2.36,0,4.272,1.912,4.272,4.27c0,2.358-1.912,4.271-4.272,4.271
	c-2.356,0-4.269-1.912-4.269-4.271C80.053,61.094,81.965,59.182,84.321,59.182z"/>
<g opacity="0.25">
	<path fill="#2D2D2D" d="M74.716,99.984c-0.322,0.435-0.684,0.687-1.031,1.025l-1.24,0.669c-0.846,0.377-1.751,0.468-2.648,0.614
		c-0.918-0.089-1.838-0.104-2.702-0.431c-0.436-0.195-0.857-0.38-1.265-0.585c-0.381-0.322-0.786-0.557-1.116-0.963l0.042-0.162
		c3.265,0.728,6.69,0.568,9.917-0.33L74.716,99.984z"/>
</g>
<g opacity="0.35">
	<g>
		<path fill="#FFFBFC" d="M218.482,9.086v3.353h-1.939V3.323c1.292-0.042,2.048-0.066,2.276-0.066c1.722,0,2.993,0.218,3.789,0.664
			c0.802,0.442,1.193,1.131,1.193,2.066c0,2.094-1.481,3.146-4.438,3.146C219.144,9.129,218.848,9.117,218.482,9.086z
			 M218.482,4.727v2.92c0.337,0.027,0.586,0.045,0.773,0.045c0.888,0,1.535-0.123,1.945-0.374c0.405-0.242,0.62-0.646,0.62-1.2
			c0-0.949-0.92-1.417-2.743-1.417C218.863,4.698,218.67,4.707,218.482,4.727z"/>
		<path fill="#FFFBFC" d="M224.605,9.096c0-1.022,0.35-1.848,1.063-2.493c0.703-0.636,1.636-0.954,2.787-0.954
			c1.219,0,2.164,0.302,2.833,0.918c0.674,0.619,1.009,1.454,1.009,2.527c0,1.062-0.344,1.905-1.032,2.533
			c-0.684,0.628-1.622,0.944-2.817,0.944c-1.216,0-2.157-0.317-2.83-0.949C224.941,10.984,224.605,10.142,224.605,9.096z
			 M226.55,9.096c0,1.467,0.637,2.201,1.906,2.201c0.588,0,1.052-0.192,1.391-0.573c0.344-0.385,0.505-0.922,0.505-1.628
			c0-1.449-0.629-2.176-1.896-2.176c-0.583,0-1.044,0.19-1.396,0.57C226.723,7.875,226.55,8.41,226.55,9.096z"/>
		<path fill="#FFFBFC" d="M241.563,12.57h-0.677l-2.206-4.098l-2.187,4.098h-0.69l-3.016-6.796h1.966l1.606,3.979l1.953-3.979h0.677
			l2.024,4.001l1.731-4.001h1.845L241.563,12.57z"/>
		<path fill="#FFFBFC" d="M252.779,9.581h-5.719c0.035,0.532,0.258,0.944,0.659,1.238c0.406,0.301,0.948,0.446,1.634,0.446
			c0.847,0,1.494-0.183,1.938-0.557l0.723,1.195c-0.661,0.442-1.64,0.667-2.943,0.667c-1.222,0-2.183-0.296-2.895-0.896
			c-0.711-0.593-1.062-1.426-1.062-2.493c0-1.051,0.386-1.905,1.157-2.555c0.785-0.654,1.723-0.978,2.811-0.978
			c1.159,0,2.095,0.289,2.796,0.864c0.704,0.574,1.053,1.313,1.053,2.206C252.938,8.914,252.884,9.195,252.779,9.581z
			 M247.129,8.417h3.932c-0.126-0.974-0.774-1.468-1.94-1.468C248.054,6.949,247.39,7.44,247.129,8.417z"/>
		<path fill="#FFFBFC" d="M259.062,7.227c-0.335-0.184-0.702-0.276-1.101-0.276c-0.434,0-0.816,0.165-1.154,0.494
			s-0.511,0.728-0.511,1.203v3.793h-1.869V5.774h1.869v0.61c0.524-0.491,1.222-0.731,2.088-0.731c0.636,0,1.125,0.08,1.464,0.24
			L259.062,7.227z"/>
		<path fill="#FFFBFC" d="M268.049,9.581h-5.713c0.035,0.532,0.265,0.944,0.663,1.238c0.402,0.301,0.943,0.446,1.63,0.446
			c0.854,0,1.501-0.183,1.938-0.557l0.723,1.195c-0.657,0.442-1.636,0.667-2.943,0.667c-1.217,0-2.183-0.296-2.89-0.896
			c-0.713-0.595-1.069-1.426-1.069-2.493c0-1.051,0.386-1.905,1.172-2.555c0.777-0.654,1.715-0.978,2.812-0.978
			c1.155,0,2.088,0.289,2.786,0.864c0.705,0.574,1.054,1.313,1.054,2.206C268.208,8.914,268.157,9.195,268.049,9.581z
			 M262.398,8.417h3.937c-0.131-0.974-0.778-1.468-1.94-1.468C263.328,6.949,262.662,7.44,262.398,8.417z"/>
		<path fill="#FFFBFC" d="M274.851,12.439v-0.402c-0.149,0.145-0.408,0.266-0.781,0.371c-0.377,0.104-0.752,0.161-1.145,0.161
			c-1.123,0-1.997-0.297-2.641-0.887c-0.633-0.589-0.953-1.405-0.953-2.461c0-1.054,0.363-1.916,1.1-2.579
			c0.73-0.663,1.657-0.991,2.761-0.991c0.605,0,1.158,0.101,1.655,0.311V3.29l1.875-0.372v9.526h-1.871V12.439L274.851,12.439z
			 M274.851,7.366c-0.398-0.265-0.811-0.399-1.24-0.399c-0.746,0-1.327,0.188-1.729,0.568c-0.406,0.386-0.602,0.927-0.602,1.64
			c0,1.384,0.795,2.081,2.405,2.081c0.176,0,0.397-0.048,0.661-0.141c0.263-0.09,0.435-0.183,0.509-0.267V7.366H274.851z"/>
		<path fill="#FFFBFC" d="M283.674,12.209l-0.265,0.311h-0.669V6.615l1.188-0.237v1.983c0.318-0.167,0.661-0.245,1.036-0.245
			c0.75,0,1.347,0.19,1.8,0.587c0.46,0.396,0.684,0.894,0.684,1.508c0,0.71-0.228,1.28-0.689,1.686
			c-0.457,0.416-1.078,0.619-1.864,0.619C284.42,12.521,284.014,12.416,283.674,12.209z M283.927,9.208v2.215
			c0.171,0.173,0.414,0.256,0.708,0.256c0.572,0,0.979-0.104,1.222-0.338c0.238-0.228,0.354-0.588,0.354-1.087
			c0-0.866-0.493-1.292-1.48-1.292C284.378,8.959,284.11,9.042,283.927,9.208z"/>
		<path fill="#FFFBFC" d="M290.669,13.124c-0.13,0.278-0.401,0.516-0.816,0.702c-0.413,0.187-0.904,0.281-1.454,0.281v-0.877
			c0.915,0,1.375-0.189,1.375-0.574c0-0.252-0.126-0.633-0.385-1.161l-1.598-3.295h1.238l1.394,2.932l1.245-2.932h1.234
			L290.669,13.124z"/>
	</g>
	<g>
		<g>
			<path fill="#FFFBFC" d="M298.056,29.747c0-0.707,0.519-1.238,1.174-1.238c0.657,0,1.168,0.534,1.168,1.238
				c0,0.722-0.511,1.255-1.168,1.255C298.57,31.002,298.056,30.469,298.056,29.747z M299.229,31.252c0.791,0,1.465-0.63,1.465-1.502
				c0-0.858-0.675-1.496-1.465-1.496c-0.789,0-1.464,0.636-1.464,1.496C297.766,30.615,298.44,31.252,299.229,31.252z M298.92,29.87
				h0.297l0.439,0.752h0.281l-0.473-0.761c0.242-0.03,0.432-0.166,0.432-0.478c0-0.34-0.197-0.489-0.592-0.489h-0.63v1.728h0.245
				V29.87L298.92,29.87z M298.92,29.644v-0.537h0.344c0.186,0,0.364,0.041,0.364,0.259c0,0.263-0.183,0.278-0.406,0.278H298.92z"/>
		</g>
		<g>
			<path fill="#FFFBFC" d="M276.098,17.51c-1.819-2.665-4.449-2.771-7.989-2.771c-0.468,0-4.839,0.103-5.281,0.103v16.413h3.881
				l0.005-14.29c0.628,0,1.357-0.022,1.889-0.022c1.715,0,4.706,0,4.706,5.798c0,5.831-2.41,6.236-5.09,6.262v2.253
				c1.842-0.02,3.441-0.159,4.663-0.697c2.665-1.161,4.584-3.96,4.584-7.999C277.456,21.366,277.264,19.19,276.098,17.51z"/>
		</g>
		<g>
			<path fill="#FFFBFC" d="M243.684,28.822v-4.437h5.03v-2.24h-5.03v-3.839h5.641v-2.283h-8.934v13.311
				c0.004,1.053,0.858,1.901,1.904,1.919h7.273v-2.431H243.684z"/>
		</g>
		<g>
			<path fill="#FFFBFC" d="M236.408,14.841l-3.24,10.974l-2.923-10.974h-2.376l-3.228,10.974l-2.587-9.441
				c-0.267-0.884-0.614-1.483-1.917-1.529h-3.476c0,0,0.942,0.473,1.698,2.821c0.439,1.338,4.075,13.59,4.075,13.59h2.74
				l3.098-9.581l2.667,9.581h2.717l5.826-16.413L236.408,14.841L236.408,14.841z"/>
		</g>
		<g>
			<g>
				<polygon fill="#FFFBFC" points="292.003,16.027 292.003,16.027 292.003,16.022 288.252,16.022 292.852,31.252 295.228,31.252 
					295.714,29.937 				"/>
			</g>
			<g>
				<polygon fill="#FFFBFC" points="296.615,27.461 300.814,16.022 298.146,16.022 295.689,23.965 				"/>
			</g>
		</g>
		<g>
			<g>
				<rect x="283.802" y="22.144" fill="#FFFBFC" width="3.515" height="2.24"/>
			</g>
			<g>
				<polygon fill="#FFFBFC" points="282.284,28.822 282.284,18.305 287.922,18.305 287.922,16.022 278.983,16.022 278.983,31.252 
					288.156,31.252 288.156,28.822 				"/>
			</g>
		</g>
		<g>
			<path fill="#FFFBFC" d="M259.898,24.013c-0.396-0.342-0.917-0.589-1.564-0.743c0.547-0.189,0.97-0.379,1.243-0.569
				c0.843-0.564,1.274-1.524,1.274-2.867c0-1.285-0.355-2.25-1.065-2.903c-0.67-0.604-1.565-0.915-2.68-0.915h-5.585v13.271
				c0.015,1.026,0.831,1.861,1.848,1.898h3.909c0.885,0,1.659-0.255,2.318-0.751c0.985-0.751,1.486-1.917,1.486-3.49
				C261.073,25.676,260.685,24.693,259.898,24.013z M254.857,17.666h0.897c1.224,0,1.841,0.788,1.841,2.364
				c0,0.479-0.063,0.929-0.186,1.342c-0.116,0.41-0.273,0.717-0.468,0.908c-0.288,0.278-0.766,0.421-1.405,0.421h-0.676v-5.035
				H254.857z M255.917,29.553h-1.06v-5.254h0.754c1.385,0,2.083,0.931,2.083,2.79C257.694,28.735,257.101,29.553,255.917,29.553z"/>
		</g>
	</g>
</g>
</svg>
