<?xml version="1.0" encoding="utf-8"?>
<!-- Generator: Adobe Illustrator 15.0.2, SVG Export Plug-In . SVG Version: 6.00 Build 0)  -->
<!DOCTYPE svg PUBLIC "-//W3C//DTD SVG 1.1//EN" "http://www.w3.org/Graphics/SVG/1.1/DTD/svg11.dtd">
<svg version="1.1" id="Calque_1" xmlns="http://www.w3.org/2000/svg" xmlns:xlink="http://www.w3.org/1999/xlink" x="0px" y="0px"
	 width="80px" height="28px" viewBox="0 0 80 28" enable-background="new 0 0 80 28" xml:space="preserve">
<g>
	<g>
		<path fill="#FFFBFC" d="M1.844,6.41v3.187H0V0.941c1.229-0.043,1.947-0.065,2.156-0.065c1.641,0,2.841,0.21,3.6,0.629
			c0.759,0.42,1.139,1.075,1.139,1.966c0,1.986-1.404,2.979-4.214,2.979C2.473,6.451,2.194,6.438,1.844,6.41z M1.844,2.272v2.772
			c0.313,0.028,0.559,0.042,0.737,0.042c0.843,0,1.457-0.117,1.845-0.352S5.008,4.118,5.008,3.59c0-0.898-0.868-1.348-2.604-1.348
			C2.21,2.242,2.023,2.252,1.844,2.272z"/>
		<path fill="#FFFBFC" d="M7.662,6.416c0-0.965,0.334-1.751,1.004-2.358c0.669-0.607,1.552-0.911,2.649-0.911
			c1.153,0,2.05,0.292,2.688,0.875c0.639,0.583,0.957,1.381,0.957,2.394c0,1.009-0.325,1.811-0.975,2.406
			c-0.651,0.595-1.541,0.893-2.671,0.893c-1.154,0-2.052-0.3-2.692-0.901C7.982,8.211,7.662,7.413,7.662,6.416z M9.506,6.416
			c0,1.396,0.604,2.093,1.81,2.093c0.553,0,0.991-0.181,1.315-0.544c0.324-0.362,0.486-0.879,0.486-1.549
			c0-1.375-0.602-2.063-1.802-2.063c-0.554,0-0.994,0.182-1.319,0.544C9.669,5.259,9.506,5.766,9.506,6.416z"/>
		<path fill="#FFFBFC" d="M23.755,9.714H23.11l-2.086-3.89l-2.078,3.89h-0.652l-2.866-6.45h1.865l1.525,3.778l1.858-3.778h0.639
			l1.923,3.801l1.646-3.801h1.745L23.755,9.714z"/>
		<path fill="#FFFBFC" d="M34.402,6.883h-5.427c0.033,0.504,0.24,0.896,0.624,1.176c0.383,0.28,0.898,0.42,1.546,0.42
			c0.81,0,1.424-0.175,1.845-0.526l0.688,1.129c-0.625,0.421-1.557,0.632-2.795,0.632c-1.159,0-2.075-0.283-2.749-0.849
			c-0.674-0.565-1.011-1.354-1.011-2.368c0-0.997,0.37-1.805,1.11-2.423s1.628-0.928,2.663-0.928c1.102,0,1.986,0.274,2.653,0.822
			c0.667,0.548,1,1.246,1,2.093C34.551,6.243,34.501,6.516,34.402,6.883z M29.039,5.771h3.731c-0.123-0.926-0.738-1.389-1.845-1.389
			C29.914,4.382,29.285,4.845,29.039,5.771z"/>
		<path fill="#FFFBFC" d="M40.361,4.643c-0.318-0.174-0.665-0.26-1.043-0.26c-0.412,0-0.777,0.156-1.097,0.467
			s-0.479,0.692-0.479,1.141v3.606H35.97V3.265h1.773v0.58c0.496-0.465,1.156-0.698,1.979-0.698c0.605,0,1.07,0.077,1.392,0.231
			L40.361,4.643z"/>
		<path fill="#FFFBFC" d="M48.9,6.883h-5.427c0.032,0.504,0.241,0.896,0.624,1.176s0.898,0.42,1.547,0.42
			c0.809,0,1.423-0.175,1.844-0.526l0.688,1.129c-0.625,0.421-1.557,0.632-2.796,0.632c-1.158,0-2.074-0.283-2.749-0.849
			c-0.674-0.565-1.01-1.354-1.01-2.368c0-0.997,0.37-1.805,1.11-2.423s1.628-0.928,2.664-0.928c1.101,0,1.985,0.274,2.652,0.822
			c0.667,0.548,1.001,1.246,1.001,2.093C49.05,6.243,48.999,6.516,48.9,6.883z M43.538,5.771h3.73
			c-0.123-0.926-0.737-1.389-1.845-1.389C44.412,4.382,43.783,4.845,43.538,5.771z"/>
		<path fill="#FFFBFC" d="M55.355,9.596V9.211c-0.146,0.134-0.395,0.251-0.745,0.352c-0.349,0.1-0.711,0.151-1.085,0.151
			c-1.059,0-1.893-0.28-2.5-0.84c-0.608-0.56-0.912-1.34-0.912-2.341s0.35-1.815,1.047-2.444c0.697-0.629,1.571-0.943,2.621-0.943
			c0.577,0,1.102,0.099,1.574,0.295V0.906l1.773-0.354v9.044H55.355z M55.355,4.778C54.978,4.526,54.583,4.4,54.171,4.4
			c-0.709,0-1.255,0.18-1.639,0.541c-0.383,0.36-0.574,0.877-0.574,1.551c0,1.317,0.762,1.975,2.284,1.975
			c0.171,0,0.379-0.042,0.628-0.127c0.248-0.084,0.409-0.17,0.485-0.257V4.778z"/>
		<path fill="#FFFBFC" d="M63.729,9.374l-0.253,0.297h-0.636V4.066l1.128-0.226v1.881c0.301-0.153,0.63-0.23,0.984-0.23
			c0.707,0,1.277,0.186,1.711,0.559c0.433,0.373,0.649,0.85,0.649,1.432c0,0.675-0.218,1.208-0.654,1.601s-1.028,0.589-1.774,0.589
			C64.437,9.671,64.052,9.572,63.729,9.374z M63.969,6.526v2.103c0.165,0.163,0.39,0.244,0.673,0.244
			c0.544,0,0.931-0.108,1.158-0.323c0.228-0.216,0.34-0.561,0.34-1.035c0-0.817-0.469-1.226-1.408-1.226
			C64.397,6.29,64.143,6.369,63.969,6.526z"/>
		<path fill="#FFFBFC" d="M70.363,10.243c-0.12,0.268-0.378,0.491-0.773,0.667c-0.396,0.177-0.857,0.265-1.384,0.265v-0.831
			c0.869,0,1.305-0.182,1.305-0.545c0-0.241-0.121-0.609-0.361-1.106l-1.513-3.126h1.169l1.318,2.784l1.188-2.784h1.169
			L70.363,10.243z"/>
	</g>
	<g>
		<g>
			<path fill="#FFFBFC" d="M77.377,26.022c0-0.673,0.491-1.181,1.118-1.181c0.62,0,1.108,0.508,1.108,1.181
				c0,0.685-0.488,1.189-1.108,1.189C77.868,27.212,77.377,26.707,77.377,26.022z M78.495,27.448c0.746,0,1.386-0.602,1.386-1.426
				c0-0.816-0.64-1.419-1.386-1.419c-0.754,0-1.391,0.603-1.391,1.419C77.104,26.847,77.741,27.448,78.495,27.448z M78.204,26.136
				h0.277l0.416,0.711h0.269l-0.449-0.723c0.231-0.029,0.41-0.158,0.41-0.451c0-0.323-0.187-0.467-0.559-0.467h-0.602v1.641h0.237
				V26.136z M78.204,25.925v-0.509h0.327c0.168,0,0.344,0.038,0.344,0.241c0,0.253-0.182,0.268-0.384,0.268H78.204z"/>
		</g>
		<g>
			<path fill="#FFFBFC" d="M56.535,14.4c-1.729-2.53-4.226-2.629-7.586-2.629c-0.443,0-4.587,0.099-5.011,0.099v15.578h3.677
				l0.006-13.563c0.604,0,1.287-0.025,1.791-0.025c1.629,0,4.468,0,4.468,5.504c0,5.536-2.286,5.918-4.825,5.944v2.137
				c1.743-0.022,3.264-0.152,4.421-0.661c2.537-1.105,4.349-3.76,4.349-7.592C57.824,18.063,57.644,15.999,56.535,14.4z"/>
		</g>
		<g>
			<path fill="#FFFBFC" d="M25.771,25.146v-4.218h4.772v-2.12h-4.772V15.16h5.354v-2.167h-8.484v12.634
				c0.005,0.999,0.808,1.807,1.804,1.82h6.903v-2.303H25.771z"/>
		</g>
		<g>
			<path fill="#FFFBFC" d="M18.866,11.871l-3.079,10.417L13.01,11.871h-2.254L7.697,22.288l-2.459-8.964
				c-0.253-0.839-0.582-1.404-1.816-1.454H0.125c0,0,0.888,0.448,1.611,2.673c0.415,1.272,3.868,12.904,3.868,12.904H8.2
				l2.938-9.091l2.536,9.091h2.576l5.533-15.578H18.866z"/>
		</g>
		<g>
			<g>
				<polygon fill="#FFFBFC" points="71.636,12.995 71.636,12.995 71.634,12.994 68.077,12.994 72.439,27.448 74.697,27.448 
					75.154,26.201 				"/>
			</g>
			<g>
				<polygon fill="#FFFBFC" points="76.016,23.851 80,12.994 77.468,12.994 75.131,20.532 				"/>
			</g>
		</g>
		<g>
			<g>
				<rect x="63.846" y="18.808" fill="#FFFBFC" width="3.335" height="2.12"/>
			</g>
			<g>
				<polygon fill="#FFFBFC" points="62.407,25.146 62.407,15.16 67.761,15.16 67.761,12.994 59.276,12.994 59.276,27.448 
					67.984,27.448 67.984,25.146 				"/>
			</g>
		</g>
		<g>
			<path fill="#FFFBFC" d="M41.158,20.578c-0.379-0.323-0.872-0.559-1.487-0.706c0.524-0.176,0.919-0.356,1.18-0.539
				c0.806-0.535,1.21-1.441,1.21-2.721c0-1.217-0.337-2.135-1.012-2.754c-0.635-0.577-1.482-0.865-2.541-0.865h-5.31v12.6
				c0.015,0.976,0.789,1.765,1.758,1.801h3.71c0.843,0,1.574-0.235,2.193-0.708c0.943-0.716,1.415-1.821,1.415-3.313
				C42.274,22.158,41.902,21.226,41.158,20.578z M36.376,14.551h0.847c1.167,0,1.75,0.747,1.75,2.243
				c0,0.454-0.058,0.879-0.173,1.272c-0.116,0.393-0.266,0.681-0.446,0.862c-0.276,0.267-0.722,0.399-1.335,0.399h-0.643V14.551z
				 M37.382,25.837h-1.006v-4.985h0.717c1.314,0,1.973,0.884,1.973,2.65C39.065,25.059,38.503,25.837,37.382,25.837z"/>
		</g>
	</g>
</g>
</svg>
