<?xml version="1.0" encoding="utf-8"?>
<!-- Generator: Adobe Illustrator 15.0.2, SVG Export Plug-In . SVG Version: 6.00 Build 0)  -->
<!DOCTYPE svg PUBLIC "-//W3C//DTD SVG 1.1//EN" "http://www.w3.org/Graphics/SVG/1.1/DTD/svg11.dtd">
<svg version="1.1" id="Calque_1" xmlns="http://www.w3.org/2000/svg" xmlns:xlink="http://www.w3.org/1999/xlink" x="0px" y="0px"
	 width="24px" height="24px" viewBox="28 0 24 24" enable-background="new 28 0 24 24" xml:space="preserve">
<path fill="#2D2D2D" d="M42.877,6.693c0.912,0,1.693,0.299,2.26,0.864C45.701,8.122,46,8.901,46,9.811
	c0,2.109-1.679,3.485-3.458,4.942c-0.853,0.697-2.36,2.17-2.433,2.241l-0.11,0.113l-0.119-0.123
	c-0.064-0.063-1.573-1.534-2.424-2.232C35.679,13.296,34,11.921,34,9.811c0-1.864,1.255-3.117,3.124-3.117
	c0.682,0,1.453,1.045,1.963,1.736c0.207,0.279,0.385,0.521,0.55,0.693l0.361,0.379l0.362-0.378c0.166-0.172,0.344-0.415,0.551-0.694
	C41.423,7.738,42.196,6.693,42.877,6.693 M42.877,6.193c-1.238,0-2.297,1.978-2.878,2.586c-0.581-0.61-1.637-2.586-2.875-2.586
	c-2.133,0-3.624,1.487-3.624,3.617c0,2.347,1.85,3.862,3.64,5.328c0.844,0.692,2.391,2.204,2.391,2.204l0.452,0.464h0.034
	l0.451-0.464c0,0,1.545-1.512,2.391-2.202c1.791-1.468,3.641-2.982,3.641-5.33C46.501,7.683,45.012,6.193,42.877,6.193L42.877,6.193
	z"/>
</svg>
