<?xml version="1.0" encoding="utf-8"?>
<!-- Generator: Adobe Illustrator 15.0.2, SVG Export Plug-In . SVG Version: 6.00 Build 0)  -->
<!DOCTYPE svg PUBLIC "-//W3C//DTD SVG 1.1//EN" "http://www.w3.org/Graphics/SVG/1.1/DTD/svg11.dtd">
<svg version="1.1" id="Calque_1" xmlns="http://www.w3.org/2000/svg" xmlns:xlink="http://www.w3.org/1999/xlink" x="0px" y="0px"
	 width="24px" height="24px" viewBox="28 0 24 24" enable-background="new 28 0 24 24" xml:space="preserve">
<g>
	<g>
		<path fill="#2D2D2D" d="M46.404,8.417c-0.936-0.936-1.871-1.872-2.809-2.809c-0.059-0.054-0.13-0.101-0.211-0.107h-9.111
			c-0.226,0.005-0.45,0.107-0.593,0.283c-0.115,0.136-0.175,0.313-0.181,0.49v11.451c0.004,0.178,0.065,0.355,0.181,0.492
			c0.143,0.176,0.366,0.283,0.366,0.283h10.68c1.178-0.006,1.354-0.064,1.49-0.182c0.176-0.145,0.279-0.365,0.283-0.592V8.622
			C46.486,8.546,46.465,8.47,46.404,8.417z M36.881,6.028c2.08-0.003,4.158-0.003,6.238,0c0,1.297,0.002,2.594,0,3.891
			c-2.08,0.003-4.158,0.003-6.236,0C36.879,8.623,36.881,7.326,36.881,6.028z M42.906,17.98c-2.604,0-3.208,0-5.813,0
			c0-1.654,0-3.313,0-4.967c-0.013-0.129,0.098-0.248,0.226-0.24c2.453,0,2.906,0,5.358,0c0.13-0.008,0.24,0.111,0.228,0.24
			C42.906,14.67,42.906,16.326,42.906,17.98z M45.728,17.979c-0.438,0.006-1.876,0-2.313,0.002c0-1.664,0-3.326,0-4.988
			c0-0.256-0.141-0.5-0.361-0.625c-0.118-0.071-0.257-0.099-0.395-0.099c-2.412,0-2.824,0.001-5.237,0
			c-0.155-0.004-0.317,0.01-0.454,0.088c-0.23,0.121-0.38,0.374-0.379,0.636c-0.001,1.662,0,3.324,0,4.988c-0.416,0-1.833,0-2.25,0
			c-0.08,0.002-0.167-0.008-0.227-0.063c-0.067-0.059-0.091-0.146-0.09-0.23c-0.001-3.783,0-7.565,0-11.351
			c-0.001-0.08,0.01-0.167,0.067-0.228c0.055-0.065,0.142-0.09,0.224-0.088c0.683-0.001,1.366,0,2.048-0.001
			c0,1.291,0,2.582,0,3.873c0.001,0.148,0.054,0.301,0.166,0.403c0.106,0.103,0.255,0.146,0.4,0.145c2.05,0,4.1,0,6.148,0
			c0.15,0.003,0.307-0.047,0.414-0.158c0.107-0.107,0.153-0.264,0.151-0.414c-0.002-1.161,0.002-2.322-0.002-3.483
			c0.778,0.784,1.563,1.562,2.343,2.345c-0.002,2.986,0,5.973,0,8.959C45.994,17.834,45.879,17.979,45.728,17.979z"/>
	</g>
	<rect x="40.56" y="5.513" fill="#2D2D2D" width="0.521" height="4.426"/>
</g>
</svg>
