<?xml version="1.0" encoding="utf-8"?>
<!-- Generator: Adobe Illustrator 15.0.2, SVG Export Plug-In . SVG Version: 6.00 Build 0)  -->
<!DOCTYPE svg PUBLIC "-//W3C//DTD SVG 1.1//EN" "http://www.w3.org/Graphics/SVG/1.1/DTD/svg11.dtd">
<svg version="1.1" id="Calque_1" xmlns="http://www.w3.org/2000/svg" xmlns:xlink="http://www.w3.org/1999/xlink" x="0px" y="0px"
	 width="160px" height="34px" viewBox="-32 0 160 34" enable-background="new -32 0 160 34" xml:space="preserve">
<rect x="-32" fill="#D31147" width="160" height="34"/>
<g>
	<path fill="#2E2E2D" d="M15.999,10.978c2.035,0,3.69,1.654,3.69,3.689c0,2.034-1.655,3.688-3.69,3.688s-3.69-1.654-3.69-3.688
		C12.309,12.632,13.964,10.978,15.999,10.978 M15.999,9.978c-2.591,0-4.69,2.1-4.69,4.689c0,2.593,2.102,4.688,4.69,4.688
		c2.592,0,4.69-2.104,4.69-4.688S18.591,9.978,15.999,9.978L15.999,9.978z"/>
	<path fill="#2E2E2D" d="M18.924,21.036c1.092,0.358,1.855,0.995,2.371,1.985H10.706c0.515-0.987,1.279-1.625,2.37-1.984
		c0.915,0.421,1.917,0.643,2.923,0.643C17.006,21.68,18.009,21.458,18.924,21.036 M18.83,19.967
		c-0.844,0.452-1.809,0.713-2.831,0.713s-1.985-0.26-2.83-0.713c-1.821,0.479-3.251,1.613-3.905,4.057h13.472
		C22.082,21.58,20.654,20.443,18.83,19.967L18.83,19.967z"/>
</g>
<g>
	<path fill="#2E2E2D" d="M-16.001,10.978c2.035,0,3.69,1.654,3.69,3.689c0,2.034-1.655,3.688-3.69,3.688s-3.69-1.654-3.69-3.688
		C-19.691,12.632-18.036,10.978-16.001,10.978 M-16.001,9.978c-2.591,0-4.69,2.1-4.69,4.689c0,2.593,2.102,4.688,4.69,4.688
		c2.592,0,4.69-2.104,4.69-4.688S-13.409,9.978-16.001,9.978L-16.001,9.978z"/>
	<path fill="#2E2E2D" d="M-13.076,21.036c1.092,0.358,1.855,0.995,2.371,1.985h-10.589c0.515-0.987,1.279-1.625,2.37-1.984
		c0.915,0.421,1.917,0.643,2.923,0.643C-14.994,21.68-13.991,21.458-13.076,21.036 M-13.17,19.967
		c-0.844,0.452-1.809,0.713-2.831,0.713s-1.985-0.26-2.83-0.713c-1.821,0.479-3.251,1.613-3.905,4.057h13.472
		C-9.918,21.58-11.346,20.443-13.17,19.967L-13.17,19.967z"/>
</g>
<g opacity="0.5">
	<path fill="#2E2E2D" d="M47.999,10.978c2.035,0,3.69,1.654,3.69,3.689c0,2.034-1.655,3.688-3.69,3.688s-3.69-1.654-3.69-3.688
		C44.309,12.632,45.964,10.978,47.999,10.978 M47.999,9.978c-2.591,0-4.69,2.1-4.69,4.689c0,2.593,2.102,4.688,4.69,4.688
		c2.592,0,4.69-2.104,4.69-4.688S50.591,9.978,47.999,9.978L47.999,9.978z"/>
	<path fill="#2E2E2D" d="M50.924,21.036c1.092,0.358,1.855,0.995,2.371,1.985H42.706c0.515-0.987,1.279-1.625,2.37-1.984
		c0.915,0.421,1.917,0.643,2.923,0.643C49.006,21.68,50.009,21.458,50.924,21.036 M50.83,19.967
		c-0.844,0.452-1.809,0.713-2.831,0.713s-1.985-0.26-2.83-0.713c-1.821,0.479-3.251,1.613-3.905,4.057h13.472
		C54.082,21.58,52.654,20.443,50.83,19.967L50.83,19.967z"/>
</g>
<g>
	<path fill="#42B348" d="M79.999,10.978c2.035,0,3.69,1.654,3.69,3.689c0,2.034-1.655,3.688-3.69,3.688s-3.69-1.654-3.69-3.688
		C76.309,12.632,77.964,10.978,79.999,10.978 M79.999,9.978c-2.591,0-4.69,2.1-4.69,4.689c0,2.593,2.104,4.688,4.69,4.688
		c2.592,0,4.69-2.104,4.69-4.688S82.591,9.978,79.999,9.978L79.999,9.978z"/>
	<path fill="#42B348" d="M82.924,21.036c1.092,0.358,1.855,0.995,2.371,1.985H74.706c0.515-0.987,1.278-1.625,2.37-1.984
		c0.915,0.421,1.917,0.643,2.923,0.643C81.006,21.68,82.009,21.458,82.924,21.036 M82.83,19.967
		c-0.844,0.452-1.809,0.713-2.831,0.713s-1.985-0.26-2.83-0.713c-1.821,0.479-3.251,1.613-3.905,4.057h13.473
		C86.082,21.58,84.654,20.443,82.83,19.967L82.83,19.967z"/>
</g>
<g>
	<path fill="#42B348" d="M111.999,10.978c2.035,0,3.69,1.654,3.69,3.689c0,2.034-1.655,3.688-3.69,3.688s-3.69-1.654-3.69-3.688
		C108.309,12.632,109.964,10.978,111.999,10.978 M111.999,9.978c-2.591,0-4.69,2.1-4.69,4.689c0,2.593,2.104,4.688,4.69,4.688
		c2.592,0,4.69-2.104,4.69-4.688S114.591,9.978,111.999,9.978L111.999,9.978z"/>
	<path fill="#42B348" d="M114.924,21.036c1.092,0.358,1.855,0.995,2.371,1.985h-10.589c0.515-0.987,1.278-1.625,2.37-1.984
		c0.915,0.421,1.917,0.643,2.923,0.643C113.006,21.68,114.009,21.458,114.924,21.036 M114.83,19.967
		c-0.844,0.452-1.809,0.713-2.831,0.713s-1.985-0.26-2.83-0.713c-1.821,0.479-3.251,1.613-3.905,4.057h13.473
		C118.082,21.58,116.654,20.443,114.83,19.967L114.83,19.967z"/>
</g>
</svg>
