<?xml version="1.0" encoding="utf-8"?>
<!-- Generator: Adobe Illustrator 15.0.2, SVG Export Plug-In . SVG Version: 6.00 Build 0)  -->
<!DOCTYPE svg PUBLIC "-//W3C//DTD SVG 1.1//EN" "http://www.w3.org/Graphics/SVG/1.1/DTD/svg11.dtd">
<svg version="1.1" id="Calque_1" xmlns="http://www.w3.org/2000/svg" xmlns:xlink="http://www.w3.org/1999/xlink" x="0px" y="0px"
	 width="24px" height="24px" viewBox="28 0 24 24" enable-background="new 28 0 24 24" xml:space="preserve">
<g>
	<g>
		<path fill="#808090" d="M46.404,8.417c-0.936-0.936-1.871-1.871-2.809-2.809c-0.059-0.054-0.13-0.102-0.211-0.107h-9.11
			c-0.226,0.006-0.451,0.107-0.594,0.283c-0.114,0.137-0.174,0.314-0.181,0.49v11.451c0.004,0.178,0.065,0.355,0.181,0.492
			c0.143,0.176,0.328,0.283,0.328,0.283h10.718c1.178-0.006,1.354-0.064,1.49-0.184c0.176-0.143,0.279-0.363,0.283-0.592V8.622
			C46.486,8.547,46.466,8.47,46.404,8.417z M36.882,6.028c2.08-0.003,4.157-0.003,6.237,0c0,1.298,0.002,2.595,0,3.892
			c-2.08,0.002-4.157,0.002-6.235,0C36.88,8.624,36.882,7.327,36.882,6.028z M42.906,17.98c-2.604,0-3.208,0-5.813,0
			c0-1.654,0-3.313,0-4.967c-0.013-0.129,0.098-0.248,0.226-0.24c2.453,0,2.906,0,5.358,0c0.13-0.008,0.24,0.111,0.229,0.24
			C42.906,14.67,42.906,16.326,42.906,17.98z M45.728,17.979c-0.438,0.006-1.876,0-2.313,0.002c0-1.664,0-3.326,0-4.986
			c0-0.258-0.141-0.501-0.36-0.625c-0.118-0.072-0.257-0.1-0.396-0.1c-2.412,0-2.823,0-5.236,0c-0.155-0.004-0.317,0.01-0.454,0.088
			c-0.23,0.121-0.38,0.375-0.379,0.635c-0.001,1.662,0,3.324,0,4.988c-0.416,0-1.833,0-2.25,0c-0.08,0.002-0.167-0.008-0.227-0.063
			c-0.067-0.059-0.091-0.146-0.09-0.229c-0.001-3.783,0-7.565,0-11.352c-0.001-0.081,0.01-0.167,0.067-0.229
			c0.055-0.065,0.142-0.09,0.224-0.088c0.683-0.001,1.366,0,2.048-0.001c0,1.291,0,2.582,0,3.873
			c0.001,0.148,0.054,0.301,0.166,0.402c0.106,0.104,0.255,0.146,0.4,0.145c2.05,0,4.101,0,6.147,0
			c0.15,0.004,0.308-0.047,0.414-0.156c0.107-0.107,0.153-0.266,0.151-0.414c-0.002-1.162,0.002-2.322-0.002-3.484
			c0.778,0.785,1.563,1.563,2.343,2.346c-0.002,2.986,0,5.974,0,8.958C45.994,17.834,45.88,17.979,45.728,17.979z"/>
	</g>
	<rect x="40.56" y="5.514" fill="#808090" width="0.521" height="4.425"/>
</g>
<g display="none">
	<path display="inline" fill="#808090" d="M16.959,6.5l2.53,2.535v8.445l-11,0.017V6.5H16.959 M17.374,5.5H7.489v12.999l13-0.021
		V8.621L17.374,5.5L17.374,5.5z"/>
	<polygon display="inline" fill="#808090" points="17.248,10.939 9.85,10.939 9.85,6.02 10.85,6.02 10.85,9.939 16.248,9.939 
		16.248,5.75 17.248,5.75 	"/>
	<polygon display="inline" fill="#808090" points="17.248,17.844 16.248,17.844 16.248,13.25 10.85,13.25 10.85,17.844 9.85,17.844 
		9.85,12.25 17.248,12.25 	"/>
	<rect x="13.771" y="5.75" display="inline" fill="#808090" width="1" height="4.689"/>
</g>
</svg>
