<?xml version="1.0" encoding="utf-8"?>
<!-- Generator: Adobe Illustrator 15.0.2, SVG Export Plug-In . SVG Version: 6.00 Build 0)  -->
<!DOCTYPE svg PUBLIC "-//W3C//DTD SVG 1.1//EN" "http://www.w3.org/Graphics/SVG/1.1/DTD/svg11.dtd">
<svg version="1.1" id="Calque_1" xmlns="http://www.w3.org/2000/svg" xmlns:xlink="http://www.w3.org/1999/xlink" x="0px" y="0px"
	 width="160px" height="34px" viewBox="-32 0 160 34" enable-background="new -32 0 160 34" xml:space="preserve">
<rect x="-32" fill="#D31147" width="160" height="34"/>
<g>
	<g>
		<path fill="#2E2E2D" d="M23.085,16.156V22H8.916v-5.844l6.64,3.302L16,19.68l0.445-0.222L23.085,16.156 M24.085,14.542L16,18.563
			l-8.085-4.021V23h16.17V14.542L24.085,14.542z"/>
		<path fill="#2E2E2D" d="M23.085,12v0.63L16,16.152L8.916,12.63V12H23.085 M24.085,11H7.916v2.25L16,17.269l8.085-4.019V11
			L24.085,11z"/>
	</g>
</g>
<g>
	<g>
		<path fill="#2E2E2D" d="M-8.915,16.156V22h-14.169v-5.844l6.64,3.302L-16,19.68l0.445-0.222L-8.915,16.156 M-7.915,14.542
			L-16,18.563l-8.085-4.021V23h16.17V14.542L-7.915,14.542z"/>
		<path fill="#2E2E2D" d="M-8.915,12v0.63L-16,16.152l-7.084-3.522V12H-8.915 M-7.915,11h-16.169v2.25L-16,17.269l8.085-4.019V11
			L-7.915,11z"/>
	</g>
</g>
<g>
	<g>
		<path fill="#42B348" d="M119.086,16.156V22h-14.17v-5.844l6.639,3.302L112,19.68l0.445-0.222L119.086,16.156 M120.086,14.542
			L112,18.563l-8.084-4.021V23h16.17V14.542L120.086,14.542z"/>
		<path fill="#42B348" d="M119.086,12v0.63L112,16.152l-7.084-3.522V12H119.086 M120.086,11h-16.17v2.25L112,17.269l8.086-4.019V11
			L120.086,11z"/>
	</g>
</g>
<g opacity="0.5">
	<g>
		<path fill="#2E2E2D" d="M55.085,16.156V22h-14.17v-5.844l6.64,3.302L48,19.68l0.444-0.222L55.085,16.156 M56.085,14.542L48,18.563
			l-8.084-4.021V23h16.17L56.085,14.542L56.085,14.542z"/>
		<path fill="#2E2E2D" d="M55.085,12v0.63L48,16.153l-7.084-3.523V12H55.085 M56.085,11h-16.17v2.25L48,17.27l8.086-4.02L56.085,11
			L56.085,11z"/>
	</g>
</g>
<g>
	<g>
		<path fill="#42B348" d="M87.086,16.156V22h-14.17v-5.844l6.639,3.302L80,19.68l0.443-0.222L87.086,16.156 M88.086,14.542
			L80,18.563l-8.084-4.021V23h16.17V14.542L88.086,14.542z"/>
		<path fill="#42B348" d="M87.086,12v0.63L80,16.153l-7.084-3.523V12H87.086 M88.086,11h-16.17v2.25L80,17.27l8.086-4.02V11
			L88.086,11z"/>
	</g>
</g>
</svg>
