<?xml version="1.0" encoding="utf-8"?>
<!-- Generator: Adobe Illustrator 15.0.2, SVG Export Plug-In . SVG Version: 6.00 Build 0)  -->
<!DOCTYPE svg PUBLIC "-//W3C//DTD SVG 1.1//EN" "http://www.w3.org/Graphics/SVG/1.1/DTD/svg11.dtd">
<svg version="1.1" id="Calque_1" xmlns="http://www.w3.org/2000/svg" xmlns:xlink="http://www.w3.org/1999/xlink" x="0px" y="0px"
	 width="24px" height="24px" viewBox="28 0 24 24" enable-background="new 28 0 24 24" xml:space="preserve">
<g>
	<g>
		<path fill="#808090" d="M35.748,14.246c0.093-0.094,0.187-0.188,0.281-0.281c-0.91-0.91-1.055-1.055-1.964-1.964
			c0.909-0.91,1.054-1.055,1.964-1.964c-0.093-0.096-0.188-0.189-0.281-0.283c-1.004,1.003-1.245,1.243-2.248,2.247
			C34.503,13.004,34.743,13.242,35.748,14.246z"/>
	</g>
	<g>
		<path fill="#808090" d="M44.252,9.754c-0.092,0.093-0.188,0.188-0.281,0.282c0.909,0.91,1.055,1.054,1.965,1.964
			c-0.91,0.91-1.055,1.054-1.965,1.964c0.094,0.095,0.188,0.188,0.281,0.282c1.004-1.004,1.245-1.242,2.248-2.246
			C45.497,10.997,45.257,10.757,44.252,9.754z"/>
	</g>
	<g>
		<path fill="#808090" d="M42.247,16.252c-0.093-0.094-0.187-0.188-0.282-0.282c-0.91,0.91-1.054,1.058-1.964,1.966
			c-0.91-0.908-1.055-1.055-1.965-1.966c-0.095,0.097-0.188,0.188-0.283,0.282c1.003,1.004,1.243,1.244,2.247,2.248
			C41.004,17.496,41.243,17.257,42.247,16.252z"/>
	</g>
	<g>
		<path fill="#808090" d="M37.753,7.748c0.093,0.092,0.187,0.187,0.282,0.282c0.91-0.91,1.054-1.057,1.964-1.965
			c0.91,0.908,1.056,1.054,1.964,1.965c0.096-0.095,0.188-0.189,0.283-0.282C41.243,6.744,41.004,6.504,40,5.5
			C38.997,6.503,38.757,6.743,37.753,7.748z"/>
	</g>
</g>
</svg>
