<?xml version="1.0" encoding="utf-8"?>
<!-- Generator: Adobe Illustrator 15.0.2, SVG Export Plug-In . SVG Version: 6.00 Build 0)  -->
<!DOCTYPE svg PUBLIC "-//W3C//DTD SVG 1.1//EN" "http://www.w3.org/Graphics/SVG/1.1/DTD/svg11.dtd">
<svg version="1.1" id="Calque_1" xmlns="http://www.w3.org/2000/svg" xmlns:xlink="http://www.w3.org/1999/xlink" x="0px" y="0px"
	 width="24px" height="24px" viewBox="28 0 24 24" enable-background="new 28 0 24 24" xml:space="preserve">
<g>
	<path fill="#2D2D2D" d="M43.365,12.358c0.455-1.16,0.457-2.492,0.001-3.651c-0.501-1.306-1.576-2.379-2.886-2.873
		c-1.245-0.485-2.688-0.44-3.899,0.124c-1.227,0.557-2.209,1.63-2.648,2.904c-0.494,1.381-0.34,2.98,0.42,4.237
		c0.75,1.28,2.098,2.194,3.569,2.402c1.287,0.205,2.647-0.125,3.701-0.893c1.297,1.297,2.594,2.595,3.892,3.892
		c0.278-0.278,0.559-0.56,0.837-0.838c-1.284-1.286-2.569-2.57-3.854-3.854C42.861,13.376,43.162,12.888,43.365,12.358z
		 M39.398,14.908c-1.16,0.196-2.396-0.095-3.341-0.798c-1.071-0.773-1.765-2.051-1.81-3.374c-0.066-1.182,0.376-2.38,1.19-3.238
		c0.712-0.77,1.708-1.266,2.75-1.381c0.702-0.073,1.424,0.013,2.083,0.27c1.16,0.439,2.113,1.393,2.55,2.554
		c0.485,1.243,0.364,2.707-0.325,3.851C41.842,13.908,40.676,14.71,39.398,14.908z"/>
</g>
</svg>
