<?xml version="1.0" encoding="utf-8"?>
<!-- Generator: Adobe Illustrator 15.0.2, SVG Export Plug-In . SVG Version: 6.00 Build 0)  -->
<!DOCTYPE svg PUBLIC "-//W3C//DTD SVG 1.1//EN" "http://www.w3.org/Graphics/SVG/1.1/DTD/svg11.dtd">
<svg version="1.1" id="Calque_1" xmlns="http://www.w3.org/2000/svg" xmlns:xlink="http://www.w3.org/1999/xlink" x="0px" y="0px"
	 width="24px" height="24px" viewBox="28 0 24 24" enable-background="new 28 0 24 24" xml:space="preserve">
<path fill="#2D2D2D" d="M43.791,10.154v-0.051H43.74c0.002,0.015,0.006,0.027,0.009,0.042
	C43.764,10.147,43.777,10.152,43.791,10.154 M43.791,11.265v-0.023c-0.018-0.007-0.04-0.015-0.055-0.021
	c0,0.004-0.002,0.008-0.002,0.012L43.791,11.265z M34.583,10.646c0-1.197,0.97-2.167,2.167-2.167h3.792
	c1.009,0,1.854,0.69,2.097,1.625c0.045,0.174,0.07,0.354,0.07,0.542c0,0.187-0.025,0.368-0.07,0.542
	c-0.242,0.934-1.087,1.624-2.097,1.624h-2.167v1.084h2.167c1.594,0,2.917-1.149,3.192-2.663l-0.078-0.045
	c0,0,0.029,0.012,0.082,0.033c0.033-0.188,0.054-0.379,0.054-0.574c0-0.17-0.017-0.336-0.042-0.5
	c-0.031-0.005-0.063-0.007-0.093-0.012v-0.031h0.085c-0.26-1.536-1.59-2.708-3.199-2.708H36.75c-1.795,0-3.25,1.455-3.25,3.25
	c0,1.205,0.657,2.254,1.631,2.814l0.252-1.135C34.895,11.929,34.583,11.323,34.583,10.646 M44.868,10.54l-0.252,1.137
	c0.487,0.396,0.801,1,0.801,1.676c0,1.197-0.97,2.168-2.167,2.168h-3.792c-1.197,0-2.167-0.971-2.167-2.168
	c0-1.195,0.97-2.165,2.167-2.165h2.167v-1.083h-2.167c-1.795,0-3.25,1.456-3.25,3.25c0,1.795,1.455,3.25,3.25,3.25h3.792
	c1.795,0,3.25-1.455,3.25-3.25C46.5,12.148,45.842,11.101,44.868,10.54"/>
</svg>
