<?xml version="1.0" encoding="utf-8"?>
<!-- Generator: Adobe Illustrator 15.0.2, SVG Export Plug-In . SVG Version: 6.00 Build 0)  -->
<!DOCTYPE svg PUBLIC "-//W3C//DTD SVG 1.1//EN" "http://www.w3.org/Graphics/SVG/1.1/DTD/svg11.dtd">
<svg version="1.1" id="Calque_1" xmlns="http://www.w3.org/2000/svg" xmlns:xlink="http://www.w3.org/1999/xlink" x="0px" y="0px"
	 width="24px" height="24px" viewBox="0 0 24 24" enable-background="new 0 0 24 24" xml:space="preserve">
<g>
	<path fill="#808090" d="M15.124,5.017c-1.078-0.796-2.468-1.145-3.794-0.974C10.446,4.152,9.592,4.49,8.875,5.017
		c-1.101,0.79-1.873,2.02-2.11,3.353c-0.201,1.127-0.021,2.285,0.284,3.378c0.216,0.776,0.526,1.522,0.861,2.254
		c0.976,2.05,2.253,3.946,3.692,5.697c0.098,0.107,0.181,0.251,0.329,0.292c0.128,0.033,0.258-0.035,0.335-0.137
		c0.72-0.871,1.387-1.784,2.018-2.723c0.798-1.218,1.531-2.486,2.095-3.831c0.299-0.682,0.536-1.39,0.71-2.114
		c0.21-0.91,0.316-1.861,0.151-2.787C17.011,7.055,16.233,5.813,15.124,5.017z M16.722,9.61c-0.037,0.788-0.213,1.563-0.454,2.312
		c-0.4,1.219-0.973,2.377-1.612,3.489c-0.53,0.905-1.104,1.785-1.731,2.625c-0.294,0.415-0.608,0.814-0.926,1.212
		c-0.977-1.189-1.866-2.451-2.646-3.778c-0.458-0.789-0.878-1.602-1.226-2.446c-0.366-0.868-0.647-1.776-0.783-2.71
		c-0.127-0.864-0.1-1.768,0.208-2.592c0.45-1.28,1.487-2.336,2.756-2.814c0.876-0.34,1.855-0.401,2.77-0.189
		c0.665,0.154,1.294,0.457,1.831,0.877c0.666,0.517,1.188,1.217,1.494,2.002C16.654,8.234,16.757,8.926,16.722,9.61z"/>
	<path fill="#808090" d="M13.202,7.688c-0.457-0.283-1.016-0.393-1.547-0.313c-0.512,0.076-0.994,0.331-1.345,0.711
		C9.941,8.48,9.719,9.009,9.697,9.548c-0.027,0.536,0.142,1.079,0.469,1.505c0.348,0.458,0.871,0.778,1.438,0.874
		c0.544,0.097,1.122-0.012,1.594-0.301c0.497-0.301,0.873-0.796,1.025-1.357c0.129-0.468,0.106-0.978-0.067-1.432
		C13.977,8.362,13.636,7.952,13.202,7.688z M13.485,10.51c-0.254,0.445-0.718,0.765-1.226,0.839
		c-0.448,0.07-0.923-0.046-1.285-0.321c-0.359-0.265-0.605-0.675-0.669-1.117c-0.063-0.416,0.031-0.854,0.266-1.203
		c0.253-0.385,0.667-0.659,1.122-0.738c0.403-0.075,0.834,0.002,1.186,0.215c0.419,0.248,0.722,0.682,0.807,1.162
		C13.757,9.742,13.688,10.162,13.485,10.51z"/>
</g>
</svg>
