<?xml version="1.0" encoding="utf-8"?>
<!-- Generator: Adobe Illustrator 15.0.2, SVG Export Plug-In . SVG Version: 6.00 Build 0)  -->
<!DOCTYPE svg PUBLIC "-//W3C//DTD SVG 1.1//EN" "http://www.w3.org/Graphics/SVG/1.1/DTD/svg11.dtd">
<svg version="1.1" id="Calque_1" xmlns="http://www.w3.org/2000/svg" xmlns:xlink="http://www.w3.org/1999/xlink" x="0px" y="0px"
	 width="24px" height="24px" viewBox="0 0 24 24" enable-background="new 0 0 24 24" xml:space="preserve">
<g>
	<path fill="#808090" d="M14.653,8.682c0-0.251,0.008-0.504-0.01-0.755c-0.05-0.584-0.3-1.15-0.699-1.578
		c-0.394-0.425-0.928-0.716-1.5-0.811c-0.545-0.093-1.119-0.012-1.613,0.234c-0.75,0.362-1.305,1.098-1.443,1.92
		C9.329,8.018,9.349,8.351,9.347,8.681c-0.697,0.005-1.396,0-2.095,0.002C6.878,11.956,6.504,15.229,6.13,18.5h11.74
		c-0.374-3.271-0.748-6.544-1.122-9.816C16.05,8.682,15.353,8.686,14.653,8.682z M9.938,7.658c0.129-0.551,0.494-1.042,0.98-1.329
		c0.422-0.253,0.936-0.348,1.42-0.269c0.537,0.083,1.035,0.385,1.357,0.821c0.257,0.337,0.406,0.754,0.423,1.177
		c0.009,0.208,0.003,0.417,0.004,0.625c-1.414,0-2.829,0-4.244,0C9.884,8.34,9.854,7.993,9.938,7.658z M6.728,17.971
		c0.332-2.92,0.666-5.838,1-8.756c0.541,0,1.08,0,1.619,0c0.002,0.199,0,0.398,0.002,0.598c-0.092,0.064-0.176,0.145-0.219,0.25
		c-0.087,0.192-0.045,0.434,0.104,0.583c0.142,0.148,0.373,0.2,0.563,0.127c0.215-0.077,0.365-0.306,0.343-0.535
		c-0.008-0.175-0.117-0.331-0.262-0.424c0-0.2,0-0.399,0-0.599c1.415,0,2.83,0,4.245,0c0,0.2-0.001,0.399,0,0.599
		c-0.136,0.089-0.242,0.23-0.259,0.394c-0.028,0.193,0.063,0.395,0.224,0.504c0.168,0.12,0.407,0.125,0.581,0.014
		c0.182-0.109,0.279-0.334,0.24-0.541c-0.023-0.156-0.127-0.287-0.256-0.372c0.002-0.2,0-0.398,0.002-0.598c0.539,0,1.078,0,1.617,0
		c0.336,2.918,0.668,5.836,1.002,8.754C13.759,17.971,10.243,17.971,6.728,17.971z"/>
</g>
</svg>
