<?xml version="1.0" encoding="utf-8"?>
<!-- Generator: Adobe Illustrator 15.0.2, SVG Export Plug-In . SVG Version: 6.00 Build 0)  -->
<!DOCTYPE svg PUBLIC "-//W3C//DTD SVG 1.1//EN" "http://www.w3.org/Graphics/SVG/1.1/DTD/svg11.dtd">
<svg version="1.1" id="Calque_1" xmlns="http://www.w3.org/2000/svg" xmlns:xlink="http://www.w3.org/1999/xlink" x="0px" y="0px"
	 width="24px" height="24px" viewBox="28 0 24 24" enable-background="new 28 0 24 24" xml:space="preserve">
<g>
	<path fill="#808090" d="M44.484,5.662c-0.227,0.104-0.388,0.301-0.563,0.471c0.648,0.649,1.298,1.298,1.947,1.947
		c0.169-0.175,0.367-0.335,0.471-0.563c0.281-0.502,0.186-1.175-0.21-1.589C45.72,5.486,45.01,5.367,44.484,5.662z"/>
	<path fill="#808090" d="M45.082,8.199c-0.121-0.01-0.22,0.083-0.297,0.166c-3.012,3.013-6.025,6.025-9.038,9.037
		c-0.386-0.381-0.768-0.764-1.149-1.148c3.031-3.031,6.063-6.063,9.094-9.093c0.089-0.087,0.147-0.227,0.087-0.346
		c-0.057-0.143-0.248-0.212-0.381-0.132c-0.078,0.034-0.13,0.104-0.19,0.161c-3.011,3.011-6.021,6.02-9.032,9.031
		c-0.057,0.062-0.1,0.136-0.121,0.217c-0.18,0.675-0.361,1.349-0.542,2.022c-0.035,0.123-0.004,0.275,0.114,0.343
		c0.075,0.058,0.175,0.05,0.262,0.032c0.674-0.182,1.348-0.363,2.022-0.543c0.114-0.028,0.208-0.104,0.285-0.19
		c2.992-2.991,5.984-5.982,8.977-8.976c0.078-0.078,0.175-0.166,0.179-0.285C45.368,8.344,45.234,8.193,45.082,8.199z"/>
</g>
</svg>
