<?xml version="1.0" encoding="utf-8"?>
<!-- Generator: Adobe Illustrator 15.0.2, SVG Export Plug-In . SVG Version: 6.00 Build 0)  -->
<!DOCTYPE svg PUBLIC "-//W3C//DTD SVG 1.1//EN" "http://www.w3.org/Graphics/SVG/1.1/DTD/svg11.dtd">
<svg version="1.1" id="Calque_1" xmlns="http://www.w3.org/2000/svg" xmlns:xlink="http://www.w3.org/1999/xlink" x="0px" y="0px"
	 width="160px" height="34px" viewBox="-32 0 160 34" enable-background="new -32 0 160 34" xml:space="preserve">
<rect x="-32" fill="#D31147" width="160" height="34"/>
<g>
	<g>
		<path fill="#2E2E2D" d="M16,14.572l6.033,4.604v3.752H9.961v-3.752L16,14.572 M16,13.314l-7.038,5.37v5.245h14.071v-5.245
			L16,13.314L16,13.314z"/>
	</g>
	<g>
		<polygon fill="#2E2E2D" points="24.721,18.313 16,11.348 7.271,18.252 6.651,17.468 16.002,10.07 25.346,17.531 		"/>
	</g>
</g>
<g>
	<g>
		<path fill="#2E2E2D" d="M-16,14.572l6.033,4.604v3.752h-12.072v-3.752L-16,14.572 M-16,13.314l-7.038,5.37v5.245h14.071v-5.245
			L-16,13.314L-16,13.314z"/>
	</g>
	<g>
		<polygon fill="#2E2E2D" points="-7.279,18.313 -16,11.348 -24.729,18.252 -25.349,17.468 -15.998,10.07 -6.654,17.531 		"/>
	</g>
</g>
<g opacity="0.5">
	<g>
		<path fill="#2E2E2D" d="M48,14.572l6.033,4.604v3.752H41.961v-3.752L48,14.572 M48,13.314l-7.038,5.37v5.245h14.071v-5.245
			L48,13.314L48,13.314z"/>
	</g>
	<g>
		<polygon fill="#2E2E2D" points="56.721,18.313 48,11.348 39.271,18.252 38.651,17.468 48.002,10.07 57.346,17.531 		"/>
	</g>
</g>
<g>
	<g>
		<path fill="#42B348" d="M80,14.572l6.033,4.604v3.752H73.961v-3.752L80,14.572 M80,13.314l-7.039,5.37v5.245h14.072v-5.245
			L80,13.314L80,13.314z"/>
	</g>
	<g>
		<polygon fill="#42B348" points="88.721,18.313 80,11.348 71.271,18.252 70.65,17.468 80.002,10.07 89.346,17.531 		"/>
	</g>
</g>
<g>
	<g>
		<path fill="#42B348" d="M112,14.572l6.033,4.604v3.752h-12.072v-3.752L112,14.572 M112,13.314l-7.039,5.37v5.245h14.072v-5.245
			L112,13.314L112,13.314z"/>
	</g>
	<g>
		<polygon fill="#42B348" points="120.721,18.313 112,11.348 103.271,18.252 102.65,17.468 112.002,10.07 121.346,17.531 		"/>
	</g>
</g>
</svg>
