<?xml version="1.0" encoding="utf-8"?>
<!-- Generator: Adobe Illustrator 15.0.2, SVG Export Plug-In . SVG Version: 6.00 Build 0)  -->
<!DOCTYPE svg PUBLIC "-//W3C//DTD SVG 1.1//EN" "http://www.w3.org/Graphics/SVG/1.1/DTD/svg11.dtd">
<svg version="1.1" id="Calque_1" xmlns="http://www.w3.org/2000/svg" xmlns:xlink="http://www.w3.org/1999/xlink" x="0px" y="0px"
	 width="24px" height="24px" viewBox="28 0 24 24" enable-background="new 28 0 24 24" xml:space="preserve">
<g>
	<path fill="#2D2D2D" d="M46.057,9.22c-0.121-0.061-0.258-0.081-0.394-0.078c-0.501,0-1.003,0-1.504,0c0-1.214,0-2.427,0-3.641
		h-8.32c0,1.214,0,2.427,0,3.641c-0.518,0-1.036-0.001-1.554,0c-0.192,0-0.384,0.07-0.526,0.2c-0.161,0.141-0.255,0.351-0.26,0.567
		v5.482c0.005,0.178,0.067,0.354,0.182,0.488c0.146,0.178,0.374,0.281,0.604,0.281c0.518,0.002,1.036,0,1.554,0
		c0,0.779,0,1.561,0,2.34h8.32c0-0.779,0-1.561,0-2.34c0.519,0,1.035,0.002,1.554,0c0.188,0,0.375-0.066,0.517-0.191
		c0.168-0.143,0.266-0.359,0.271-0.578V9.909C46.495,9.62,46.32,9.34,46.057,9.22z M43.641,6.021c0,1.04,0,2.08-0.002,3.12
		c-2.426,0-4.853,0-7.279,0c0-1.04,0-2.08,0-3.12C38.786,6.021,41.213,6.021,43.641,6.021z M36.359,17.98c0-1.563,0-3.121,0-4.684
		c2.427,0,4.854,0,7.279,0c0.002,1.563,0,3.121,0.002,4.684C41.213,17.98,38.786,17.98,36.359,17.98z M45.711,15.641
		c-0.518,0.002-1.033,0-1.552,0c0-0.953,0-1.906,0-2.859c-2.772,0-5.547,0-8.32,0c0,0.953,0,1.906,0,2.859
		c-0.517,0-1.034,0.002-1.55,0c-0.154,0.008-0.282-0.137-0.269-0.287c0-1.809-0.001-3.616,0.001-5.425
		c-0.006-0.155,0.14-0.283,0.292-0.267c3.792-0.001,7.583-0.001,11.375,0c0.172-0.02,0.313,0.141,0.293,0.308
		c-0.001,1.795,0,3.589-0.001,5.386C45.99,15.504,45.863,15.646,45.711,15.641z"/>
	<path fill="#2D2D2D" d="M45.002,10.555c-0.125-0.101-0.296-0.136-0.449-0.097c-0.207,0.05-0.371,0.238-0.39,0.45
		c-0.022,0.199,0.083,0.405,0.259,0.503c0.151,0.089,0.35,0.091,0.504,0.007c0.142-0.074,0.242-0.219,0.267-0.377
		C45.223,10.858,45.146,10.667,45.002,10.555z"/>
</g>
</svg>
