<?xml version="1.0" encoding="utf-8"?>
<!-- Generator: Adobe Illustrator 15.0.2, SVG Export Plug-In . SVG Version: 6.00 Build 0)  -->
<!DOCTYPE svg PUBLIC "-//W3C//DTD SVG 1.1//EN" "http://www.w3.org/Graphics/SVG/1.1/DTD/svg11.dtd">
<svg version="1.1" id="Calque_1" xmlns="http://www.w3.org/2000/svg" xmlns:xlink="http://www.w3.org/1999/xlink" x="0px" y="0px"
	 width="24px" height="24px" viewBox="28 0 24 24" enable-background="new 28 0 24 24" xml:space="preserve">
<g>
	<path fill="#2D2D2D" d="M42.652,8.682c0-0.251,0.008-0.504-0.01-0.755c-0.049-0.584-0.299-1.15-0.699-1.578
		c-0.393-0.425-0.928-0.716-1.499-0.811c-0.544-0.093-1.119-0.012-1.613,0.234c-0.75,0.362-1.305,1.098-1.443,1.92
		c-0.059,0.326-0.04,0.659-0.041,0.989c-0.698,0.005-1.396,0-2.095,0.002c-0.374,3.273-0.748,6.546-1.122,9.817h11.739
		c-0.373-3.271-0.748-6.544-1.121-9.816C44.049,8.682,43.353,8.686,42.652,8.682z M37.938,7.658c0.129-0.551,0.494-1.042,0.98-1.329
		c0.422-0.253,0.935-0.348,1.42-0.269c0.537,0.083,1.035,0.385,1.357,0.821c0.256,0.337,0.406,0.754,0.422,1.177
		c0.01,0.208,0.004,0.417,0.004,0.625c-1.414,0-2.829,0-4.243,0C37.883,8.34,37.854,7.993,37.938,7.658z M34.727,17.971
		c0.333-2.92,0.667-5.838,1.001-8.756c0.54,0,1.079,0,1.619,0c0.002,0.199,0,0.398,0.001,0.598c-0.091,0.064-0.175,0.145-0.218,0.25
		c-0.087,0.192-0.045,0.434,0.104,0.583c0.141,0.148,0.372,0.2,0.563,0.127c0.215-0.077,0.365-0.306,0.343-0.535
		c-0.008-0.175-0.117-0.331-0.262-0.424c0-0.2,0-0.399,0-0.599c1.415,0,2.83,0,4.246,0c0,0.2-0.002,0.399,0,0.599
		c-0.138,0.089-0.242,0.23-0.261,0.394c-0.026,0.193,0.063,0.395,0.226,0.504c0.168,0.12,0.406,0.125,0.58,0.014
		c0.182-0.109,0.278-0.334,0.24-0.541c-0.023-0.156-0.128-0.287-0.255-0.372c0-0.2-0.002-0.398,0-0.598c0.539,0,1.08,0,1.619,0
		c0.334,2.918,0.668,5.836,1,8.754C41.758,17.971,38.243,17.971,34.727,17.971z"/>
</g>
</svg>
