<?xml version="1.0" encoding="utf-8"?>
<!-- Generator: Adobe Illustrator 15.0.2, SVG Export Plug-In . SVG Version: 6.00 Build 0)  -->
<!DOCTYPE svg PUBLIC "-//W3C//DTD SVG 1.1//EN" "http://www.w3.org/Graphics/SVG/1.1/DTD/svg11.dtd">
<svg version="1.1" id="Calque_1" xmlns="http://www.w3.org/2000/svg" xmlns:xlink="http://www.w3.org/1999/xlink" x="0px" y="0px"
	 width="24px" height="24px" viewBox="28 0 24 24" enable-background="new 28 0 24 24" xml:space="preserve">
<g>
	<path fill="#808090" d="M43.148,7.093c0.796,0.055,1.479,0.347,1.988,0.854C45.701,8.512,46,9.291,46,10.201
		c0,2.108-1.678,3.483-3.458,4.943c-0.073,0.061-0.155,0.128-0.241,0.201l0.485-2.721l0.063-0.349l-0.31-0.174l-1.702-0.962
		l1.873-3.052c0.174-0.163,0.262-0.439,0.364-0.767C43.096,7.258,43.122,7.171,43.148,7.093 M42.878,6.584
		c-0.184,0-0.362,1.119-0.538,1.155l-2.199,3.582l2.153,1.217l-0.743,4.163c0.446-0.419,0.94-0.869,1.307-1.169
		c1.791-1.468,3.643-2.983,3.643-5.33C46.501,8.072,45.012,6.584,42.878,6.584L42.878,6.584z"/>
	<path fill="#808090" d="M37.124,7.085c0.392,0,0.932,0.685,1.326,1.184c0.136,0.172,0.268,0.338,0.396,0.484l-1.976,3.214
		l-0.271,0.441l0.451,0.255l2.262,1.281l-0.44,2.468c-0.457-0.43-1.007-0.935-1.416-1.271c-1.777-1.456-3.455-2.831-3.455-4.94
		C34,8.337,35.255,7.085,37.124,7.085 M37.124,6.585c-2.133,0-3.624,1.487-3.624,3.617c0,2.347,1.85,3.862,3.64,5.329
		c0.604,0.496,1.56,1.403,2.059,1.885l0.666-3.73l-2.569-1.455l2.182-3.548C38.878,8.176,38.053,6.585,37.124,6.585L37.124,6.585z"
		/>
</g>
</svg>
