<?xml version="1.0" encoding="utf-8"?>
<!-- Generator: Adobe Illustrator 15.0.2, SVG Export Plug-In . SVG Version: 6.00 Build 0)  -->
<!DOCTYPE svg PUBLIC "-//W3C//DTD SVG 1.1//EN" "http://www.w3.org/Graphics/SVG/1.1/DTD/svg11.dtd">
<svg version="1.1" id="Calque_1" xmlns="http://www.w3.org/2000/svg" xmlns:xlink="http://www.w3.org/1999/xlink" x="0px" y="0px"
	 width="24px" height="24px" viewBox="28 0 24 24" enable-background="new 28 0 24 24" xml:space="preserve">
<g>
	<path fill="#2D2D2D" d="M34.839,15.196c0.543-0.805,1.323-1.432,2.197-1.844c1.18-0.561,2.497-0.765,3.794-0.787
		c0.002,0.906,0,1.813,0.001,2.719c1.89-1.432,3.78-2.862,5.669-4.297c-1.889-1.434-3.779-2.863-5.669-4.295
		c-0.001,0.91,0.001,1.821-0.001,2.732c-1.431,0.025-2.89,0.353-4.1,1.14c-0.47,0.301-0.896,0.669-1.269,1.085
		c-0.686,0.768-1.176,1.694-1.492,2.67c-0.124,0.357-0.199,0.729-0.284,1.098c-0.104,0.561-0.177,1.126-0.185,1.695v0.156
		c0.173,0.014,0.346,0.023,0.519,0.039C34.119,16.554,34.415,15.827,34.839,15.196z M35.352,12.644
		c0.558-0.833,1.333-1.521,2.233-1.962c0.913-0.457,1.932-0.665,2.946-0.723c0.273-0.012,0.55-0.014,0.824-0.027
		c-0.002-0.729-0.002-1.457-0.002-2.186c1.428,1.081,2.854,2.16,4.278,3.241c-1.425,1.082-2.851,2.162-4.276,3.242
		c-0.002-0.732,0-1.467-0.002-2.2c-0.443,0.012-0.889,0.011-1.332,0.05c-1.434,0.111-2.883,0.482-4.083,1.3
		c-0.649,0.438-1.211,1.011-1.63,1.673C34.515,14.198,34.86,13.373,35.352,12.644z"/>
</g>
</svg>
