<?xml version="1.0" encoding="utf-8"?>
<!-- Generator: Adobe Illustrator 15.0.2, SVG Export Plug-In . SVG Version: 6.00 Build 0)  -->
<!DOCTYPE svg PUBLIC "-//W3C//DTD SVG 1.1//EN" "http://www.w3.org/Graphics/SVG/1.1/DTD/svg11.dtd">
<svg version="1.1" id="Calque_1" xmlns="http://www.w3.org/2000/svg" xmlns:xlink="http://www.w3.org/1999/xlink" x="0px" y="0px"
	 width="22px" height="18px" viewBox="0 0 22 18" enable-background="new 0 0 22 18" xml:space="preserve">
<rect x="2" y="1" fill="#EEEBE8" width="16" height="4.452"/>
<rect x="2" y="5.401" fill="#FFF5F5" width="16" height="11.599"/>
<g>
	<path fill="#006E12" d="M6.581,11.805c0.18-0.115,0.342-0.273,0.484-0.477c0.219-0.311,0.33-0.66,0.33-1.063
		c0-0.521-0.199-0.96-0.594-1.295C6.415,8.646,5.913,8.479,5.305,8.479c-0.696,0-1.204,0.203-1.508,0.603l-0.061,0.08l0.555,0.854
		l0.121-0.139c0.205-0.233,0.475-0.353,0.825-0.353c0.638,0,0.935,0.291,0.935,0.916c0,0.601-0.318,0.872-1.002,0.872H4.99v1.02
		h0.212c0.368,0,0.652,0.102,0.869,0.312c0.217,0.207,0.321,0.472,0.321,0.812c0,0.742-0.353,1.088-1.109,1.088
		c-0.411,0-0.741-0.146-1.01-0.438l-0.125-0.143l-0.591,0.951l0.085,0.08c0.178,0.166,0.411,0.309,0.714,0.422
		c0.297,0.117,0.605,0.182,0.913,0.182c0.729,0,1.308-0.188,1.718-0.537c0.417-0.365,0.628-0.88,0.628-1.534
		c0-0.452-0.122-0.846-0.362-1.163C7.075,12.125,6.85,11.938,6.581,11.805z"/>
	<path fill="#006E12" d="M10.87,8.57l-0.041,0.055C10.622,8.89,10.333,9.17,9.965,9.459c-0.372,0.293-0.727,0.526-1.054,0.697
		l-0.078,0.037v1.186l1.335-0.838v4.961h1.185V8.57H10.87z"/>
</g>
<path fill="#2AEDFF" d="M2,1v4.402v0.05V17h16V5.452v-0.05V1H2z M2.5,1.502h15v3.446h-15V1.502z M17.5,16.497h-15V5.452h15V16.497z"
	/>
</svg>
