<?xml version="1.0" encoding="utf-8"?>
<!-- Generator: Adobe Illustrator 15.0.2, SVG Export Plug-In . SVG Version: 6.00 Build 0)  -->
<!DOCTYPE svg PUBLIC "-//W3C//DTD SVG 1.1//EN" "http://www.w3.org/Graphics/SVG/1.1/DTD/svg11.dtd">
<svg version="1.1" id="Calque_1" xmlns="http://www.w3.org/2000/svg" xmlns:xlink="http://www.w3.org/1999/xlink" x="0px" y="0px"
	 width="280px" height="175px" viewBox="0 0 280 175" enable-background="new 0 0 280 175" xml:space="preserve">
<path fill="#006E12" d="M216.579,128.564c0,1.73-1.229,3.857-2.724,4.722l-71.13,41.063c-1.502,0.867-3.952,0.867-5.452,0
	l-71.13-41.063c-1.498-0.869-2.723-2.991-2.723-4.722V46.436c0-1.73,1.228-3.857,2.723-4.721l71.13-41.064
	c1.502-0.868,3.952-0.868,5.452,0l71.13,41.064c1.5,0.869,2.724,2.991,2.724,4.721V128.564z"/>
<g>
	<polygon fill="#FFF5F5" points="181.924,60.513 140.476,85.672 98.079,60.513 140.476,35.355 	"/>
	<polygon fill="#FFF5F5" points="183.727,64.122 183.727,114.639 142.279,139.495 142.279,89.282 	"/>
	<polygon fill="#FFF5F5" points="96.273,64.122 96.273,114.639 138.672,139.646 138.672,89.282 	"/>
</g>
</svg>
