<?xml version="1.0" encoding="utf-8"?>
<!-- Generator: Adobe Illustrator 15.0.2, SVG Export Plug-In . SVG Version: 6.00 Build 0)  -->
<!DOCTYPE svg PUBLIC "-//W3C//DTD SVG 1.1//EN" "http://www.w3.org/Graphics/SVG/1.1/DTD/svg11.dtd">
<svg version="1.1" id="Calque_1" xmlns="http://www.w3.org/2000/svg" xmlns:xlink="http://www.w3.org/1999/xlink" x="0px" y="0px"
	 width="150px" height="220px" viewBox="0 0 150 220" enable-background="new 0 0 150 220" xml:space="preserve">
<path fill="#006E12" d="M150,150.218c0,1.695-1.203,3.777-2.667,4.624L77.669,195.06c-1.47,0.849-3.87,0.849-5.338,0L2.667,154.842
	C1.2,153.99,0,151.913,0,150.218V69.783c0-1.695,1.202-3.778,2.667-4.624l69.664-40.218c1.47-0.85,3.87-0.85,5.338,0l69.664,40.218
	c1.469,0.851,2.667,2.929,2.667,4.624V150.218z"/>
<g>
	<polygon fill="#FFF5F5" points="116.059,83.568 75.467,108.21 33.942,83.568 75.467,58.93 	"/>
	<polygon fill="#FFF5F5" points="117.824,87.104 117.824,136.579 77.232,160.923 77.232,111.745 	"/>
	<polygon fill="#FFF5F5" points="32.175,87.104 32.175,136.579 73.699,161.07 73.699,111.745 	"/>
</g>
</svg>
