<?xml version="1.0" encoding="utf-8"?>
<!-- Generator: Adobe Illustrator 15.0.2, SVG Export Plug-In . SVG Version: 6.00 Build 0)  -->
<!DOCTYPE svg PUBLIC "-//W3C//DTD SVG 1.1//EN" "http://www.w3.org/Graphics/SVG/1.1/DTD/svg11.dtd">
<svg version="1.1" id="Calque_1" xmlns="http://www.w3.org/2000/svg" xmlns:xlink="http://www.w3.org/1999/xlink" x="0px" y="0px"
	 width="339.957px" height="219.973px" viewBox="0 0 339.957 219.973" enable-background="new 0 0 339.957 219.973"
	 xml:space="preserve">
<g>
	<path fill="#006E12" d="M266.249,161.609c0,2.179-1.544,4.85-3.424,5.933l-89.417,51.626c-1.892,1.093-4.968,1.093-6.854,0
		l-89.423-51.626c-1.88-1.09-3.424-3.754-3.424-5.933V58.363c0-2.179,1.544-4.851,3.424-5.934l89.423-51.625
		c1.889-1.091,4.968-1.091,6.854,0l89.417,51.625c1.886,1.086,3.424,3.755,3.424,5.934V161.609z"/>
	<g>
		<polygon fill="#FFF5F5" points="113.293,55.948 201.123,68.012 201.123,179.585 113.537,152.775 		"/>
		<polygon fill="#FFF5F5" points="224.29,166.559 224.29,62.066 204.168,68.012 204.168,179.585 		"/>
		<polygon fill="#FFF5F5" points="114.239,52.898 134.361,48.476 224.29,59.013 204.168,64.962 		"/>
	</g>
</g>
</svg>
