<?xml version="1.0" encoding="utf-8"?>
<!-- Generator: Adobe Illustrator 15.0.2, SVG Export Plug-In . SVG Version: 6.00 Build 0)  -->
<!DOCTYPE svg PUBLIC "-//W3C//DTD SVG 1.1//EN" "http://www.w3.org/Graphics/SVG/1.1/DTD/svg11.dtd">
<svg version="1.1" id="Calque_1" xmlns="http://www.w3.org/2000/svg" xmlns:xlink="http://www.w3.org/1999/xlink" x="0px" y="0px"
	 width="140px" height="140px" viewBox="0 0 140 140" enable-background="new 0 0 140 140" xml:space="preserve">
<g>
	<path fill="#EEEBE8" d="M34.017,105.985h71.969V46.577H34.017V105.985z M68.428,99.566c0.003,0.871-0.279,1.782-0.921,2.402
		c-0.612,0.65-1.529,0.961-2.408,0.954c-7.547-0.006-15.111-0.006-22.662,0c-0.742,0.031-1.53-0.043-2.193-0.424
		c-1.06-0.574-1.638-1.771-1.608-2.948c0.003-9.299,0-18.581,0.003-27.874c-0.017-1.41,0.945-2.792,2.345-3.115
		c0.623-0.174,1.267-0.137,1.911-0.137c7.401,0,14.813,0,22.218,0c0.927,0,1.877,0.341,2.489,1.054
		c0.597,0.629,0.833,1.5,0.827,2.343C68.428,81.074,68.428,90.327,68.428,99.566z M100.971,101.271
		c-0.536,1.014-1.662,1.637-2.79,1.651c-7.554,0.007-15.116-0.006-22.67,0c-0.502,0-1.023,0.031-1.516-0.111
		c-1.138-0.235-2.086-1.202-2.328-2.334c-0.138-0.555-0.096-1.125-0.096-1.692c0-8.725,0-17.453,0-26.179
		c0-0.561-0.045-1.125,0.083-1.683c0.221-1.122,1.132-2.077,2.238-2.35c0.626-0.183,1.28-0.143,1.928-0.143
		c7.086,0,14.19,0,21.278,0c0.934-0.019,1.938-0.037,2.756,0.487c0.961,0.573,1.491,1.664,1.497,2.768
		c0.006,9.031,0,18.063,0.003,27.099C101.386,99.625,101.38,100.506,100.971,101.271z M38.644,52.841
		c-0.003-0.846,0.664-1.612,1.533-1.643c19.738-0.05,39.478,0,59.219-0.022c0.707-0.046,1.476,0.242,1.789,0.912
		c0.232,0.576,0.17,1.215,0.173,1.832c0,2.647,0,5.313,0,7.969c-0.009,0.508-0.12,1.084-0.545,1.41
		c-0.325,0.338-0.824,0.378-1.256,0.421c-19.713,0.006-39.412,0-59.116,0.006c-0.645,0.012-1.282-0.273-1.6-0.843
		c-0.146-0.366-0.22-0.753-0.206-1.144C38.653,58.78,38.632,55.804,38.644,52.841z"/>
	<path fill="#EEEBE8" d="M74.724,71.568c-0.044,9.404-0.007,18.789-0.019,28.193c0.573,0.059,1.152,0.024,1.723,0.037
		c4.897,0,9.808,0,14.705,0c2.361-0.024,4.729,0.037,7.092-0.037c-0.019-9.397,0.024-18.789-0.019-28.193
		C90.379,71.568,82.55,71.568,74.724,71.568z"/>
	<path fill="#EEEBE8" d="M41.806,71.568c-0.058,0.955-0.014,1.915-0.021,2.87c-0.003,8.443,0,16.887-0.006,25.323
		c0.159,0.019,0.333,0.024,0.508,0.037c5.101,0,10.214,0,15.324,0c2.561-0.024,5.129,0.037,7.688-0.037
		c-0.013-9.397,0.037-18.789-0.016-28.193C57.452,71.568,49.629,71.568,41.806,71.568z"/>
	<path fill="#EEEBE8" d="M98.218,54.323c-18.817-0.006-37.623-0.006-56.433,0c-0.003,2.089-0.003,4.172,0,6.27
		c18.81,0,37.615,0,56.433,0C98.225,58.5,98.225,56.412,98.218,54.323z"/>
	<rect x="34.017" y="34.014" fill="#EEEBE8" width="71.969" height="9.345"/>
	<path fill="#EEEBE8" d="M70.002,0C31.34,0,0,31.339,0,70c0,38.657,31.34,70,70.002,70C108.663,140,140,108.657,140,70
		C140,31.339,108.663,0,70.002,0z M109.203,43.359v3.217v59.558c0,1.686-1.38,3.062-3.063,3.062H33.867
		c-1.686,0-3.066-1.376-3.066-3.062V46.577v-3.217v-9.5c0-1.686,1.381-3.063,3.066-3.063h72.273c1.683,0,3.063,1.376,3.063,3.063
		V43.359z"/>
</g>
</svg>
