<?xml version="1.0" encoding="utf-8"?>
<!-- Generator: Adobe Illustrator 15.0.2, SVG Export Plug-In . SVG Version: 6.00 Build 0)  -->
<!DOCTYPE svg PUBLIC "-//W3C//DTD SVG 1.1//EN" "http://www.w3.org/Graphics/SVG/1.1/DTD/svg11.dtd">
<svg version="1.1" id="Calque_1" xmlns="http://www.w3.org/2000/svg" xmlns:xlink="http://www.w3.org/1999/xlink" x="0px" y="0px"
	 width="140px" height="140px" viewBox="0 0 140 140" enable-background="new 0 0 140 140" xml:space="preserve">
<g>
	<path fill="#EEEBE8" d="M67.086,67.316c-18.889,2.585-14.351,28.596-26.39,38.05c0.319,0,0.62,0,0.93,0
		c1.125-0.713,3.57-0.112,5.213-0.311c18.802-0.737,32.939-6.131,34.368-24.241c0-1.23,0-2.452,0-3.68
		C74.587,75.771,70.731,71.643,67.086,67.316z"/>
	<path fill="#EEEBE8" d="M70,0C31.343,0,0,31.339,0,70c0,38.664,31.343,70,70,70c38.67,0,70-31.336,70-70C140,31.339,108.67,0,70,0z
		 M109.126,33.258c-1.873,3.193-4.324,7.098-6.444,11.047c-4.956,9.212-10.216,18.275-15.337,27.617
		c-1.109,2.005-2.863,4.398-3.071,5.523c-0.369,1.965,0.515,4.289,0.307,6.134c-2.126,18.672-18.29,24.154-38.354,25.156
		c-4.274,0.176-12.085,1.236-15.349-0.611c0-0.096,0-0.201,0-0.304c0.657-3.552,4.175-3.279,6.146-4.605
		c14.053-9.47,7.795-38.502,30.069-39.582c4.98-8.833,11.412-17.611,17.184-25.77c1.729-2.448,3.242-6.974,7.055-6.75
		c0.465,3.434-2.424,6.224-4.293,8.896c-3.84,5.493-7.498,10.65-11.354,16.267c-1.59,2.318-5.412,6.205-5.22,8.896
		c0.205,2.833,8.264,9.524,11.664,8.598c1.193-0.334,2.398-3.477,3.375-5.219c6.472-11.583,12.33-22.261,18.405-33.134
		c0.964-1.717,1.686-4.699,4.299-4.606c0.177,0.44,0.483,0.744,0.918,0.92C109.126,32.235,109.126,32.744,109.126,33.258z"/>
</g>
</svg>
