<?xml version="1.0" encoding="utf-8"?>
<!-- Generator: Adobe Illustrator 15.0.2, SVG Export Plug-In . SVG Version: 6.00 Build 0)  -->
<!DOCTYPE svg PUBLIC "-//W3C//DTD SVG 1.1//EN" "http://www.w3.org/Graphics/SVG/1.1/DTD/svg11.dtd">
<svg version="1.1" id="Calque_1" xmlns="http://www.w3.org/2000/svg" xmlns:xlink="http://www.w3.org/1999/xlink" x="0px" y="0px"
	 width="140px" height="140px" viewBox="0 0 140 140" enable-background="new 0 0 140 140" xml:space="preserve">
<g>
	<path fill="#EEEBE8" d="M28.445,44.461c-0.003,20.308,0,40.622-0.003,60.937c27.48,0,54.954,0,82.44,0
		c0-20.314,0-40.628-0.006-60.937C83.396,44.461,55.918,44.461,28.445,44.461z M54.277,76.882c0.421,0.292,0.863,0.682,0.942,1.222
		c0.287,0.914-0.397,1.989-1.348,2.12c-0.49,0.151-1-0.068-1.441-0.273c-4.053-2.312-8.099-4.637-12.153-6.942
		c-0.724-0.403-1.244-1.268-0.978-2.096c0.093-0.583,0.593-0.967,1.054-1.274c4.048-2.309,8.097-4.621,12.144-6.934
		c0.702-0.384,1.685-0.396,2.25,0.223c0.629,0.558,0.693,1.578,0.225,2.257c-0.25,0.272-0.522,0.539-0.855,0.719
		c-3.179,1.81-6.348,3.633-9.526,5.449C47.827,73.19,51.056,75.041,54.277,76.882z M78.288,54.6
		C72.984,67.546,67.7,80.499,62.396,93.439c-0.248,0.44-0.572,0.915-1.086,1.045c-0.854,0.375-1.966-0.146-2.244-1.023
		c-0.234-0.486-0.085-1.05,0.074-1.534c5.252-12.838,10.507-25.67,15.75-38.515c0.232-0.645,0.602-1.379,1.305-1.612
		c0.84-0.384,1.95,0.096,2.247,0.974C78.734,53.354,78.511,54.029,78.288,54.6z M99.033,73.008
		c-3.865,2.213-7.733,4.42-11.602,6.633c-0.419,0.235-0.828,0.527-1.324,0.589c-0.89,0.224-1.899-0.452-2.026-1.37
		c-0.218-0.787,0.288-1.581,0.957-1.971c3.218-1.854,6.45-3.686,9.677-5.533c-3.242-1.863-6.49-3.716-9.726-5.57
		c-0.729-0.446-1.182-1.37-0.844-2.188c0.298-1.035,1.637-1.469,2.555-0.945c4.066,2.291,8.096,4.631,12.149,6.928
		c0.57,0.313,1.129,0.806,1.203,1.488C100.232,71.854,99.702,72.617,99.033,73.008z"/>
	<path fill="#EEEBE8" d="M110.852,35.373c-0.034-1.004-1.011-1.736-1.978-1.655c-26.147-0.006-52.289-0.006-78.429,0
		c-0.972-0.081-1.946,0.657-1.978,1.658c-0.057,1.832-0.014,3.673-0.023,5.508c27.477,0,54.951,0,82.431-0.006
		C110.863,39.043,110.907,37.208,110.852,35.373z"/>
	<path fill="#EEEBE8" d="M69.659-0.445c-38.662,0-70.001,31.339-70.001,70c0,38.664,31.342,70,70.001,70c38.657,0,70-31.336,70-70
		C139.658,30.894,108.322-0.445,69.659-0.445z M114.459,108.98c-29.867,0-59.73,0-89.597,0V35.404
		c0.042-1.571,0.781-3.105,2.019-4.082c0.994-0.824,2.297-1.215,3.577-1.19c26.134,0,52.269,0,78.404,0
		c1.286-0.028,2.582,0.369,3.583,1.193c1.24,0.979,1.978,2.523,2.015,4.094V108.98L114.459,108.98z"/>
</g>
</svg>
