<?xml version="1.0" encoding="utf-8"?>
<!-- Generator: Adobe Illustrator 15.0.2, SVG Export Plug-In . SVG Version: 6.00 Build 0)  -->
<!DOCTYPE svg PUBLIC "-//W3C//DTD SVG 1.1//EN" "http://www.w3.org/Graphics/SVG/1.1/DTD/svg11.dtd">
<svg version="1.1" id="Calque_1" xmlns="http://www.w3.org/2000/svg" xmlns:xlink="http://www.w3.org/1999/xlink" x="0px" y="0px"
	 width="24px" height="24px" viewBox="0 0 24 24" enable-background="new 0 0 24 24" xml:space="preserve">
<g>
	<path fill="#FFFBFF" d="M8.543,14.503c-1.78,1.777-3.559,3.556-5.339,5.337c0.387,0.386,0.775,0.773,1.16,1.16
		c1.797-1.796,3.593-3.593,5.389-5.388c1.459,1.063,3.342,1.52,5.125,1.235c2.036-0.288,3.903-1.554,4.941-3.327
		c1.052-1.74,1.266-3.953,0.582-5.866c-0.608-1.764-1.968-3.249-3.667-4.021c-1.677-0.781-3.674-0.843-5.398-0.171
		C9.522,4.146,8.034,5.632,7.34,7.44c-0.631,1.605-0.63,3.449,0.001,5.055C7.623,13.228,8.038,13.905,8.543,14.503z M8.546,13.098
		c-0.955-1.584-1.123-3.611-0.452-5.332c0.607-1.607,1.926-2.928,3.532-3.536c0.913-0.356,1.912-0.476,2.884-0.374
		c1.443,0.159,2.822,0.846,3.809,1.912c1.126,1.188,1.738,2.847,1.647,4.482c-0.063,1.831-1.023,3.601-2.507,4.671
		c-1.308,0.974-3.02,1.376-4.626,1.104C11.065,15.753,9.451,14.643,8.546,13.098z"/>
</g>
</svg>
