<?xml version="1.0" encoding="utf-8"?>
<!-- Generator: Adobe Illustrator 15.0.2, SVG Export Plug-In . SVG Version: 6.00 Build 0)  -->
<!DOCTYPE svg PUBLIC "-//W3C//DTD SVG 1.1//EN" "http://www.w3.org/Graphics/SVG/1.1/DTD/svg11.dtd">
<svg version="1.1" id="Calque_1" xmlns="http://www.w3.org/2000/svg" xmlns:xlink="http://www.w3.org/1999/xlink" x="0px" y="0px"
	 width="280px" height="365px" viewBox="0 0 280 365" enable-background="new 0 0 280 365" xml:space="preserve">
<path fill="#006E12" d="M280,257.571c0,3.169-2.245,7.052-4.979,8.627l-130.032,75.076c-2.752,1.589-7.225,1.589-9.967,0
	L4.979,266.198C2.246,264.614,0,260.74,0,257.571V107.427c0-3.168,2.246-7.054,4.979-8.629l130.042-75.075
	c2.747-1.586,7.224-1.586,9.967,0l130.032,75.075c2.743,1.58,4.979,5.46,4.979,8.629V257.571z"/>
<g>
	<polygon fill="#FFF5F5" points="59.292,98.033 187.018,115.577 187.018,277.832 59.647,238.844 	"/>
	<polygon fill="#FFF5F5" points="220.708,258.888 220.708,106.93 191.446,115.577 191.446,277.832 	"/>
	<polygon fill="#FFF5F5" points="60.668,93.597 89.93,87.167 220.708,102.49 191.446,111.142 	"/>
</g>
</svg>
