<?xml version="1.0" encoding="utf-8"?>
<!-- Generator: Adobe Illustrator 15.0.2, SVG Export Plug-In . SVG Version: 6.00 Build 0)  -->
<!DOCTYPE svg PUBLIC "-//W3C//DTD SVG 1.1//EN" "http://www.w3.org/Graphics/SVG/1.1/DTD/svg11.dtd">
<svg version="1.1" id="Calque_1" xmlns="http://www.w3.org/2000/svg" xmlns:xlink="http://www.w3.org/1999/xlink" x="0px" y="0px"
	 width="280px" height="175px" viewBox="0 0 280 175" enable-background="new 0 0 280 175" xml:space="preserve">
<path fill="#006E12" d="M216.19,128.412c0,1.733-1.229,3.857-2.724,4.72l-71.127,41.066c-1.505,0.868-3.952,0.868-5.452,0
	l-71.132-41.066c-1.495-0.867-2.724-2.986-2.724-4.72V46.285c0-1.733,1.229-3.858,2.724-4.72L136.888,0.5
	c1.502-0.868,3.952-0.868,5.452,0l71.127,41.065c1.5,0.864,2.724,2.987,2.724,4.72V128.412z"/>
<g>
	<polygon fill="#FFF5F5" points="94.521,44.363 164.385,53.96 164.385,142.712 94.714,121.386 	"/>
	<polygon fill="#FFF5F5" points="182.813,132.35 182.813,49.23 166.808,53.96 166.808,142.712 	"/>
	<polygon fill="#FFF5F5" points="95.273,41.937 111.279,38.42 182.813,46.802 166.808,51.534 	"/>
</g>
</svg>
