<?xml version="1.0" encoding="utf-8"?>
<!-- Generator: Adobe Illustrator 15.0.2, SVG Export Plug-In . SVG Version: 6.00 Build 0)  -->
<!DOCTYPE svg PUBLIC "-//W3C//DTD SVG 1.1//EN" "http://www.w3.org/Graphics/SVG/1.1/DTD/svg11.dtd">
<svg version="1.1" id="Calque_1" xmlns="http://www.w3.org/2000/svg" xmlns:xlink="http://www.w3.org/1999/xlink" x="0px" y="0px"
	 width="35px" height="35px" viewBox="0 0 35 35" enable-background="new 0 0 35 35" xml:space="preserve">
<g>
	<path fill="#FFFBFF" d="M12.699,20.977c-2.472,2.469-4.943,4.938-7.415,7.412C5.821,28.924,6.36,29.463,6.896,30
		c2.496-2.494,4.99-4.99,7.484-7.483c2.026,1.476,4.643,2.11,7.117,1.716c2.828-0.399,5.421-2.157,6.863-4.62
		c1.461-2.417,1.758-5.491,0.808-8.147c-0.844-2.45-2.732-4.513-5.092-5.584c-2.329-1.084-5.104-1.171-7.498-0.238
		c-2.52,0.95-4.587,3.013-5.551,5.525c-0.877,2.229-0.875,4.791,0.002,7.021C11.42,19.205,11.997,20.146,12.699,20.977z
		 M12.703,19.024c-1.326-2.2-1.56-5.015-0.628-7.405c0.844-2.232,2.675-4.067,4.906-4.911c1.268-0.495,2.655-0.66,4.006-0.52
		c2.004,0.221,3.92,1.175,5.289,2.656c1.564,1.65,2.415,3.954,2.288,6.226c-0.087,2.543-1.421,5.001-3.481,6.488
		c-1.816,1.352-4.193,1.911-6.425,1.534C16.201,22.712,13.959,21.17,12.703,19.024z"/>
</g>
</svg>
