<?xml version="1.0" encoding="utf-8"?>
<!-- Generator: Adobe Illustrator 15.0.2, SVG Export Plug-In . SVG Version: 6.00 Build 0)  -->
<!DOCTYPE svg PUBLIC "-//W3C//DTD SVG 1.1//EN" "http://www.w3.org/Graphics/SVG/1.1/DTD/svg11.dtd">
<svg version="1.1" id="Calque_1" xmlns="http://www.w3.org/2000/svg" xmlns:xlink="http://www.w3.org/1999/xlink" x="0px" y="0px"
	 width="150px" height="220px" viewBox="0 0 150 220" enable-background="new 0 0 150 220" xml:space="preserve">
<path fill="#006E12" d="M150,150.218c0,1.697-1.203,3.777-2.667,4.621l-69.661,40.22c-1.474,0.851-3.87,0.851-5.339,0l-69.665-40.22
	C1.203,153.99,0,151.915,0,150.218V69.782c0-1.697,1.203-3.779,2.667-4.623l69.665-40.219c1.472-0.85,3.871-0.85,5.339,0
	l69.661,40.219c1.469,0.846,2.667,2.925,2.667,4.623V150.218z"/>
<g>
	<polygon fill="#FFF5F5" points="31.764,64.75 100.188,74.149 100.188,161.07 31.954,140.184 	"/>
	<polygon fill="#FFF5F5" points="118.236,150.922 118.236,69.517 102.561,74.149 102.561,161.07 	"/>
	<polygon fill="#FFF5F5" points="32.5,62.374 48.177,58.929 118.236,67.138 102.561,71.773 	"/>
</g>
</svg>
