<?xml version="1.0" encoding="utf-8"?>
<!-- Generator: Adobe Illustrator 15.0.2, SVG Export Plug-In . SVG Version: 6.00 Build 0)  -->
<!DOCTYPE svg PUBLIC "-//W3C//DTD SVG 1.1//EN" "http://www.w3.org/Graphics/SVG/1.1/DTD/svg11.dtd">
<svg version="1.1" id="Calque_1" xmlns="http://www.w3.org/2000/svg" xmlns:xlink="http://www.w3.org/1999/xlink" x="0px" y="0px"
	 width="92px" height="56px" viewBox="0 0 92 56" enable-background="new 0 0 92 56" xml:space="preserve">
<path fill="#FFFBFF" d="M57.651,39.25v-0.003c-0.006-0.002-0.013-0.002-0.019-0.004c-0.406-0.162-0.841-0.264-1.295-0.301
	c-2.263-0.536-4.493-1.022-6.757-1.468c-2.693-0.524-5.404-0.993-8.158-1.33c-0.482-0.058-0.97-0.104-1.456-0.152
	c0.63-2.308,1.475-4.622,2.454-6.909c1.566-3.647,3.439-7.229,5.478-10.744c0.017-0.029,0.034-0.058,0.053-0.087
	c0.297-0.471,0.472-1.027,0.472-1.628c0-1.679-1.34-3.038-2.993-3.038c-0.872,0-1.649,0.384-2.197,0.986
	c-0.198,0.217-0.36,0.463-0.489,0.731c-2.311,3.5-4.482,7.124-6.401,10.958c-0.615,1.236-1.201,2.495-1.749,3.784
	c-0.272-0.51-0.547-1.015-0.825-1.517c-2.336-4.22-4.809-8.278-7.335-12.294c-1.428-2.263-2.877-4.506-4.337-6.74
	c-0.036-0.054-0.073-0.109-0.108-0.164c-0.56-0.787-1.465-1.303-2.493-1.303c-1.701,0-3.08,1.397-3.08,3.123
	c0,0.421,0.085,0.822,0.234,1.189c0.111,0.205,0.226,0.408,0.336,0.613c1.206,2.217,2.398,4.438,3.566,6.669
	c2.158,4.129,4.251,8.287,6.142,12.46c0.939,2.084,1.832,4.178,2.581,6.234c0.372,1.023,0.577,2.044,0.826,2.995
	c0.124,0.473,0.208,0.849,0.273,1.244c0.063,0.389,0.208,0.968,0.208,0.968c0.653,2.491,2.021,4.433,4.514,4.433
	c2.493,0,4.512-2.019,4.517-4.51c0-0.001,0-0.001,0-0.002s0-0.003,0-0.005c0-0.179-0.014-0.355-0.034-0.531
	c-0.064-0.839-0.204-1.516-0.354-2.142c-0.043-0.177-0.094-0.336-0.14-0.504c0.008-0.072,0.015-0.144,0.025-0.215
	c0.388,0.155,0.775,0.309,1.16,0.473c2.394,1.021,4.761,2.171,7.104,3.372c1.975,1.018,3.961,2.084,5.88,3.169
	c0.313,0.235,0.653,0.431,1.021,0.58c0.003,0.002,0.009,0.005,0.013,0.007l0.002-0.002c0.519,0.207,1.085,0.326,1.678,0.326
	c2.498,0,4.524-2.026,4.524-4.525C60.494,41.543,59.315,39.916,57.651,39.25z"/>
</svg>
