<?xml version="1.0" encoding="utf-8"?>
<!-- Generator: Adobe Illustrator 15.0.2, SVG Export Plug-In . SVG Version: 6.00 Build 0)  -->
<!DOCTYPE svg PUBLIC "-//W3C//DTD SVG 1.1//EN" "http://www.w3.org/Graphics/SVG/1.1/DTD/svg11.dtd">
<svg version="1.1" id="Calque_1" xmlns="http://www.w3.org/2000/svg" xmlns:xlink="http://www.w3.org/1999/xlink" x="0px" y="0px"
	 width="80px" height="80px" viewBox="0 0 80 80" enable-background="new 0 0 80 80" xml:space="preserve">
<g display="none">
	<path display="inline" d="M41.5,2.333c-13.439,0-24.333,10.895-24.333,24.334c0,4.211,1.07,8.172,2.953,11.627l0,0l21.382,39.373
		L61.955,40H41.5V2.333z"/>
	<path display="inline" d="M67.835,24.334C67.835,10.895,56.939,0,43.5,0v37.667h20.455l0.927-1.706
		C66.766,32.506,67.835,28.545,67.835,24.334z"/>
</g>
<path fill="#FFFBFF" d="M67.872,56.339v-0.004c-0.01-0.002-0.023-0.005-0.028-0.007c-0.584-0.234-1.218-0.389-1.875-0.438
	c-3.286-0.784-6.527-1.483-9.813-2.131c-3.914-0.763-7.846-1.445-11.845-1.93c-0.703-0.09-1.405-0.157-2.112-0.229
	c0.909-3.345,2.145-6.705,3.562-10.024c2.271-5.302,4.99-10.499,7.958-15.604c0.014-0.045,0.05-0.082,0.065-0.127
	c0.435-0.685,0.688-1.491,0.688-2.362c0-2.437-1.94-4.411-4.342-4.411c-1.267,0-2.396,0.557-3.188,1.432
	c-0.285,0.315-0.529,0.67-0.716,1.063c-3.349,5.08-6.502,10.345-9.291,15.913c-0.889,1.789-1.741,3.615-2.541,5.489
	C34,42.229,33.602,41.5,33.2,40.771c-3.395-6.131-6.986-12.022-10.653-17.851c-2.072-3.285-4.179-6.547-6.295-9.787
	c-0.05-0.085-0.106-0.16-0.158-0.243c-0.815-1.137-2.129-1.887-3.621-1.887C10.004,11.004,8,13.032,8,15.538
	c0,0.607,0.123,1.194,0.339,1.727c0.163,0.293,0.331,0.592,0.489,0.886c1.75,3.221,3.482,6.447,5.181,9.683
	c3.131,5.995,6.17,12.033,8.913,18.094c1.37,3.031,2.66,6.067,3.75,9.046c0.54,1.496,0.843,2.975,1.203,4.358
	c0.178,0.688,0.301,1.23,0.395,1.806c0.093,0.565,0.308,1.399,0.308,1.399c0.944,3.62,2.934,6.435,6.551,6.435
	c3.619,0,6.55-2.93,6.558-6.544c0-0.004,0-0.004,0-0.007c0-0.002,0-0.004,0-0.006c0-0.258-0.024-0.508-0.049-0.761
	c-0.096-1.229-0.293-2.205-0.516-3.122c-0.062-0.25-0.138-0.485-0.205-0.729c0.014-0.1,0.024-0.209,0.044-0.313
	c0.563,0.229,1.125,0.45,1.685,0.685c3.469,1.481,6.908,3.159,10.316,4.903c2.866,1.471,5.752,3.017,8.529,4.597
	c0.457,0.346,0.951,0.626,1.479,0.847c0.007,0.005,0.015,0.009,0.021,0.01l0.003-0.001c0.755,0.299,1.576,0.466,2.438,0.466
	c3.628,0,6.569-2.939,6.569-6.569C72,59.66,70.285,57.302,67.872,56.339z"/>
</svg>
