<?xml version="1.0" encoding="utf-8"?>
<!-- Generator: Adobe Illustrator 15.0.2, SVG Export Plug-In . SVG Version: 6.00 Build 0)  -->
<!DOCTYPE svg PUBLIC "-//W3C//DTD SVG 1.1//EN" "http://www.w3.org/Graphics/SVG/1.1/DTD/svg11.dtd">
<svg version="1.1" id="Calque_1" xmlns="http://www.w3.org/2000/svg" xmlns:xlink="http://www.w3.org/1999/xlink" x="0px" y="0px"
	 width="205px" height="205px" viewBox="0 0 205 205" enable-background="new 0 0 205 205" xml:space="preserve">
<path fill="#FFFBFF" d="M182.801,144.73v-0.007c-0.02-0.007-0.046-0.011-0.066-0.017c-1.525-0.604-3.159-0.992-4.863-1.131
	c-8.491-2.011-16.871-3.837-25.368-5.51c-10.113-1.966-20.286-3.727-30.624-4.993c-1.811-0.216-3.644-0.393-5.466-0.572
	c2.362-8.661,5.538-17.351,9.206-25.937c5.88-13.696,12.912-27.143,20.57-40.337c0.062-0.11,0.128-0.219,0.194-0.329
	c1.112-1.768,1.776-3.857,1.776-6.111c0-6.298-5.031-11.403-11.237-11.403c-3.271,0-6.189,1.441-8.246,3.704
	c-0.741,0.814-1.354,1.738-1.837,2.746c-8.672,13.142-16.824,26.746-24.03,41.141c-2.307,4.638-4.506,9.367-6.565,14.204
	c-1.023-1.909-2.057-3.81-3.098-5.696c-8.769-15.839-18.055-31.075-27.537-46.15C60.249,49.84,54.81,41.418,49.329,33.033
	c-0.136-0.207-0.273-0.411-0.409-0.618c-2.1-2.952-5.498-4.891-9.358-4.891C33.177,27.524,28,32.771,28,39.248
	c0,1.581,0.319,3.086,0.878,4.463c0.417,0.768,0.848,1.53,1.266,2.3c4.526,8.324,9.001,16.666,13.39,25.039
	c8.098,15.501,15.96,31.107,23.057,46.775c3.528,7.828,6.876,15.688,9.691,23.404c1.395,3.845,2.166,7.672,3.102,11.244
	c0.464,1.779,0.784,3.19,1.026,4.673c0.24,1.457,0.783,3.635,0.783,3.635c2.45,9.35,7.588,16.639,16.943,16.639
	c9.359,0,16.941-7.578,16.956-16.928c0-0.005,0-0.008,0-0.01c0-0.006,0-0.01,0-0.016c0-0.677-0.051-1.338-0.127-1.993
	c-0.24-3.156-0.765-5.689-1.327-8.047c-0.163-0.662-0.352-1.261-0.525-1.891c0.031-0.271,0.057-0.535,0.098-0.809
	c1.455,0.585,2.909,1.161,4.358,1.774c8.986,3.835,17.871,8.156,26.669,12.661c7.415,3.818,14.871,7.824,22.072,11.896
	c1.174,0.881,2.454,1.62,3.831,2.176c0.017,0.009,0.03,0.02,0.046,0.026l0.007-0.008c1.948,0.779,4.071,1.223,6.302,1.223
	c9.378,0,16.983-7.604,16.983-16.984C193.478,153.342,189.052,147.235,182.801,144.73z"/>
</svg>
