<?xml version="1.0" encoding="utf-8"?>
<!-- Generator: Adobe Illustrator 15.0.2, SVG Export Plug-In . SVG Version: 6.00 Build 0)  -->
<!DOCTYPE svg PUBLIC "-//W3C//DTD SVG 1.1//EN" "http://www.w3.org/Graphics/SVG/1.1/DTD/svg11.dtd">
<svg version="1.1" id="Calque_1" xmlns="http://www.w3.org/2000/svg" xmlns:xlink="http://www.w3.org/1999/xlink" x="0px" y="0px"
	 width="80px" height="80px" viewBox="0 0 80 80" enable-background="new 0 0 80 80" xml:space="preserve">
<path fill="#FFFBFF" d="M66.131,55.315v-0.004c-0.008-0.003-0.016-0.003-0.024-0.005c-0.551-0.222-1.145-0.36-1.763-0.411
	c-3.08-0.729-6.117-1.391-9.199-1.997c-3.666-0.714-7.356-1.354-11.104-1.811c-0.658-0.079-1.32-0.142-1.982-0.208
	c0.857-3.142,2.008-6.291,3.34-9.404c2.133-4.965,4.682-9.841,7.458-14.626c0.021-0.039,0.045-0.079,0.071-0.118
	c0.404-0.641,0.642-1.398,0.642-2.217c0-2.286-1.823-4.135-4.074-4.135c-1.186,0-2.244,0.523-2.991,1.342
	c-0.269,0.295-0.488,0.631-0.665,0.996c-3.145,4.765-6.101,9.697-8.713,14.917c-0.838,1.683-1.635,3.397-2.381,5.152
	c-0.369-0.695-0.744-1.384-1.122-2.067c-3.18-5.744-6.546-11.267-9.985-16.735c-1.944-3.08-3.917-6.134-5.904-9.175
	c-0.049-0.074-0.1-0.149-0.148-0.223c-0.762-1.071-1.994-1.774-3.394-1.774c-2.315,0-4.192,1.902-4.192,4.251
	c0,0.573,0.115,1.119,0.318,1.619c0.151,0.28,0.308,0.555,0.458,0.834c1.642,3.017,3.265,6.042,4.854,9.078
	c2.938,5.621,5.787,11.282,8.36,16.961c1.278,2.836,2.494,5.688,3.514,8.484c0.506,1.394,0.785,2.784,1.125,4.079
	c0.168,0.642,0.283,1.154,0.372,1.693c0.085,0.529,0.283,1.315,0.283,1.315c0.889,3.393,2.75,6.037,6.145,6.037
	c3.393,0,6.141-2.75,6.148-6.14c0-0.004,0-0.004,0-0.004c0-0.003,0-0.005,0-0.008c0-0.243-0.018-0.483-0.047-0.722
	c-0.086-1.142-0.277-2.064-0.483-2.916c-0.059-0.241-0.127-0.456-0.188-0.687c0.01-0.098,0.019-0.196,0.032-0.293
	c0.528,0.211,1.056,0.422,1.579,0.645c3.261,1.39,6.481,2.953,9.672,4.588c2.688,1.388,5.391,2.838,8.004,4.315
	c0.425,0.319,0.89,0.586,1.391,0.79c0.003,0.003,0.013,0.006,0.018,0.009l0.003-0.003c0.704,0.282,1.477,0.444,2.283,0.444
	c3.4,0,6.16-2.758,6.16-6.16C70.003,58.437,68.396,56.222,66.131,55.315z"/>
</svg>
