<?xml version="1.0" encoding="utf-8"?>
<!-- Generator: Adobe Illustrator 15.0.2, SVG Export Plug-In . SVG Version: 6.00 Build 0)  -->
<!DOCTYPE svg PUBLIC "-//W3C//DTD SVG 1.1//EN" "http://www.w3.org/Graphics/SVG/1.1/DTD/svg11.dtd">
<svg version="1.1" id="Calque_1" xmlns="http://www.w3.org/2000/svg" xmlns:xlink="http://www.w3.org/1999/xlink" x="0px" y="0px"
	 width="1016px" height="286px" viewBox="0 0 1016 286" enable-background="new 0 0 1016 286" xml:space="preserve">
<g opacity="0.02">
	<polygon fill="#FFFBFF" points="664.318,248.247 628.527,269.975 591.915,248.247 628.527,226.521 	"/>
	<polygon fill="#FFFBFF" points="665.875,251.363 665.875,294.988 630.084,316.451 630.084,273.092 	"/>
	<polygon fill="#FFFBFF" points="590.356,251.363 590.356,294.988 626.97,316.582 626.97,273.092 	"/>
</g>
<g opacity="0.02">
	<polygon fill="#FFFBFF" points="743.673,248.247 707.882,269.975 671.269,248.247 707.882,226.521 	"/>
	<polygon fill="#FFFBFF" points="745.229,251.363 745.229,294.988 709.439,316.451 709.439,273.092 	"/>
	<polygon fill="#FFFBFF" points="669.711,251.363 669.711,294.988 706.323,316.582 706.323,273.092 	"/>
</g>
<g opacity="0.02">
	<polygon fill="#FFFBFF" points="823.027,248.247 787.236,269.975 750.623,248.247 787.236,226.521 	"/>
	<polygon fill="#FFFBFF" points="824.584,251.363 824.584,294.988 788.794,316.451 788.794,273.092 	"/>
	<polygon fill="#FFFBFF" points="749.065,251.363 749.065,294.988 785.678,316.582 785.678,273.092 	"/>
</g>
<g opacity="0.02">
	<polygon fill="#FFFBFF" points="902.381,248.247 866.591,269.975 829.978,248.247 866.591,226.521 	"/>
	<polygon fill="#FFFBFF" points="903.938,251.363 903.938,294.988 868.147,316.451 868.147,273.092 	"/>
	<polygon fill="#FFFBFF" points="828.42,251.363 828.42,294.988 865.032,316.582 865.032,273.092 	"/>
</g>
<g opacity="0.02">
	<polygon fill="#FFFBFF" points="981.735,248.247 945.945,269.975 909.332,248.247 945.945,226.521 	"/>
	<polygon fill="#FFFBFF" points="983.293,251.363 983.293,294.988 947.502,316.451 947.502,273.092 	"/>
	<polygon fill="#FFFBFF" points="907.774,251.363 907.774,294.988 944.387,316.582 944.387,273.092 	"/>
</g>
<g opacity="0.02">
	<polygon fill="#FFFBFF" points="1061.091,248.247 1025.3,269.975 988.687,248.247 1025.3,226.521 	"/>
	<polygon fill="#FFFBFF" points="1062.647,251.363 1062.647,294.988 1026.856,316.451 1026.856,273.092 	"/>
	<polygon fill="#FFFBFF" points="987.129,251.363 987.129,294.988 1023.741,316.582 1023.741,273.092 	"/>
</g>
<g opacity="0.02">
	<polygon fill="#FFFBFF" points="267.546,248.247 231.756,269.975 195.142,248.247 231.756,226.521 	"/>
	<polygon fill="#FFFBFF" points="269.103,251.363 269.103,294.988 233.313,316.451 233.313,273.092 	"/>
	<polygon fill="#FFFBFF" points="193.584,251.363 193.584,294.988 230.197,316.582 230.197,273.092 	"/>
</g>
<g opacity="0.02">
	<polygon fill="#FFFBFF" points="346.9,248.247 311.11,269.975 274.497,248.247 311.11,226.521 	"/>
	<polygon fill="#FFFBFF" points="348.457,251.363 348.457,294.988 312.667,316.451 312.667,273.092 	"/>
	<polygon fill="#FFFBFF" points="272.939,251.363 272.939,294.988 309.552,316.582 309.552,273.092 	"/>
</g>
<g opacity="0.02">
	<polygon fill="#FFFBFF" points="426.255,248.247 390.465,269.975 353.851,248.247 390.465,226.521 	"/>
	<polygon fill="#FFFBFF" points="427.812,251.363 427.812,294.988 392.021,316.451 392.021,273.092 	"/>
	<polygon fill="#FFFBFF" points="352.293,251.363 352.293,294.988 388.906,316.582 388.906,273.092 	"/>
</g>
<g opacity="0.02">
	<polygon fill="#FFFBFF" points="505.609,248.247 469.819,269.975 433.206,248.247 469.819,226.521 	"/>
	<polygon fill="#FFFBFF" points="507.166,251.363 507.166,294.988 471.376,316.451 471.376,273.092 	"/>
	<polygon fill="#FFFBFF" points="431.647,251.363 431.647,294.988 468.261,316.582 468.261,273.092 	"/>
</g>
<g opacity="0.02">
	<polygon fill="#FFFBFF" points="584.964,248.247 549.174,269.975 512.56,248.247 549.174,226.521 	"/>
	<polygon fill="#FFFBFF" points="586.521,251.363 586.521,294.988 550.729,316.451 550.729,273.092 	"/>
	<polygon fill="#FFFBFF" points="511.002,251.363 511.002,294.988 547.615,316.582 547.615,273.092 	"/>
</g>
<g opacity="0.02">
	<polygon fill="#FFFBFF" points="703.995,176.829 668.205,198.557 631.591,176.829 668.205,155.104 	"/>
	<polygon fill="#FFFBFF" points="705.552,179.945 705.552,223.568 669.762,245.033 669.762,201.672 	"/>
	<polygon fill="#FFFBFF" points="630.033,179.945 630.033,223.568 666.646,245.163 666.646,201.672 	"/>
</g>
<g opacity="0.02">
	<polygon fill="#FFFBFF" points="783.35,176.829 747.56,198.557 710.945,176.829 747.56,155.104 	"/>
	<polygon fill="#FFFBFF" points="784.906,179.945 784.906,223.568 749.116,245.033 749.116,201.672 	"/>
	<polygon fill="#FFFBFF" points="709.388,179.945 709.388,223.568 746.001,245.163 746.001,201.672 	"/>
</g>
<g opacity="0.02">
	<polygon fill="#FFFBFF" points="862.704,176.829 826.913,198.557 790.3,176.829 826.913,155.104 	"/>
	<polygon fill="#FFFBFF" points="864.261,179.945 864.261,223.568 828.471,245.033 828.471,201.672 	"/>
	<polygon fill="#FFFBFF" points="788.742,179.945 788.742,223.568 825.354,245.163 825.354,201.672 	"/>
</g>
<g opacity="0.02">
	<polygon fill="#FFFBFF" points="942.06,176.829 906.269,198.557 869.654,176.829 906.269,155.104 	"/>
	<polygon fill="#FFFBFF" points="943.615,179.945 943.615,223.568 907.825,245.033 907.825,201.672 	"/>
	<polygon fill="#FFFBFF" points="868.098,179.945 868.098,223.568 904.709,245.163 904.709,201.672 	"/>
</g>
<g opacity="0.02">
	<polygon fill="#FFFBFF" points="1021.413,176.829 985.623,198.557 949.009,176.829 985.623,155.104 	"/>
	<polygon fill="#FFFBFF" points="1022.97,179.945 1022.97,223.568 987.18,245.033 987.18,201.672 	"/>
	<polygon fill="#FFFBFF" points="947.451,179.945 947.451,223.568 984.063,245.163 984.063,201.672 	"/>
</g>
<g opacity="0.02">
	<polygon fill="#FFFBFF" points="307.224,176.829 271.433,198.557 234.819,176.829 271.433,155.104 	"/>
	<polygon fill="#FFFBFF" points="308.78,179.945 308.78,223.568 272.99,245.033 272.99,201.672 	"/>
	<polygon fill="#FFFBFF" points="233.262,179.945 233.262,223.568 269.875,245.163 269.875,201.672 	"/>
</g>
<g opacity="0.02">
	<polygon fill="#FFFBFF" points="386.578,176.829 350.788,198.557 314.174,176.829 350.788,155.104 	"/>
	<polygon fill="#FFFBFF" points="388.134,179.945 388.134,223.568 352.344,245.033 352.344,201.672 	"/>
	<polygon fill="#FFFBFF" points="312.616,179.945 312.616,223.568 349.229,245.163 349.229,201.672 	"/>
</g>
<g opacity="0.02">
	<polygon fill="#FFFBFF" points="465.932,176.829 430.142,198.557 393.528,176.829 430.142,155.104 	"/>
	<polygon fill="#FFFBFF" points="467.489,179.945 467.489,223.568 431.698,245.033 431.698,201.672 	"/>
	<polygon fill="#FFFBFF" points="391.971,179.945 391.971,223.568 428.583,245.163 428.583,201.672 	"/>
</g>
<g opacity="0.02">
	<polygon fill="#FFFBFF" points="545.287,176.829 509.496,198.557 472.883,176.829 509.496,155.104 	"/>
	<polygon fill="#FFFBFF" points="546.844,179.945 546.844,223.568 511.053,245.033 511.053,201.672 	"/>
	<polygon fill="#FFFBFF" points="471.325,179.945 471.325,223.568 507.938,245.163 507.938,201.672 	"/>
</g>
<g opacity="0.02">
	<polygon fill="#FFFBFF" points="624.641,176.829 588.851,198.557 552.237,176.829 588.851,155.104 	"/>
	<polygon fill="#FFFBFF" points="626.198,179.945 626.198,223.568 590.407,245.033 590.407,201.672 	"/>
	<polygon fill="#FFFBFF" points="550.68,179.945 550.68,223.568 587.292,245.163 587.292,201.672 	"/>
</g>
<g opacity="0.02">
	<polygon fill="#FFFBFF" points="664.318,105.247 628.527,126.974 591.915,105.247 628.527,83.522 	"/>
	<polygon fill="#FFFBFF" points="665.875,108.364 665.875,151.988 630.084,173.452 630.084,130.092 	"/>
	<polygon fill="#FFFBFF" points="590.356,108.364 590.356,151.988 626.97,173.582 626.97,130.092 	"/>
</g>
<g opacity="0.02">
	<polygon fill="#FFFBFF" points="743.673,105.247 707.882,126.974 671.269,105.247 707.882,83.522 	"/>
	<polygon fill="#FFFBFF" points="745.229,108.364 745.229,151.988 709.439,173.452 709.439,130.092 	"/>
	<polygon fill="#FFFBFF" points="669.711,108.364 669.711,151.988 706.323,173.582 706.323,130.092 	"/>
</g>
<g opacity="0.02">
	<polygon fill="#FFFBFF" points="823.027,105.247 787.236,126.974 750.623,105.247 787.236,83.522 	"/>
	<polygon fill="#FFFBFF" points="824.584,108.364 824.584,151.988 788.794,173.452 788.794,130.092 	"/>
	<polygon fill="#FFFBFF" points="749.065,108.364 749.065,151.988 785.678,173.582 785.678,130.092 	"/>
</g>
<g opacity="0.02">
	<polygon fill="#FFFBFF" points="902.381,105.247 866.591,126.974 829.978,105.247 866.591,83.522 	"/>
	<polygon fill="#FFFBFF" points="903.938,108.364 903.938,151.988 868.147,173.452 868.147,130.092 	"/>
	<polygon fill="#FFFBFF" points="828.42,108.364 828.42,151.988 865.032,173.582 865.032,130.092 	"/>
</g>
<g opacity="0.02">
	<polygon fill="#FFFBFF" points="981.735,105.247 945.945,126.974 909.332,105.247 945.945,83.522 	"/>
	<polygon fill="#FFFBFF" points="983.293,108.364 983.293,151.988 947.502,173.452 947.502,130.092 	"/>
	<polygon fill="#FFFBFF" points="907.774,108.364 907.774,151.988 944.387,173.582 944.387,130.092 	"/>
</g>
<g opacity="0.02">
	<polygon fill="#FFFBFF" points="1061.091,105.247 1025.3,126.974 988.687,105.247 1025.3,83.522 	"/>
	<polygon fill="#FFFBFF" points="1062.647,108.364 1062.647,151.988 1026.856,173.452 1026.856,130.092 	"/>
	<polygon fill="#FFFBFF" points="987.129,108.364 987.129,151.988 1023.741,173.582 1023.741,130.092 	"/>
</g>
<g opacity="0.02">
	<polygon fill="#FFFBFF" points="267.546,105.247 231.756,126.974 195.142,105.247 231.756,83.522 	"/>
	<polygon fill="#FFFBFF" points="269.103,108.364 269.103,151.988 233.313,173.452 233.313,130.092 	"/>
	<polygon fill="#FFFBFF" points="193.584,108.364 193.584,151.988 230.197,173.582 230.197,130.092 	"/>
</g>
<g opacity="0.02">
	<polygon fill="#FFFBFF" points="346.9,105.247 311.11,126.974 274.497,105.247 311.11,83.522 	"/>
	<polygon fill="#FFFBFF" points="348.457,108.364 348.457,151.988 312.667,173.452 312.667,130.092 	"/>
	<polygon fill="#FFFBFF" points="272.939,108.364 272.939,151.988 309.552,173.582 309.552,130.092 	"/>
</g>
<g opacity="0.02">
	<polygon fill="#FFFBFF" points="426.255,105.247 390.465,126.974 353.851,105.247 390.465,83.522 	"/>
	<polygon fill="#FFFBFF" points="427.812,108.364 427.812,151.988 392.021,173.452 392.021,130.092 	"/>
	<polygon fill="#FFFBFF" points="352.293,108.364 352.293,151.988 388.906,173.582 388.906,130.092 	"/>
</g>
<g opacity="0.02">
	<polygon fill="#FFFBFF" points="505.609,105.247 469.819,126.974 433.206,105.247 469.819,83.522 	"/>
	<polygon fill="#FFFBFF" points="507.166,108.364 507.166,151.988 471.376,173.452 471.376,130.092 	"/>
	<polygon fill="#FFFBFF" points="431.647,108.364 431.647,151.988 468.261,173.582 468.261,130.092 	"/>
</g>
<g opacity="0.02">
	<polygon fill="#FFFBFF" points="584.964,105.247 549.174,126.974 512.56,105.247 549.174,83.522 	"/>
	<polygon fill="#FFFBFF" points="586.521,108.364 586.521,151.988 550.729,173.452 550.729,130.092 	"/>
	<polygon fill="#FFFBFF" points="511.002,108.364 511.002,151.988 547.615,173.582 547.615,130.092 	"/>
</g>
<g opacity="0.02">
	<polygon fill="#FFFBFF" points="703.995,33.829 668.205,55.556 631.591,33.829 668.205,12.104 	"/>
	<polygon fill="#FFFBFF" points="705.552,36.945 705.552,80.568 669.762,102.033 669.762,58.672 	"/>
	<polygon fill="#FFFBFF" points="630.033,36.945 630.033,80.568 666.646,102.163 666.646,58.672 	"/>
</g>
<g opacity="0.02">
	<polygon fill="#FFFBFF" points="783.35,33.829 747.56,55.556 710.945,33.829 747.56,12.104 	"/>
	<polygon fill="#FFFBFF" points="784.906,36.945 784.906,80.568 749.116,102.033 749.116,58.672 	"/>
	<polygon fill="#FFFBFF" points="709.388,36.945 709.388,80.568 746.001,102.163 746.001,58.672 	"/>
</g>
<g opacity="0.02">
	<polygon fill="#FFFBFF" points="862.704,33.829 826.913,55.556 790.3,33.829 826.913,12.104 	"/>
	<polygon fill="#FFFBFF" points="864.261,36.945 864.261,80.568 828.471,102.033 828.471,58.672 	"/>
	<polygon fill="#FFFBFF" points="788.742,36.945 788.742,80.568 825.354,102.163 825.354,58.672 	"/>
</g>
<g opacity="0.02">
	<polygon fill="#FFFBFF" points="942.06,33.829 906.269,55.556 869.654,33.829 906.269,12.104 	"/>
	<polygon fill="#FFFBFF" points="943.615,36.945 943.615,80.568 907.825,102.033 907.825,58.672 	"/>
	<polygon fill="#FFFBFF" points="868.098,36.945 868.098,80.568 904.709,102.163 904.709,58.672 	"/>
</g>
<g opacity="0.02">
	<polygon fill="#FFFBFF" points="1021.413,33.829 985.623,55.556 949.009,33.829 985.623,12.104 	"/>
	<polygon fill="#FFFBFF" points="1022.97,36.945 1022.97,80.568 987.18,102.033 987.18,58.672 	"/>
	<polygon fill="#FFFBFF" points="947.451,36.945 947.451,80.568 984.063,102.163 984.063,58.672 	"/>
</g>
<g opacity="0.02">
	<polygon fill="#FFFBFF" points="307.224,33.829 271.433,55.556 234.819,33.829 271.433,12.104 	"/>
	<polygon fill="#FFFBFF" points="308.78,36.945 308.78,80.568 272.99,102.033 272.99,58.672 	"/>
	<polygon fill="#FFFBFF" points="233.262,36.945 233.262,80.568 269.875,102.163 269.875,58.672 	"/>
</g>
<g opacity="0.02">
	<polygon fill="#FFFBFF" points="386.578,33.829 350.788,55.556 314.174,33.829 350.788,12.104 	"/>
	<polygon fill="#FFFBFF" points="388.134,36.945 388.134,80.568 352.344,102.033 352.344,58.672 	"/>
	<polygon fill="#FFFBFF" points="312.616,36.945 312.616,80.568 349.229,102.163 349.229,58.672 	"/>
</g>
<g opacity="0.02">
	<polygon fill="#FFFBFF" points="465.932,33.829 430.142,55.556 393.528,33.829 430.142,12.104 	"/>
	<polygon fill="#FFFBFF" points="467.489,36.945 467.489,80.568 431.698,102.033 431.698,58.672 	"/>
	<polygon fill="#FFFBFF" points="391.971,36.945 391.971,80.568 428.583,102.163 428.583,58.672 	"/>
</g>
<g opacity="0.02">
	<polygon fill="#FFFBFF" points="545.287,33.829 509.496,55.556 472.883,33.829 509.496,12.104 	"/>
	<polygon fill="#FFFBFF" points="546.844,36.945 546.844,80.568 511.053,102.033 511.053,58.672 	"/>
	<polygon fill="#FFFBFF" points="471.325,36.945 471.325,80.568 507.938,102.163 507.938,58.672 	"/>
</g>
<g opacity="0.02">
	<polygon fill="#FFFBFF" points="29.9,248.247 -5.89,269.975 -42.503,248.247 -5.89,226.521 	"/>
	<polygon fill="#FFFBFF" points="31.457,251.363 31.457,294.988 -4.333,316.451 -4.333,273.092 	"/>
	<polygon fill="#FFFBFF" points="-44.061,251.363 -44.061,294.988 -7.448,316.582 -7.448,273.092 	"/>
</g>
<g opacity="0.02">
	<polygon fill="#FFFBFF" points="109.255,248.247 73.465,269.975 36.851,248.247 73.465,226.521 	"/>
	<polygon fill="#FFFBFF" points="110.812,251.363 110.812,294.988 75.021,316.451 75.021,273.092 	"/>
	<polygon fill="#FFFBFF" points="35.293,251.363 35.293,294.988 71.906,316.582 71.906,273.092 	"/>
</g>
<g opacity="0.02">
	<polygon fill="#FFFBFF" points="188.609,248.247 152.819,269.975 116.206,248.247 152.819,226.521 	"/>
	<polygon fill="#FFFBFF" points="190.166,251.363 190.166,294.988 154.376,316.451 154.376,273.092 	"/>
	<polygon fill="#FFFBFF" points="114.647,251.363 114.647,294.988 151.261,316.582 151.261,273.092 	"/>
</g>
<g opacity="0.02">
	<polygon fill="#FFFBFF" points="69.578,176.829 33.788,198.557 -2.826,176.829 33.788,155.104 	"/>
	<polygon fill="#FFFBFF" points="71.134,179.945 71.134,223.568 35.344,245.033 35.344,201.672 	"/>
	<polygon fill="#FFFBFF" points="-4.384,179.945 -4.384,223.568 32.229,245.163 32.229,201.672 	"/>
</g>
<g opacity="0.02">
	<polygon fill="#FFFBFF" points="148.932,176.829 113.142,198.557 76.528,176.829 113.142,155.104 	"/>
	<polygon fill="#FFFBFF" points="150.489,179.945 150.489,223.568 114.698,245.033 114.698,201.672 	"/>
	<polygon fill="#FFFBFF" points="74.971,179.945 74.971,223.568 111.583,245.163 111.583,201.672 	"/>
</g>
<g opacity="0.02">
	<polygon fill="#FFFBFF" points="228.287,176.829 192.496,198.557 155.883,176.829 192.496,155.104 	"/>
	<polygon fill="#FFFBFF" points="229.844,179.945 229.844,223.568 194.053,245.033 194.053,201.672 	"/>
	<polygon fill="#FFFBFF" points="154.325,179.945 154.325,223.568 190.938,245.163 190.938,201.672 	"/>
</g>
<g opacity="0.02">
	<polygon fill="#FFFBFF" points="29.9,105.247 -5.89,126.974 -42.503,105.247 -5.89,83.522 	"/>
	<polygon fill="#FFFBFF" points="31.457,108.364 31.457,151.988 -4.333,173.452 -4.333,130.092 	"/>
	<polygon fill="#FFFBFF" points="-44.061,108.364 -44.061,151.988 -7.448,173.582 -7.448,130.092 	"/>
</g>
<g opacity="0.02">
	<polygon fill="#FFFBFF" points="109.255,105.247 73.465,126.974 36.851,105.247 73.465,83.522 	"/>
	<polygon fill="#FFFBFF" points="110.812,108.364 110.812,151.988 75.021,173.452 75.021,130.092 	"/>
	<polygon fill="#FFFBFF" points="35.293,108.364 35.293,151.988 71.906,173.582 71.906,130.092 	"/>
</g>
<g opacity="0.02">
	<polygon fill="#FFFBFF" points="188.609,105.247 152.819,126.974 116.206,105.247 152.819,83.522 	"/>
	<polygon fill="#FFFBFF" points="190.166,108.364 190.166,151.988 154.376,173.452 154.376,130.092 	"/>
	<polygon fill="#FFFBFF" points="114.647,108.364 114.647,151.988 151.261,173.582 151.261,130.092 	"/>
</g>
<g opacity="0.02">
	<polygon fill="#FFFBFF" points="69.578,33.829 33.788,55.556 -2.826,33.829 33.788,12.104 	"/>
	<polygon fill="#FFFBFF" points="71.134,36.945 71.134,80.568 35.344,102.033 35.344,58.672 	"/>
	<polygon fill="#FFFBFF" points="-4.384,36.945 -4.384,80.568 32.229,102.163 32.229,58.672 	"/>
</g>
<g opacity="0.02">
	<polygon fill="#FFFBFF" points="148.932,33.829 113.142,55.556 76.528,33.829 113.142,12.104 	"/>
	<polygon fill="#FFFBFF" points="150.489,36.945 150.489,80.568 114.698,102.033 114.698,58.672 	"/>
	<polygon fill="#FFFBFF" points="74.971,36.945 74.971,80.568 111.583,102.163 111.583,58.672 	"/>
</g>
<g opacity="0.02">
	<polygon fill="#FFFBFF" points="228.287,33.829 192.496,55.556 155.883,33.829 192.496,12.104 	"/>
	<polygon fill="#FFFBFF" points="229.844,36.945 229.844,80.568 194.053,102.033 194.053,58.672 	"/>
	<polygon fill="#FFFBFF" points="154.325,36.945 154.325,80.568 190.938,102.163 190.938,58.672 	"/>
</g>
<g opacity="0.02">
	<polygon fill="#FFFBFF" points="624.641,33.829 588.851,55.556 552.237,33.829 588.851,12.104 	"/>
	<polygon fill="#FFFBFF" points="626.198,36.945 626.198,80.568 590.407,102.033 590.407,58.672 	"/>
	<polygon fill="#FFFBFF" points="550.68,36.945 550.68,80.568 587.292,102.163 587.292,58.672 	"/>
</g>
<g opacity="0.02">
	<polygon fill="#FFFBFF" points="664.318,-37.753 628.527,-16.026 591.915,-37.753 628.527,-59.478 	"/>
	<polygon fill="#FFFBFF" points="665.875,-34.636 665.875,8.988 630.084,30.452 630.084,-12.908 	"/>
	<polygon fill="#FFFBFF" points="590.356,-34.636 590.356,8.988 626.97,30.582 626.97,-12.908 	"/>
</g>
<g opacity="0.02">
	<polygon fill="#FFFBFF" points="743.673,-37.753 707.882,-16.026 671.269,-37.753 707.882,-59.478 	"/>
	<polygon fill="#FFFBFF" points="745.229,-34.636 745.229,8.988 709.439,30.452 709.439,-12.908 	"/>
	<polygon fill="#FFFBFF" points="669.711,-34.636 669.711,8.988 706.323,30.582 706.323,-12.908 	"/>
</g>
<g opacity="0.02">
	<polygon fill="#FFFBFF" points="823.027,-37.753 787.236,-16.026 750.623,-37.753 787.236,-59.478 	"/>
	<polygon fill="#FFFBFF" points="824.584,-34.636 824.584,8.988 788.794,30.452 788.794,-12.908 	"/>
	<polygon fill="#FFFBFF" points="749.065,-34.636 749.065,8.988 785.678,30.582 785.678,-12.908 	"/>
</g>
<g opacity="0.02">
	<polygon fill="#FFFBFF" points="902.381,-37.753 866.591,-16.026 829.978,-37.753 866.591,-59.478 	"/>
	<polygon fill="#FFFBFF" points="903.938,-34.636 903.938,8.988 868.147,30.452 868.147,-12.908 	"/>
	<polygon fill="#FFFBFF" points="828.42,-34.636 828.42,8.988 865.032,30.582 865.032,-12.908 	"/>
</g>
<g opacity="0.02">
	<polygon fill="#FFFBFF" points="981.735,-37.753 945.945,-16.026 909.332,-37.753 945.945,-59.478 	"/>
	<polygon fill="#FFFBFF" points="983.293,-34.636 983.293,8.988 947.502,30.452 947.502,-12.908 	"/>
	<polygon fill="#FFFBFF" points="907.774,-34.636 907.774,8.988 944.387,30.582 944.387,-12.908 	"/>
</g>
<g opacity="0.02">
	<polygon fill="#FFFBFF" points="1061.091,-37.753 1025.3,-16.026 988.687,-37.753 1025.3,-59.478 	"/>
	<polygon fill="#FFFBFF" points="1062.647,-34.636 1062.647,8.988 1026.856,30.452 1026.856,-12.908 	"/>
	<polygon fill="#FFFBFF" points="987.129,-34.636 987.129,8.988 1023.741,30.582 1023.741,-12.908 	"/>
</g>
<g opacity="0.02">
	<polygon fill="#FFFBFF" points="267.546,-37.753 231.756,-16.026 195.142,-37.753 231.756,-59.478 	"/>
	<polygon fill="#FFFBFF" points="269.103,-34.636 269.103,8.988 233.313,30.452 233.313,-12.908 	"/>
	<polygon fill="#FFFBFF" points="193.584,-34.636 193.584,8.988 230.197,30.582 230.197,-12.908 	"/>
</g>
<g opacity="0.02">
	<polygon fill="#FFFBFF" points="346.9,-37.753 311.11,-16.026 274.497,-37.753 311.11,-59.478 	"/>
	<polygon fill="#FFFBFF" points="348.457,-34.636 348.457,8.988 312.667,30.452 312.667,-12.908 	"/>
	<polygon fill="#FFFBFF" points="272.939,-34.636 272.939,8.988 309.552,30.582 309.552,-12.908 	"/>
</g>
<g opacity="0.02">
	<polygon fill="#FFFBFF" points="426.255,-37.753 390.465,-16.026 353.851,-37.753 390.465,-59.478 	"/>
	<polygon fill="#FFFBFF" points="427.812,-34.636 427.812,8.988 392.021,30.452 392.021,-12.908 	"/>
	<polygon fill="#FFFBFF" points="352.293,-34.636 352.293,8.988 388.906,30.582 388.906,-12.908 	"/>
</g>
<g opacity="0.02">
	<polygon fill="#FFFBFF" points="505.609,-37.753 469.819,-16.026 433.206,-37.753 469.819,-59.478 	"/>
	<polygon fill="#FFFBFF" points="507.166,-34.636 507.166,8.988 471.376,30.452 471.376,-12.908 	"/>
	<polygon fill="#FFFBFF" points="431.647,-34.636 431.647,8.988 468.261,30.582 468.261,-12.908 	"/>
</g>
<g opacity="0.02">
	<polygon fill="#FFFBFF" points="584.964,-37.753 549.174,-16.026 512.56,-37.753 549.174,-59.478 	"/>
	<polygon fill="#FFFBFF" points="586.521,-34.636 586.521,8.988 550.729,30.452 550.729,-12.908 	"/>
	<polygon fill="#FFFBFF" points="511.002,-34.636 511.002,8.988 547.615,30.582 547.615,-12.908 	"/>
</g>
<g opacity="0.02">
	<polygon fill="#FFFBFF" points="29.9,-37.753 -5.89,-16.026 -42.503,-37.753 -5.89,-59.478 	"/>
	<polygon fill="#FFFBFF" points="31.457,-34.636 31.457,8.988 -4.333,30.452 -4.333,-12.908 	"/>
	<polygon fill="#FFFBFF" points="-44.061,-34.636 -44.061,8.988 -7.448,30.582 -7.448,-12.908 	"/>
</g>
<g opacity="0.02">
	<polygon fill="#FFFBFF" points="109.255,-37.753 73.465,-16.026 36.851,-37.753 73.465,-59.478 	"/>
	<polygon fill="#FFFBFF" points="110.812,-34.636 110.812,8.988 75.021,30.452 75.021,-12.908 	"/>
	<polygon fill="#FFFBFF" points="35.293,-34.636 35.293,8.988 71.906,30.582 71.906,-12.908 	"/>
</g>
<g opacity="0.02">
	<polygon fill="#FFFBFF" points="188.609,-37.753 152.819,-16.026 116.206,-37.753 152.819,-59.478 	"/>
	<polygon fill="#FFFBFF" points="190.166,-34.636 190.166,8.988 154.376,30.452 154.376,-12.908 	"/>
	<polygon fill="#FFFBFF" points="114.647,-34.636 114.647,8.988 151.261,30.582 151.261,-12.908 	"/>
</g>
</svg>
