<?xml version="1.0" encoding="utf-8"?>
<!-- Generator: Adobe Illustrator 15.0.2, SVG Export Plug-In . SVG Version: 6.00 Build 0)  -->
<!DOCTYPE svg PUBLIC "-//W3C//DTD SVG 1.1//EN" "http://www.w3.org/Graphics/SVG/1.1/DTD/svg11.dtd">
<svg version="1.1" id="Calque_1" xmlns="http://www.w3.org/2000/svg" xmlns:xlink="http://www.w3.org/1999/xlink" x="0px" y="0px"
	 width="80px" height="28px" viewBox="0 0 80 28" enable-background="new 0 0 80 28" xml:space="preserve">
<g id="Calque_1_1_">
	<g>
		<path fill="#00CC00" d="M9.545,13.36l2.467,7.567l2.64-7.567h1.945l2.397,7.567l2.658-7.567h2.518l-4.776,11.315h-2.223
			l-2.188-6.604l-2.536,6.604h-2.241c0,0-2.98-8.449-3.338-9.375c-0.625-1.614-1.391-1.939-1.391-1.939L9.545,13.36L9.545,13.36z"/>
		<path fill="#00CC00" d="M42.795,13.36c0.364,0,3.941-0.07,4.324-0.07c2.9,0,5.055,0.07,6.549,1.908
			c0.955,1.16,1.111,2.657,1.111,3.479c0,2.785-1.563,4.711-3.752,5.517c-1.112,0.409-2.607,0.481-4.325,0.481h-3.907V13.36
			L42.795,13.36z M45.975,23.123h0.746c2.381,0,4.654,0,4.654-4.318c0-3.998-2.449-3.998-3.855-3.998
			c-0.435,0-1.022,0.018-1.545,0.018V23.123z"/>
		<polygon fill="#00CC00" points="63.421,15.057 63.421,16.498 58.797,16.498 58.797,18.926 62.919,18.926 62.919,20.336 
			58.797,20.336 58.797,23.143 63.611,23.143 63.611,24.678 56.098,24.678 56.098,15.057 		"/>
		<polygon fill="#00CC00" points="66.93,15.057 69.262,21.778 71.964,15.057 74.148,15.057 69.572,24.678 67.623,24.678 
			63.859,15.057 		"/>
		<path fill="#00CC00" d="M71.878,23.723c0-0.601,0.521-1.053,1.183-1.053c0.653,0,1.172,0.451,1.172,1.053
			c0,0.608-0.519,1.06-1.172,1.06C72.396,24.78,71.878,24.331,71.878,23.723z M73.061,24.991c0.787,0,1.463-0.536,1.463-1.271
			c0-0.728-0.676-1.265-1.463-1.265c-0.799,0-1.473,0.537-1.473,1.265C71.588,24.455,72.262,24.991,73.061,24.991z M72.751,23.823
			h0.293l0.44,0.632h0.283l-0.479-0.643c0.245-0.025,0.437-0.143,0.437-0.401c0-0.288-0.195-0.415-0.593-0.415H72.5v1.459h0.251
			V23.823z M72.751,23.637v-0.451h0.347c0.176,0,0.363,0.033,0.363,0.215c0,0.226-0.193,0.234-0.408,0.234h-0.302V23.637z"/>
		<path fill="#00CC00" d="M38.438,15.057c0.914,0,1.645,0.189,2.193,0.574c0.583,0.413,0.873,1.023,0.873,1.832
			c0,0.854-0.348,1.456-1.042,1.813c-0.228,0.121-0.566,0.24-1.02,0.357c0.53,0.1,0.957,0.256,1.283,0.471
			c0.646,0.435,0.963,1.053,0.963,1.859c0,0.992-0.408,1.729-1.221,2.206c-0.535,0.313-1.167,0.47-1.893,0.47h-4.72v-9.582H38.438z
			 M36.6,19.27h0.554c0.53,0,0.915-0.088,1.152-0.266c0.157-0.121,0.285-0.314,0.385-0.574c0.1-0.262,0.151-0.545,0.151-0.848
			c0-0.992-0.505-1.49-1.51-1.49H36.6V19.27z M36.6,23.602h0.867c0.969,0,1.454-0.518,1.454-1.553c0-1.178-0.566-1.767-1.703-1.767
			H36.6V23.602z"/>
		<polygon fill="#00CC00" points="32.233,15.057 32.233,16.498 27.612,16.498 27.612,18.926 31.732,18.926 31.732,20.336 
			27.612,20.336 27.612,23.143 32.426,23.143 32.426,24.678 24.911,24.678 24.911,15.057 		"/>
	</g>
	<g>
		<path fill="#00CC00" d="M7.225,8.402v2.933H5.477V3.368c1.166-0.041,1.846-0.062,2.044-0.062c1.554,0,2.691,0.194,3.411,0.581
			c0.721,0.386,1.08,0.99,1.08,1.81c0,1.831-1.332,2.745-3.992,2.745C7.821,8.442,7.555,8.428,7.225,8.402z M7.225,4.592v2.553
			C7.521,7.17,7.754,7.184,7.923,7.184c0.798,0,1.381-0.109,1.749-0.324c0.366-0.217,0.551-0.568,0.551-1.056
			c0-0.826-0.822-1.241-2.468-1.241C7.573,4.566,7.395,4.575,7.225,4.592z"/>
		<path fill="#00CC00" d="M12.737,8.407c0-0.89,0.318-1.613,0.952-2.171c0.634-0.56,1.471-0.839,2.511-0.839
			c1.093,0,1.941,0.268,2.547,0.805c0.603,0.538,0.905,1.271,0.905,2.205c0,0.93-0.308,1.669-0.924,2.217
			c-0.616,0.548-1.458,0.823-2.529,0.823c-1.095,0-1.945-0.275-2.552-0.829C13.039,10.067,12.737,9.327,12.737,8.407z M14.484,8.407
			c0,1.286,0.572,1.929,1.715,1.929c0.524,0,0.938-0.167,1.246-0.501c0.308-0.335,0.461-0.809,0.461-1.427
			c0-1.267-0.568-1.899-1.707-1.899c-0.525,0-0.941,0.168-1.25,0.5C14.639,7.343,14.484,7.808,14.484,8.407z"/>
		<path fill="#00CC00" d="M27.985,11.446h-0.612l-1.976-3.583l-1.97,3.583h-0.617l-2.716-5.94h1.769l1.445,3.479l1.762-3.479h0.604
			l1.822,3.501l1.56-3.501h1.654L27.985,11.446z"/>
		<path fill="#00CC00" d="M38.073,8.84h-5.142c0.031,0.465,0.228,0.827,0.591,1.084c0.362,0.258,0.851,0.387,1.464,0.387
			c0.768,0,1.35-0.161,1.748-0.485l0.652,1.04c-0.591,0.388-1.474,0.582-2.648,0.582c-1.099,0-1.967-0.259-2.604-0.781
			c-0.639-0.52-0.958-1.247-0.958-2.181c0-0.917,0.351-1.664,1.051-2.231c0.7-0.568,1.542-0.854,2.523-0.854
			c1.044,0,1.882,0.251,2.513,0.755c0.632,0.505,0.948,1.147,0.948,1.929C38.213,8.247,38.166,8.5,38.073,8.84z M32.991,7.814h3.536
			c-0.118-0.852-0.7-1.277-1.749-1.277C33.819,6.535,33.224,6.962,32.991,7.814z"/>
		<path fill="#00CC00" d="M43.718,6.774c-0.299-0.159-0.63-0.239-0.988-0.239c-0.39,0-0.737,0.144-1.038,0.43
			c-0.302,0.288-0.453,0.637-0.453,1.052v3.319h-1.68V5.507h1.68v0.535c0.47-0.429,1.096-0.642,1.875-0.642
			c0.573,0,1.012,0.07,1.318,0.211L43.718,6.774z"/>
		<path fill="#00CC00" d="M51.81,8.84h-5.146c0.031,0.465,0.23,0.827,0.594,1.084c0.363,0.258,0.854,0.387,1.468,0.387
			c0.765,0,1.348-0.161,1.746-0.485l0.651,1.04c-0.594,0.388-1.474,0.582-2.654,0.582c-1.096,0-1.964-0.259-2.604-0.781
			c-0.64-0.52-0.958-1.247-0.958-2.181c0-0.917,0.35-1.664,1.053-2.231c0.699-0.569,1.539-0.854,2.522-0.854
			c1.046,0,1.883,0.251,2.511,0.755c0.636,0.505,0.952,1.147,0.952,1.929C51.952,8.247,51.903,8.5,51.81,8.84z M46.729,7.814h3.534
			c-0.113-0.852-0.699-1.277-1.746-1.277C47.559,6.535,46.962,6.962,46.729,7.814z"/>
		<path fill="#00CC00" d="M57.926,11.338v-0.354c-0.139,0.124-0.375,0.232-0.707,0.324c-0.329,0.093-0.673,0.138-1.025,0.138
			c-1.008,0-1.794-0.258-2.37-0.773c-0.577-0.515-0.864-1.234-0.864-2.155c0-0.921,0.332-1.671,0.992-2.251
			c0.661-0.58,1.489-0.87,2.483-0.87c0.546,0,1.045,0.09,1.495,0.271V3.335l1.678-0.326v8.33H57.926L57.926,11.338L57.926,11.338z
			 M57.926,6.901c-0.358-0.233-0.734-0.349-1.125-0.349c-0.67,0-1.187,0.166-1.55,0.5c-0.362,0.333-0.546,0.808-0.546,1.428
			c0,1.214,0.723,1.819,2.167,1.819c0.159,0,0.356-0.04,0.595-0.116c0.233-0.078,0.389-0.158,0.463-0.238L57.926,6.901L57.926,6.901
			z"/>
		<path fill="#00CC00" d="M65.86,11.134l-0.24,0.273H65.02V6.246l1.066-0.208v1.732c0.283-0.141,0.595-0.213,0.93-0.213
			c0.672,0,1.215,0.173,1.626,0.515c0.411,0.344,0.616,0.782,0.616,1.319c0,0.62-0.206,1.113-0.619,1.474
			c-0.416,0.36-0.975,0.542-1.681,0.542C66.532,11.406,66.166,11.316,65.86,11.134z M66.086,8.509v1.936
			c0.157,0.152,0.37,0.225,0.639,0.225c0.516,0,0.881-0.098,1.096-0.298c0.216-0.198,0.325-0.516,0.325-0.953
			c0-0.753-0.441-1.129-1.335-1.129C66.493,8.293,66.252,8.366,66.086,8.509z"/>
		<path fill="#00CC00" d="M72.146,11.934c-0.116,0.248-0.36,0.454-0.739,0.615c-0.376,0.164-0.809,0.246-1.311,0.246v-0.769
			c0.821,0,1.232-0.167,1.232-0.501c0-0.222-0.113-0.561-0.335-1.02l-1.437-2.878h1.11l1.249,2.563l1.124-2.563h1.107L72.146,11.934
			z"/>
	</g>
</g>
</svg>
